<svg width="360" height="270" viewBox="0 0 360 270" fill="none" xmlns="http://www.w3.org/2000/svg">
<g clip-path="url(#clip0)">
<path opacity="0.1" d="M216.416 176.568C223.37 176.095 231.999 170.468 238.708 167.979C246.649 165.04 254.621 162.213 262.624 159.498C290.487 150.039 318.648 141.98 347.108 135.32C349.764 134.697 352.424 134.089 355.088 133.495C350.938 122.796 344.508 113.583 336.44 106.776C336.647 104.434 336.752 102.08 336.755 99.7254C336.755 62.5053 311.822 32.332 281.055 32.332C271.583 32.32 262.27 35.2367 254.024 40.7979C232.248 23.7083 203.825 13.3652 172.728 13.3652C128.54 13.3652 89.7488 34.2504 67.768 65.7002L171.073 86.5215L234.432 99.2862C162.202 101.858 89.7488 104.415 17.7268 98.3776C8.2195 109.352 2.20206 123.926 0.702847 139.607C-0.796371 155.288 2.31569 171.104 9.50718 184.351C9.50718 185.699 9.55439 187.035 9.63935 188.361C11.474 188.988 13.2456 189.596 14.8348 189.994C40.3474 196.424 66.0236 201.805 91.8635 206.137C72.8219 220.145 49.6327 222.127 27.6677 228.059C38.304 238.533 52.7481 244.953 68.6649 244.953H305.661C331.323 244.953 352.124 223.64 352.124 197.345C355.975 189.769 358.541 181.364 359.676 172.608C312.19 178.078 264.113 173.328 216.416 176.568Z" fill="#F7D022"/>
<path opacity="0.1" d="M360 161.409C360.025 150.571 357.865 139.886 353.703 130.254C349.541 120.621 343.498 112.324 336.083 106.063C336.289 103.722 336.394 101.37 336.398 99.0159C336.398 61.7958 311.453 31.6337 280.699 31.6337C271.226 31.6216 261.912 34.537 253.664 40.0959C231.888 22.9988 203.462 12.652 172.365 12.652C121.783 12.652 78.2429 40.0396 58.9338 79.3133C57.8608 79.2382 56.7814 79.1969 55.6926 79.1969C24.9352 79.1969 -0.00672718 109.37 -0.00672718 146.59C-0.0282855 159.737 3.15556 172.608 9.15691 183.634C9.15691 217.122 35.6503 244.27 68.3177 244.27H305.32C330.979 244.27 351.78 222.953 351.78 196.658C357.177 186.029 360.02 173.835 360 161.409Z" fill="#F7D022"/>
<path d="M294.004 120.119C293.554 119.707 293.027 119.431 292.468 119.315C291.88 119.154 291.279 119.053 290.681 118.94L282.933 117.607C282.151 117.434 281.354 117.383 280.561 117.457C280.163 117.496 279.775 117.629 279.421 117.848C279.067 118.067 278.752 118.368 278.496 118.733C278.265 119.073 278.139 119.497 278.137 119.935C278.181 120.375 278.301 120.8 278.49 121.181C278.565 121.359 278.629 121.544 278.682 121.733C278.756 122.158 278.848 122.578 278.959 122.991C278.993 123.08 279.038 123.164 279.091 123.239C279.092 123.26 279.092 123.281 279.091 123.302C279.006 123.821 279.28 124.361 279.157 124.86C279.05 125.288 278.701 125.547 278.48 125.904C278.334 126.157 278.252 126.456 278.247 126.764C278.241 127.072 278.311 127.374 278.449 127.635C278.685 128.07 279.113 128.367 279.236 128.866C279.396 129.523 278.962 130.158 278.575 130.665C277.863 131.598 277.205 132.587 276.605 133.627C276.436 133.882 276.328 134.187 276.29 134.509C276.256 135.162 276.781 135.737 276.69 136.386C276.618 136.897 276.199 137.208 275.837 137.512C274.5 138.564 273.427 140.253 273.32 142.164C272.976 139.124 271.92 136.261 270.273 133.905C269.823 133.259 269.329 132.609 269.144 131.791C269.075 131.464 269.062 131.115 268.968 130.8C268.653 129.805 267.652 129.377 267.215 128.461C266.9 127.815 266.9 126.985 266.51 126.418C266.12 125.852 265.506 125.724 265.169 125.176C265.001 124.805 264.858 124.418 264.741 124.019C264.6 123.695 264.401 123.41 264.159 123.186C264.113 123.142 264.064 123.1 264.014 123.062C264.067 123.006 264.109 122.938 264.137 122.862C264.166 122.785 264.181 122.703 264.181 122.619C264.181 122.18 263.816 121.891 263.498 121.673C263.089 121.395 262.69 121.095 262.299 120.783C262.725 120.547 263.094 120.187 263.372 119.736C263.722 119.063 263.866 118.268 263.782 117.483C263.76 116.85 263.562 116.243 263.218 115.76C263.02 115.508 262.771 115.328 262.564 115.092C262.026 114.465 261.843 113.537 261.62 112.681C261.324 111.555 260.861 110.373 259.999 109.776C259.584 109.487 259.099 109.351 258.693 109.047C258.287 108.743 257.947 108.169 258.089 107.617C258.183 107.242 258.476 106.982 258.674 106.663C258.911 106.251 259.002 105.743 258.927 105.251C258.852 104.759 258.618 104.322 258.275 104.035C258.042 103.859 257.755 103.705 257.708 103.382C257.526 103.326 257.361 103.209 257.232 103.046C257.102 102.882 257.015 102.679 256.978 102.459C256.907 102.017 256.907 101.564 256.978 101.122C257.06 100.424 257.141 99.7279 257.22 99.0346C257.359 99.1034 257.508 99.1388 257.658 99.1388C257.808 99.1388 257.957 99.1034 258.095 99.0346C258.367 99.5619 258.684 100.055 259.039 100.506C259.997 101.856 260.744 103.402 261.242 105.068C261.421 105.668 261.604 106.34 262.07 106.66C262.23 106.768 262.413 106.825 262.57 106.941C262.764 107.103 262.931 107.306 263.061 107.542C263.439 108.139 263.816 108.732 264.191 109.329L264.209 109.419C264.22 109.472 264.237 109.523 264.26 109.569C264.33 109.663 264.426 109.722 264.53 109.734C265.689 110.053 266.988 110.346 267.992 109.592C268.898 108.916 269.295 107.579 270.063 106.686C270.607 106.051 271.378 105.56 271.532 104.666C271.348 104.598 271.168 104.519 270.991 104.43C271.148 104.242 271.306 104.024 271.52 103.776C271.831 103.413 272.111 103.015 272.357 102.586C272.622 102.058 272.834 101.493 272.986 100.904C273.592 98.8419 274.201 96.7783 274.811 94.7134C275.101 93.7373 275.39 92.7537 275.755 91.8038C276.133 90.7752 276.58 89.7878 276.992 88.7779C278.056 86.1514 278.877 83.3945 279.44 80.556C279.54 80.1687 279.573 79.7613 279.538 79.3583C279.45 78.7088 279.037 78.1983 278.644 77.7365C278.249 77.2256 277.798 76.7799 277.304 76.4112C277.055 76.2271 276.779 76.1038 276.491 76.0483C276.202 75.9929 275.907 76.0065 275.623 76.0883C274.818 76.3699 274.311 77.3535 274.125 78.3409C273.94 79.3283 274.009 80.3457 273.93 81.3444C273.817 82.7898 273.401 84.1864 273.301 85.6355C273.247 86.4727 273.301 87.3212 273.216 88.1584C273.061 89.2541 272.741 90.3073 272.272 91.267C271.251 93.5558 269.87 95.5879 268.203 97.2513C268.011 97.4428 267.813 97.6268 267.624 97.8332C267.624 97.6718 267.646 97.5066 267.665 97.3452C267.528 97.3877 267.394 97.4442 267.265 97.5141C267.281 97.3245 267.265 97.1331 267.218 96.951C266.966 96.0537 265.846 95.8247 265.644 94.9124C265.611 94.6868 265.593 94.4582 265.591 94.2291C265.525 93.4295 265.069 92.7537 264.911 91.9765C264.766 91.2595 264.877 90.4748 264.597 89.8103C264.358 89.3948 264.077 89.0164 263.759 88.684C263.381 88.1687 263.109 87.5557 262.963 86.8932C262.922 86.7093 262.885 86.5178 262.841 86.3338C262.888 85.9173 262.85 85.493 262.727 85.0987C262.441 84.2502 261.701 83.7058 261.434 82.8461C261.226 82.1778 261.318 81.3444 260.924 80.8263C260.715 80.5787 260.459 80.3946 260.178 80.2894C258.738 79.6202 257.227 79.1944 255.688 79.0242C254.826 78.9304 253.875 78.8778 253.258 78.1532C252.538 77.3122 252.503 75.7993 251.66 75.1498C250.917 74.5754 249.866 74.9996 249.29 75.8068C249.204 75.9255 249.124 76.0509 249.051 76.1822C248.946 75.679 248.924 75.1563 248.985 74.6429C248.985 74.5153 249.007 74.3839 249.016 74.2675C250.437 73.7136 251.647 72.5744 252.428 71.0538C252.428 71.0538 252.428 71.0538 252.428 71.0764L252.465 71.1927C252.557 71.4668 252.701 71.7296 252.915 71.7596C253.058 71.7576 253.195 71.698 253.306 71.5907C253.495 71.4333 253.671 71.252 253.828 71.0501C253.908 70.945 253.983 70.8361 254.055 70.7234C254.2 70.489 254.324 70.2374 254.426 69.9726C254.582 69.5742 254.688 69.1503 254.741 68.7149C254.797 68.2794 254.804 67.8326 254.866 67.3971C254.925 67.06 255.002 66.7277 255.096 66.4022C255.128 66.2934 255.159 66.1845 255.187 66.0756C255.216 65.9667 255.257 65.8203 255.288 65.7002C255.485 64.928 255.591 64.127 255.603 63.32C255.603 63.1848 255.603 63.0497 255.603 62.9145C255.591 62.3878 255.492 61.8692 255.31 61.3889C255.129 60.9087 254.869 60.4764 254.546 60.1176C254.004 59.5882 253.287 59.3667 252.89 58.6496C252.632 58.1691 252.576 57.5496 252.425 56.9865C252.261 56.3125 251.943 55.7066 251.506 55.2375C251.069 54.7683 250.53 54.4547 249.951 54.3322C249.254 54.241 248.554 54.4706 247.994 54.9742L247.95 55.0155C247.638 55.2997 247.373 55.6512 247.169 56.0517C246.754 55.915 246.373 55.657 246.062 55.3008C245.747 54.9516 245.505 54.5124 245.187 54.1745C244.89 53.85 244.525 53.6265 244.131 53.5275C243.737 53.4284 243.328 53.4574 242.946 53.6114C242.553 53.7992 242.203 54.0955 241.925 54.4759C241.646 54.8564 241.447 55.3102 241.344 55.8001C241.171 56.5735 241.203 57.4633 240.841 58.109C240.561 58.6121 240.101 58.8599 239.78 59.3179C239.581 59.6079 239.445 59.9523 239.384 60.3203C239.346 60.5261 239.328 60.7365 239.33 60.9473C239.33 61.0411 239.33 61.135 239.349 61.2251C239.349 61.2251 239.349 61.2551 239.349 61.2701C239.36 61.373 239.378 61.4747 239.403 61.5742C239.492 61.9548 239.653 62.3064 239.872 62.6029C240.079 62.8868 240.339 63.1103 240.63 63.2562C240.749 63.3115 240.871 63.3579 240.995 63.3951L241.37 63.4964L241.502 63.534C241.05 64.5462 240.799 65.6688 240.768 66.8152C240.738 67.9615 240.928 69.1008 241.326 70.1453C241.326 70.2504 241.304 70.3555 241.294 70.4607C241.243 71.939 241.298 73.4198 241.458 74.887C241.502 75.4689 241.527 76.1109 241.228 76.5727C241.092 76.7543 240.939 76.9168 240.772 77.0569C240.942 76.7941 241.115 76.5351 241.291 76.2761C240.847 75.743 240.146 75.6754 239.516 75.7279C238.298 75.8365 237.116 76.2674 236.055 76.9894C235.35 77.4737 234.626 78.1157 233.82 78.003C233.345 77.9392 232.876 77.6276 232.414 77.7778C232.154 77.9047 231.911 78.0767 231.693 78.2884C231.521 78.4357 231.313 78.5121 231.101 78.5061C230.607 77.7815 229.843 77.2897 229.251 76.7003C228.578 75.9852 227.961 75.1972 227.41 74.3463C226.391 72.8784 225.374 71.4067 224.373 69.9238C223.53 68.6774 222.665 67.3296 222.517 65.734C222.502 65.5757 222.494 65.4165 222.495 65.2572C222.515 64.4991 222.595 63.7449 222.734 63.0046C222.771 62.8259 222.771 62.639 222.734 62.4602C222.64 62.0848 222.278 61.9459 221.966 61.8633C222.007 61.5742 222.035 61.2776 222.051 60.9961C222.227 57.7674 222.035 54.4861 222.608 51.325C222.825 50.1086 223.181 48.8772 223.914 47.9949C225.063 46.6096 226.985 46.2755 227.866 44.6348C228.603 43.2683 228.31 41.3348 227.385 40.1297C226.46 38.9245 225.034 38.4327 223.678 38.4928C223.297 38.4772 222.922 38.5975 222.599 38.8382C222.297 39.158 222.071 39.5673 221.944 40.0245L220.594 43.9403C220.203 44.9597 219.873 46.0111 219.606 47.0864C219.228 48.7308 219.143 50.4652 218.844 52.1246C218.844 53.4011 218.155 54.9929 217.778 56.168C217.356 57.4895 216.9 58.796 216.519 60.1438C216.425 60.4817 216.094 61.4841 215.89 62.3964C215.812 62.4501 215.74 62.5144 215.676 62.5879C215.511 62.8391 215.362 63.1038 215.229 63.38C214.942 63.8306 214.477 64.0708 214.162 64.5063C213.847 64.9418 213.781 65.7415 214.219 65.9592C214.307 65.9949 214.399 66.0188 214.492 66.0306C214.55 66.0363 214.607 66.0476 214.662 66.0644C215.134 66.222 215.32 66.9316 215.251 67.5173C215.182 68.1029 214.936 68.6436 214.895 69.2292C214.81 70.2654 215.32 71.2303 215.811 72.1013C216.319 73.0455 216.881 73.9473 217.491 74.8006C217.935 75.3938 218.435 75.9269 218.882 76.4976C220.585 78.585 221.938 81.0252 223.467 83.2928C224.017 84.1487 224.643 84.9316 225.333 85.628C225.784 86.0487 226.256 86.4361 226.746 86.7881L229.377 88.7779C229.675 89.0387 230.013 89.2286 230.371 89.3373C230.488 89.356 230.607 89.356 230.724 89.3373C230.74 89.4311 230.752 89.5212 230.771 89.6151C230.976 90.5987 231.426 91.4922 231.476 92.4946C231.526 93.497 231.451 94.5219 231.511 95.5356C231.567 96.4704 231.74 97.4128 231.784 98.3326C231.872 100.105 231.507 101.854 231.155 103.589C230.623 106.126 230.302 108.717 229.267 111.018C228.977 111.653 228.637 112.299 228.637 113.023C228.637 113.109 228.637 113.2 228.656 113.286L228.184 113.605C228.046 113.699 227.907 113.793 227.782 113.89C227.184 114.356 226.545 114.87 226.299 115.674C226.101 116.323 226.192 117.067 225.953 117.697C225.942 117.726 225.929 117.753 225.915 117.78C225.664 118.366 225.163 118.801 225.05 119.443C224.965 119.935 225.129 120.457 225.05 120.945C225.05 120.945 225.05 120.945 225.05 120.963C224.978 121.209 224.922 121.46 224.88 121.714C224.877 121.798 224.883 121.881 224.899 121.962C224.959 122.247 225.091 122.502 225.277 122.694C225.39 122.824 225.513 122.941 225.645 123.043C225.779 123.148 225.918 123.246 226.06 123.336L226.142 123.389C226.262 123.464 226.381 123.535 226.504 123.603L226.586 123.644C226.727 123.719 226.872 123.787 227.017 123.847L227.118 123.884C227.231 123.929 227.347 123.971 227.464 124.004L227.542 124.034L227.615 124.053L227.929 124.132L228.046 124.158C228.184 124.186 228.326 124.208 228.471 124.226H228.597C228.704 124.226 228.807 124.245 228.911 124.248H229.059C229.169 124.248 229.276 124.248 229.374 124.248H229.487C229.635 124.248 229.783 124.222 229.931 124.2H229.978C230.11 124.177 230.242 124.151 230.375 124.117L230.475 124.091C230.598 124.057 230.721 124.023 230.843 123.978L230.909 123.956C231.057 123.903 231.205 123.847 231.35 123.779C231.851 123.534 232.337 123.246 232.804 122.919C233.119 122.713 233.433 122.503 233.748 122.311C233.981 122.171 234.221 122.046 234.465 121.936C235.061 121.633 235.708 121.504 236.354 121.56C236.672 121.612 236.987 121.689 237.298 121.789C237.298 121.831 237.298 121.872 237.298 121.913C237.554 123.715 237.806 125.517 238.056 127.32C238.468 126.966 238.904 126.653 239.359 126.385C239.274 126.657 239.218 126.941 239.192 127.229C239.173 127.453 239.173 127.678 239.192 127.901C239.22 128.258 239.283 128.652 239.104 128.934C238.994 129.107 238.789 129.204 238.729 129.399C238.686 129.599 238.675 129.807 238.698 130.011C238.685 130.245 238.602 130.465 238.465 130.632C238.327 130.798 238.144 130.901 237.949 130.92C238.039 131.222 238.041 131.552 237.955 131.855C237.869 132.159 237.699 132.42 237.474 132.594C237.342 132.67 237.219 132.766 237.109 132.88C237.001 133.046 236.929 133.24 236.898 133.447C236.482 135.306 235.627 136.983 234.434 138.278C233.986 138.698 233.578 139.174 233.216 139.697C232.992 140.103 232.808 140.538 232.665 140.993C231.826 143.44 230.975 145.89 230.11 148.34C229.632 149.71 229.166 151.103 229.015 152.578C228.637 156.626 225.616 160.057 226.183 164.074C226.297 165.078 226.637 166.026 227.165 166.818C227.794 167.723 228.738 168.241 229.682 168.662C232.108 169.788 234.667 170.404 237.216 171.023L241.219 172.003C242.004 172.219 242.801 172.369 243.604 172.454C244.57 172.533 245.561 172.424 246.502 172.716C247.084 172.897 247.641 173.231 248.242 173.268C248.758 173.302 249.394 173.171 249.699 173.674C250.005 174.177 249.769 174.841 250.058 175.288C250.524 175.998 251.66 175.288 252.166 175.956C252.305 176.213 252.411 176.493 252.481 176.786C252.558 176.968 252.665 177.129 252.796 177.259C252.827 177.471 252.839 177.686 252.834 177.901C252.768 178.773 252.616 179.633 252.38 180.462C252.003 181.986 251.626 183.511 251.251 185.038C251.107 185.577 251.002 186.13 250.936 186.69C250.912 186.962 250.912 187.236 250.936 187.508C251.002 188.338 251.402 189.194 252.066 189.464C252.581 189.627 253.129 189.546 253.595 189.239C254.045 188.959 254.468 188.619 254.854 188.225C255.551 187.597 256.163 186.845 256.67 185.995C258.243 183.187 257.733 179.388 258.838 176.283C259.571 174.211 261 172.529 261.475 170.344C261.586 169.928 261.599 169.484 261.513 169.06C261.314 168.309 260.644 167.881 260.018 167.611H259.99C259.475 167.392 258.95 167.213 258.416 167.074C258.284 167.04 258.149 167.014 258.013 166.987C257.714 166.697 257.476 166.326 257.318 165.906C257.293 165.683 257.243 165.464 257.17 165.257C257.12 165.167 257.053 165.093 256.974 165.041C256.895 164.989 256.807 164.96 256.717 164.956C256.402 164.919 255.98 165.054 255.637 165.024C254.936 164.964 254.47 164.142 253.841 163.762C253.211 163.383 252.528 163.477 251.858 163.533C251.618 163.573 251.375 163.555 251.141 163.481C250.861 163.327 250.606 163.118 250.385 162.861C249.998 162.502 249.546 162.255 249.065 162.139C248.584 162.024 248.087 162.044 247.613 162.197C247.312 162.342 246.993 162.428 246.669 162.452C246.055 162.411 245.621 161.758 245.168 161.262C243.928 159.907 242.163 159.55 240.658 158.66C240.428 158.558 240.236 158.361 240.117 158.105C239.944 157.594 240.334 157.084 240.687 156.734L243.273 154.17C246.106 151.362 249.646 149.248 250.961 145.13C251.098 144.578 251.311 144.056 251.591 143.587C251.692 143.444 251.81 143.317 251.94 143.211C252.512 142.769 253.206 142.608 253.875 142.761C254.691 142.979 255.465 143.382 256.154 143.947C257.28 144.761 258.376 145.637 259.442 146.575C260.498 147.475 261.502 148.459 262.447 149.519C264.099 151.396 265.475 153.622 267.013 155.646C268.552 157.669 270.311 159.558 272.448 160.526C274.585 161.495 277.168 161.454 279.003 159.828C281.121 157.951 281.8 154.594 282.335 151.516C283.515 150.157 283.871 148.088 284.447 146.26C284.809 145.1 285.271 144.007 285.662 142.851C286.127 141.492 286.492 140.088 286.857 138.688C287.271 137.281 287.552 135.824 287.694 134.344C287.846 132.005 287.32 129.516 287.871 127.32C288.598 127.128 289.258 126.64 289.973 126.355C291.036 125.938 292.176 126.006 293.302 126.013H293.375C293.763 126.062 294.153 125.952 294.482 125.701C294.86 125.326 294.92 124.684 294.939 124.102C294.983 122.664 294.907 121.05 294.004 120.119ZM248.409 56.0779C248.149 56.1547 247.88 56.1776 247.613 56.1455L248.409 56.0779Z" fill="url(#paint0_linear)"/>
<path d="M249.649 79.8276C249.268 80.2137 248.822 80.4968 248.34 80.6573L246.109 81.6109C244.898 82.129 243.633 82.6509 242.355 82.4631C241.641 82.358 238.579 81.8212 238.116 81.1566C237.411 80.128 239.882 78.615 240.725 77.7477C240.916 77.5838 241.093 77.3977 241.254 77.1921C241.568 76.7341 241.527 76.0921 241.483 75.5139C241.323 74.0493 241.268 72.5709 241.32 71.0951C241.344 70.7433 241.386 70.3935 241.446 70.0477C241.76 68.3207 243.107 68.9514 244.171 69.4094C245.451 69.9056 246.689 70.5455 247.868 71.3204C248.227 71.5413 248.54 71.8572 248.781 72.2439C249.247 73.0849 249.061 74.1887 248.985 75.2474C248.919 76.0696 248.922 76.858 249.354 77.4549C249.571 77.6831 249.77 77.9345 249.948 78.2058C250.049 78.479 250.074 78.7834 250.021 79.0749C249.967 79.3664 249.837 79.63 249.649 79.8276Z" fill="#BE6F72"/>
<path d="M218.829 52.7705C219.144 51.1073 219.213 49.3916 219.591 47.7435C219.857 46.6718 220.187 45.6242 220.579 44.6086L221.966 40.7454C222.093 40.2893 222.319 39.8813 222.621 39.5628C222.945 39.3238 223.32 39.2037 223.7 39.2174C225.057 39.1574 226.482 39.6604 227.407 40.8506C228.333 42.0407 228.625 43.9666 227.889 45.3294C227.008 46.9701 225.085 47.3004 223.936 48.682C223.203 49.5643 222.848 50.7919 222.63 52.0046C222.058 55.1582 222.25 58.4282 222.073 61.6494C222.017 62.6518 221.853 63.7968 221.129 64.3149C220.692 64.5707 220.205 64.6834 219.72 64.6416L217.655 64.6828C217.309 64.6828 216.054 64.9419 215.824 64.6303C215.421 64.0859 216.34 61.3753 216.507 60.7709C216.878 59.4306 217.334 58.1241 217.765 56.8063C218.14 55.6312 218.829 54.0432 218.829 52.7705Z" fill="#BE6F72"/>
<path d="M261.453 170.716C260.978 172.885 259.549 174.575 258.816 176.644C257.711 179.741 258.209 183.529 256.648 186.33C256.142 187.18 255.529 187.934 254.832 188.563C254.446 188.955 254.023 189.294 253.573 189.573C253.107 189.88 252.559 189.961 252.044 189.799C251.38 189.528 250.98 188.672 250.914 187.846C250.891 187.576 250.891 187.303 250.914 187.032C250.98 186.473 251.086 185.921 251.229 185.384C251.606 183.864 251.983 182.343 252.359 180.818C252.594 179.992 252.746 179.135 252.812 178.265C252.853 177.319 252.349 176.088 252.563 175.206C252.661 174.808 253.026 174.455 253.193 174.121C253.429 173.64 253.611 173.123 253.734 172.585C253.992 171.538 254.168 170.419 254.709 169.537C255.062 169.013 255.476 168.552 255.937 168.166C256.277 167.811 256.676 167.543 257.107 167.382C257.526 167.294 257.956 167.318 258.366 167.453C258.9 167.589 259.425 167.767 259.939 167.986H259.968C260.597 168.256 261.264 168.673 261.462 169.432C261.559 169.852 261.556 170.297 261.453 170.716Z" fill="#3F3D56"/>
<path d="M294.936 124.56C294.917 125.142 294.857 125.792 294.479 126.156C294.151 126.407 293.76 126.517 293.372 126.467H293.287C292.163 126.467 291.021 126.392 289.957 126.809C289.149 127.128 288.406 127.714 287.563 127.83C286.401 127.988 285.31 127.23 284.281 126.569C283.312 125.946 282.317 125.382 281.3 124.879C280.633 124.553 279.271 124.342 278.95 123.472C278.84 123.059 278.747 122.641 278.673 122.218C278.62 122.028 278.556 121.844 278.481 121.666C278.292 121.285 278.172 120.862 278.128 120.423C278.13 119.985 278.256 119.562 278.487 119.222C278.744 118.859 279.058 118.561 279.412 118.344C279.766 118.126 280.152 117.995 280.548 117.956C281.341 117.883 282.139 117.933 282.921 118.107L290.669 119.436C291.267 119.537 291.868 119.638 292.456 119.811C293.015 119.927 293.542 120.202 293.992 120.614C294.907 121.531 294.983 123.141 294.936 124.56Z" fill="#3F3D56"/>
<path d="M288.126 126.963C287.182 129.339 287.861 132.151 287.691 134.779C287.549 136.256 287.268 137.709 286.854 139.112C286.489 140.508 286.124 141.909 285.658 143.264C285.268 144.39 284.806 145.517 284.444 146.666C283.868 148.498 283.5 150.559 282.332 151.922C281.797 154.993 281.118 158.349 279 160.211C277.159 161.833 274.594 161.889 272.445 160.909C270.296 159.929 268.549 158.052 267.01 156.029C265.471 154.005 264.096 151.801 262.444 149.917C261.497 148.857 260.491 147.874 259.433 146.977C258.367 146.054 257.271 145.185 256.144 144.372C255.454 143.809 254.681 143.407 253.866 143.189C253.196 143.036 252.503 143.197 251.93 143.64C251.8 143.745 251.683 143.872 251.581 144.015C251.301 144.483 251.088 145.003 250.952 145.554C249.63 149.661 246.084 151.771 243.251 154.572L240.665 157.129C240.312 157.478 239.922 157.988 240.095 158.495C240.214 158.752 240.406 158.949 240.636 159.051C242.141 159.937 243.906 160.294 245.146 161.645C245.599 162.141 246.033 162.794 246.647 162.832C246.971 162.809 247.29 162.724 247.591 162.58C248.064 162.427 248.561 162.407 249.042 162.522C249.523 162.637 249.975 162.883 250.363 163.241C250.584 163.497 250.839 163.707 251.119 163.86C251.352 163.934 251.596 163.952 251.836 163.913C252.506 163.856 253.218 163.785 253.819 164.142C254.42 164.498 254.914 165.339 255.615 165.399C255.958 165.429 256.368 165.294 256.695 165.332C256.785 165.335 256.873 165.364 256.952 165.417C257.031 165.469 257.098 165.543 257.148 165.632C257.221 165.839 257.271 166.056 257.296 166.278C257.425 166.807 257.859 167.13 258.142 167.566C258.577 168.234 258.64 169.143 258.595 169.987C258.453 172.629 257.466 175.104 255.839 176.903C255.377 177.466 254.788 177.857 254.143 178.029C253.82 178.11 253.484 178.067 253.182 177.907C252.881 177.748 252.629 177.479 252.462 177.139C252.392 176.847 252.286 176.569 252.148 176.313C251.641 175.649 250.505 176.355 250.039 175.645C249.75 175.202 249.957 174.492 249.68 174.034C249.404 173.576 248.736 173.659 248.223 173.633C247.622 173.595 247.065 173.257 246.483 173.081C245.539 172.788 244.551 172.897 243.585 172.818C242.782 172.734 241.985 172.583 241.2 172.367L237.197 171.391C234.648 170.772 232.09 170.145 229.663 169.037C228.735 168.617 227.8 168.099 227.146 167.198C226.618 166.406 226.279 165.459 226.164 164.457C225.594 160.451 228.615 157.027 228.996 152.992C229.132 151.52 229.626 150.131 230.091 148.764C230.945 146.321 231.797 143.877 232.647 141.432C232.784 140.977 232.963 140.541 233.182 140.133C233.544 139.61 233.952 139.136 234.399 138.718C235.592 137.427 236.447 135.753 236.863 133.897C236.894 133.691 236.967 133.496 237.074 133.33C237.186 133.219 237.308 133.124 237.439 133.049C237.664 132.874 237.833 132.614 237.919 132.311C238.005 132.008 238.004 131.68 237.914 131.378C238.11 131.359 238.293 131.256 238.43 131.09C238.568 130.923 238.65 130.703 238.663 130.469C238.64 130.266 238.651 130.06 238.695 129.861C238.77 129.666 238.959 129.568 239.069 129.396C239.249 129.114 239.186 128.72 239.157 128.367C239.138 128.144 239.138 127.918 239.157 127.695C239.226 126.9 239.524 126.158 240.001 125.596C240.753 124.714 241.823 124.943 242.861 124.733C243.897 124.466 244.909 124.08 245.882 123.58C248.613 122.297 251.488 121.503 254.413 121.226C257.353 120.951 260.306 121.512 263.029 122.863C263.426 123.055 263.799 123.307 264.14 123.614C264.383 123.837 264.581 124.12 264.722 124.444C264.839 124.841 264.982 125.227 265.15 125.596C265.487 126.144 266.123 126.321 266.491 126.839C266.859 127.357 266.891 128.232 267.196 128.874C267.633 129.79 268.647 130.214 268.949 131.209C269.043 131.524 269.056 131.87 269.125 132.196C269.295 133.015 269.805 133.661 270.255 134.306C271.904 136.66 272.961 139.524 273.301 142.566C273.401 140.662 274.475 138.977 275.818 137.925C276.18 137.644 276.599 137.332 276.671 136.822C276.762 136.176 276.237 135.602 276.271 134.945C276.31 134.624 276.418 134.321 276.586 134.066C277.186 133.029 277.844 132.042 278.556 131.111C278.943 130.605 279.377 129.985 279.217 129.317C279.094 128.818 278.666 128.525 278.43 128.089C278.292 127.83 278.222 127.527 278.228 127.22C278.233 126.913 278.315 126.614 278.462 126.362C278.682 126.006 279.031 125.747 279.138 125.322C279.261 124.823 278.987 124.282 279.072 123.768C279.187 123.356 279.416 123.003 279.72 122.766C280.138 122.312 280.613 121.94 281.127 121.662C281.958 121.286 282.883 121.425 283.764 121.572C285.237 121.816 286.889 122.191 287.72 123.663C288.251 124.583 288.522 125.979 288.126 126.963Z" fill="#65617D"/>
<path opacity="0.1" d="M294.936 124.56C294.917 125.142 294.857 125.792 294.48 126.156C294.151 126.407 293.76 126.517 293.372 126.467H293.287C293.416 125.687 294.212 125.24 294.351 124.448C294.374 124.204 294.356 123.958 294.296 123.723C294.237 123.489 294.137 123.272 294.004 123.085C293.331 122 292.249 121.399 291.172 120.96C288.132 119.716 284.875 119.425 281.713 120.115C280.853 120.282 280.017 120.589 279.227 121.027C278.965 121.223 278.713 121.436 278.472 121.666C278.283 121.285 278.163 120.862 278.119 120.423C278.12 119.985 278.247 119.562 278.478 119.222C278.735 118.859 279.049 118.561 279.403 118.344C279.756 118.126 280.143 117.995 280.539 117.956C281.332 117.883 282.13 117.933 282.912 118.107L290.659 119.436C291.257 119.537 291.858 119.638 292.447 119.811C293.006 119.927 293.533 120.202 293.982 120.614C294.908 121.531 294.983 123.141 294.936 124.56Z" fill="black"/>
<path opacity="0.1" d="M261.453 170.715C260.978 172.885 259.549 174.575 258.816 176.643C257.711 179.741 258.209 183.529 256.648 186.33C256.141 187.18 255.529 187.934 254.832 188.563C254.446 188.955 254.023 189.294 253.573 189.573C253.107 189.88 252.559 189.961 252.044 189.799C251.38 189.528 250.98 188.672 250.914 187.846C250.891 187.575 250.891 187.302 250.914 187.032L250.933 187.092C251.207 187.88 251.654 188.706 252.359 188.845C252.623 188.868 252.889 188.825 253.139 188.72C253.389 188.615 253.618 188.449 253.812 188.233C254.851 187.238 255.455 185.755 256.031 184.325C256.482 183.293 256.838 182.207 257.095 181.085C257.22 180.447 257.28 179.793 257.409 179.155C258.007 176.054 260.043 173.524 260.493 170.381C260.53 170.165 260.538 169.944 260.518 169.724C260.459 169.438 260.368 169.163 260.248 168.906C260.138 168.615 260.058 168.31 260.009 167.997C260.638 168.268 261.305 168.684 261.503 169.443C261.585 169.864 261.567 170.305 261.453 170.715Z" fill="black"/>
<path opacity="0.1" d="M256.701 165.332C256.41 166.24 255.92 167.039 255.282 167.645C254.386 168.459 253.337 169 252.226 169.221C251.709 169.379 251.167 169.371 250.653 169.199C249.954 168.91 249.451 168.129 248.737 167.904C248.227 167.738 247.679 167.885 247.163 167.795C246.235 167.641 245.514 166.796 244.765 166.12C242.471 164.063 239.46 163.398 237.166 161.341C237.063 161.266 236.979 161.162 236.92 161.037C236.876 160.902 236.86 160.757 236.873 160.613C236.881 159.365 237.117 158.134 237.562 157.005C237.927 156.217 238.362 155.478 238.859 154.801C240.914 151.798 242.978 148.772 245.439 146.238C246.471 145.175 247.597 144.184 248.9 143.703C249.624 143.437 251.053 143.185 251.934 143.636C251.804 143.742 251.686 143.868 251.584 144.011C251.304 144.479 251.092 144.999 250.955 145.55C249.63 149.661 246.084 151.771 243.252 154.572L240.665 157.129C240.312 157.478 239.922 157.988 240.095 158.495C240.214 158.752 240.406 158.949 240.637 159.051C242.141 159.937 243.906 160.294 245.146 161.645C245.599 162.141 246.033 162.794 246.647 162.832C246.971 162.809 247.29 162.724 247.591 162.58C248.065 162.427 248.561 162.407 249.042 162.522C249.523 162.637 249.976 162.883 250.363 163.241C250.584 163.497 250.839 163.707 251.119 163.86C251.353 163.934 251.597 163.952 251.836 163.913C252.507 163.856 253.218 163.785 253.819 164.142C254.42 164.498 254.914 165.339 255.616 165.399C255.965 165.429 256.374 165.287 256.701 165.332Z" fill="black"/>
<path d="M227.76 114.379C227.162 114.837 226.526 115.355 226.281 116.151C226.08 116.8 226.174 117.543 225.932 118.174C225.689 118.805 225.145 119.244 225.025 119.92C224.94 120.412 225.107 120.93 225.025 121.422C224.954 121.677 224.896 121.938 224.852 122.203C224.821 122.762 225.224 123.216 225.617 123.528C226.454 124.178 227.408 124.584 228.401 124.714C229.394 124.845 230.399 124.696 231.335 124.279C232.175 123.903 232.933 123.291 233.739 122.811C234.525 122.271 235.423 122.01 236.329 122.06C236.848 122.127 237.345 122.353 237.865 122.435C238.121 122.496 238.386 122.481 238.636 122.392C238.887 122.303 239.116 122.143 239.303 121.925C239.463 121.661 239.571 121.356 239.617 121.035C240.055 118.974 239.856 116.789 239.441 114.716C239.026 112.644 238.396 110.651 237.953 108.589C237.638 107.061 237.396 105.496 236.87 104.051C236.345 102.605 235.46 101.261 234.224 100.709C234.126 100.652 234.015 100.635 233.909 100.66C233.83 100.7 233.759 100.762 233.704 100.841C232.726 102.077 231.989 103.557 231.546 105.173C231.052 106.971 230.916 108.879 230.463 110.684C230.268 111.435 230.016 112.441 229.519 113.016C229.022 113.59 228.323 113.947 227.76 114.379Z" fill="#3F3D56"/>
<path opacity="0.1" d="M239.626 121.024C239.574 121.346 239.461 121.65 239.296 121.913C239.109 122.132 238.881 122.293 238.63 122.381C238.379 122.469 238.114 122.483 237.858 122.42C237.342 122.345 236.845 122.116 236.325 122.045C235.42 121.995 234.521 122.255 233.735 122.796C232.93 123.276 232.162 123.873 231.328 124.26C230.108 124.812 228.775 124.902 227.511 124.519C226.839 124.317 226.201 123.982 225.623 123.528C225.226 123.22 224.827 122.777 224.858 122.202C224.902 121.939 224.96 121.68 225.031 121.425C225.113 120.934 224.949 120.415 225.031 119.924C225.151 119.248 225.698 118.797 225.938 118.174C226.177 117.551 226.085 116.804 226.284 116.154C226.529 115.355 227.168 114.84 227.766 114.378C228.364 113.917 229.075 113.564 229.553 113.004C229.615 112.917 229.671 112.824 229.72 112.727C230.065 112.092 230.318 111.393 230.469 110.658C230.932 108.848 231.057 106.945 231.548 105.143C231.994 103.528 232.732 102.05 233.71 100.814C233.763 100.734 233.832 100.671 233.912 100.634C234.018 100.608 234.128 100.624 234.226 100.679C235.46 101.235 236.344 102.579 236.873 104.024C237.402 105.47 237.625 107.028 237.955 108.559C238.396 110.62 239.028 112.621 239.444 114.69C239.859 116.759 240.064 118.959 239.626 121.024Z" fill="black"/>
<path opacity="0.1" d="M248.985 75.2361C247.505 75.797 245.904 75.6856 244.489 74.9233C243.074 74.161 241.945 72.8016 241.319 71.1064C241.344 70.7545 241.386 70.4048 241.445 70.0589C241.76 68.3319 243.107 68.9626 244.17 69.4207C245.451 69.9169 246.689 70.5567 247.868 71.3316C248.227 71.5525 248.539 71.8684 248.781 72.2552C249.246 73.0849 249.061 74.1886 248.985 75.2361Z" fill="black"/>
<path d="M247.085 75.2136C250.561 75.2136 253.378 71.8519 253.378 67.705C253.378 63.5581 250.561 60.1964 247.085 60.1964C243.609 60.1964 240.791 63.5581 240.791 67.705C240.791 71.8519 243.609 75.2136 247.085 75.2136Z" fill="#BE6F72"/>
<path opacity="0.1" d="M264.162 123.817C264.162 124.44 263.454 124.639 262.929 124.605C261.041 124.474 259.193 123.854 257.324 124.042C254.961 124.297 252.79 125.856 250.42 125.998C249.507 126.055 248.579 125.893 247.679 126.092C246.515 126.351 245.476 127.196 244.29 127.316C243.261 127.421 242.245 126.959 241.216 127.008C240.496 127.059 239.795 127.298 239.161 127.706C239.23 126.911 239.528 126.17 240.004 125.608C240.756 124.725 241.826 124.954 242.864 124.744C243.9 124.477 244.912 124.091 245.885 123.592C248.616 122.308 251.491 121.515 254.417 121.238C257.355 120.959 260.307 121.516 263.029 122.863C263.426 123.055 263.799 123.307 264.14 123.614C264.158 123.68 264.165 123.748 264.162 123.817Z" fill="black"/>
<path d="M244.174 81.4159L241.625 80.2896L240.548 79.8165C240.11 79.5973 239.648 79.4507 239.176 79.381C237.943 79.2684 236.782 80.2483 236.124 81.4985C235.466 82.7486 235.218 84.2391 235.007 85.692C234.717 87.6793 234.472 89.6741 234.27 91.6763C234.053 93.4845 233.943 95.3085 233.94 97.1351C234.012 101.783 234.837 106.367 235.743 110.891C236.187 112.897 236.522 114.934 236.747 116.992C236.822 117.84 236.857 118.692 236.933 119.544C237.014 120.502 237.147 121.448 237.279 122.398L238.037 127.793C238.981 126.993 240.054 126.291 241.215 126.25C242.245 126.205 243.264 126.663 244.29 126.558C245.47 126.441 246.515 125.596 247.679 125.337C248.579 125.138 249.507 125.296 250.423 125.244C252.79 125.101 254.964 123.539 257.324 123.288C259.197 123.085 261.056 123.716 262.932 123.847C263.454 123.884 264.162 123.685 264.162 123.059C264.162 122.623 263.797 122.334 263.479 122.116C261.981 121.04 260.556 119.826 259.215 118.486C257.976 117.314 256.717 116.113 255.864 114.529C253.809 110.718 254.514 105.563 252.761 101.543C251.336 98.2764 252.761 93.9965 252.761 90.3135C252.761 88.4777 252.761 86.6193 252.399 84.836C252.173 83.8386 251.891 82.8603 251.556 81.9077L250.332 78.2097C250.306 78.1016 250.256 78.0041 250.187 77.9281C250.105 77.8605 250.007 77.825 249.907 77.8268C249.172 77.7742 248.447 78.0513 247.874 78.6039C247.298 79.1633 246.93 79.9667 246.364 80.5486C245.744 81.1906 244.944 81.7537 244.174 81.4159Z" fill="#E3E8F4"/>
<path d="M248.287 79.2833C248.488 78.2546 248.705 77.1846 249.281 76.3812C249.857 75.5778 250.908 75.1536 251.651 75.728C252.494 76.3812 252.529 77.8904 253.249 78.7314C253.879 79.4522 254.823 79.5085 255.679 79.6024C257.218 79.7695 258.73 80.1942 260.169 80.8638C260.45 80.9677 260.706 81.1505 260.915 81.3969C261.309 81.9301 261.23 82.7485 261.425 83.413C261.692 84.269 262.432 84.8134 262.718 85.6656C263.033 86.6117 262.718 87.6704 262.454 88.6428C261.979 90.3885 261.68 92.2018 261.217 93.9551C260.755 95.7083 260.097 97.4353 259.014 98.7568C258.536 99.3425 257.825 99.8831 257.196 99.534L256.953 101.618C256.883 102.058 256.883 102.51 256.953 102.95C256.99 103.171 257.078 103.374 257.207 103.538C257.336 103.701 257.501 103.818 257.683 103.874C257.731 104.197 258.017 104.351 258.25 104.527C258.422 104.667 258.569 104.847 258.682 105.055C258.795 105.264 258.873 105.497 258.91 105.742C258.947 105.986 258.943 106.237 258.898 106.48C258.854 106.722 258.769 106.952 258.649 107.155C258.451 107.474 258.159 107.726 258.064 108.105C257.923 108.653 258.259 109.231 258.668 109.532C259.077 109.832 259.559 109.971 259.974 110.26C260.837 110.853 261.299 112.021 261.595 113.155C261.815 114.011 261.998 114.938 262.539 115.561C262.747 115.798 262.995 115.978 263.193 116.226C263.537 116.709 263.735 117.316 263.757 117.949C263.843 118.734 263.698 119.53 263.348 120.201C262.718 121.275 261.545 121.594 260.516 122.079C258.845 122.897 257.469 124.361 255.997 125.608C255.397 126.184 254.69 126.58 253.935 126.764C252.916 126.925 251.912 126.388 250.886 126.34C250.272 126.346 249.662 126.442 249.067 126.625L247.179 127.113C247.28 125.367 246.474 123.618 246.024 121.955C245.175 118.824 245.017 115.475 245.219 112.193C245.42 108.912 245.98 105.676 246.534 102.455C246.921 100.202 246.883 97.8483 247.478 95.6595C248.035 93.5534 248.831 91.5298 249.124 89.3373C249.602 85.7895 247.613 82.7823 248.287 79.2833Z" fill="#3F3D56"/>
<path d="M262.602 86.225C262.775 86.6065 262.898 87.0182 262.964 87.4451C263.109 88.1064 263.382 88.7183 263.76 89.2322C264.076 89.5653 264.358 89.9436 264.597 90.3584C264.886 91.0117 264.776 91.8076 264.912 92.5209C265.069 93.2981 265.525 93.9738 265.591 94.7735C265.593 95.0026 265.611 95.2312 265.645 95.4568C265.849 96.3653 266.97 96.5831 267.218 97.4916C267.385 98.0811 267.099 98.723 267.152 99.3425C267.191 99.5341 267.201 99.7325 267.18 99.9282C267.109 100.149 266.984 100.34 266.822 100.476C265.78 101.663 265.059 103.194 264.751 104.873C264.448 106.542 264.289 108.244 264.276 109.952L263.045 108.011C262.915 107.776 262.749 107.572 262.555 107.41C262.397 107.298 262.215 107.242 262.054 107.129C261.588 106.814 261.406 106.145 261.227 105.545C260.728 103.882 259.982 102.34 259.024 100.994C258.523 100.292 257.941 99.5865 257.831 98.6742C257.798 98.2552 257.817 97.8327 257.888 97.4203C258.202 94.9612 258.539 92.4421 259.543 90.2608C260.012 89.2397 260.619 88.3161 261.069 87.2799C261.371 86.5929 261.796 84.8058 262.602 86.225Z" fill="#3F3D56"/>
<path d="M231.558 88.5865C231.564 88.9026 231.496 89.2144 231.363 89.4876C231.242 89.6539 231.086 89.777 230.91 89.8433C230.735 89.9096 230.547 89.9164 230.368 89.863C230.01 89.7557 229.672 89.567 229.374 89.3073C228.497 88.6466 227.62 87.9846 226.743 87.3213C226.254 86.9693 225.782 86.5832 225.33 86.165C224.64 85.4698 224.014 84.6882 223.464 83.8336C221.935 81.581 220.582 79.137 218.879 77.0758C218.417 76.5127 217.935 75.9721 217.488 75.3827C216.878 74.5306 216.316 73.63 215.808 72.6871C215.317 71.8198 214.807 70.8587 214.892 69.8225C214.943 69.2369 215.179 68.6962 215.248 68.1143C215.317 67.5324 215.131 66.8228 214.659 66.6652C214.604 66.6484 214.547 66.6371 214.489 66.6314C214.396 66.6196 214.304 66.5957 214.216 66.56C213.778 66.3423 213.844 65.5351 214.159 65.1109C214.474 64.6867 214.939 64.4501 215.226 63.9846C215.359 63.7084 215.508 63.4437 215.673 63.1924C215.883 62.9769 216.135 62.8261 216.406 62.7532C218.221 62.115 220.141 62.0285 221.991 62.5016C222.306 62.5842 222.665 62.7344 222.759 63.0986C222.797 63.276 222.797 63.4618 222.759 63.6392C222.621 64.3794 222.54 65.1336 222.52 65.8918C222.52 66.0498 222.527 66.2078 222.542 66.3648C222.69 67.9566 223.555 69.3044 224.399 70.5471C225.4 72.0263 226.416 73.4942 227.436 74.9584C227.987 75.8069 228.603 76.5924 229.276 77.3049C229.906 77.9281 230.721 78.4311 231.212 79.2308C231.611 79.8765 231.482 80.7588 231.526 81.536C231.673 83.8825 231.683 86.2383 231.558 88.5865Z" fill="#3F3D56"/>
<path d="M271.523 104.249C271.834 103.889 272.114 103.493 272.36 103.067C272.625 102.539 272.836 101.976 272.99 101.389L274.815 95.2129C275.104 94.2368 275.394 93.2569 275.759 92.3071C276.136 91.2821 276.583 90.2948 276.996 89.3036C278.056 86.6953 278.876 83.9574 279.441 81.138C279.54 80.7506 279.573 80.3434 279.538 79.9404C279.45 79.2909 279.038 78.7841 278.644 78.3223C278.249 77.8126 277.798 77.3682 277.304 77.0008C277.056 76.8167 276.779 76.6934 276.491 76.6379C276.202 76.5825 275.908 76.5961 275.624 76.6779C274.818 76.9595 274.311 77.9431 274.126 78.9305C273.94 79.9179 274.009 80.9278 273.93 81.934C273.817 83.3756 273.402 84.7684 273.301 86.2138C273.248 87.0511 273.301 87.8958 273.216 88.7292C273.061 89.8237 272.741 90.8756 272.272 91.834C271.25 94.117 269.868 96.1437 268.203 97.8034C267.747 98.205 267.337 98.6758 266.982 99.2037C266.686 99.7317 266.486 100.328 266.394 100.953C266.185 101.906 266.275 102.917 266.649 103.795C267.162 104.839 268.147 105.297 269.087 105.53C270.359 105.845 270.651 105.327 271.523 104.249Z" fill="#BE6F72"/>
<path d="M247.123 56.8251C247.394 56.2178 247.809 55.7191 248.316 55.3912C248.823 55.0634 249.399 54.921 249.974 54.9818C250.552 55.104 251.091 55.4171 251.528 55.8855C251.965 56.354 252.283 56.9591 252.447 57.6323C252.595 58.1917 252.655 58.8112 252.913 59.2917C253.303 60.0163 254.027 60.2265 254.568 60.7521C254.891 61.1103 255.151 61.5419 255.333 62.0215C255.514 62.5011 255.614 63.0192 255.625 63.5453C255.656 64.62 255.514 65.6916 255.207 66.7027C255.077 67.1341 254.972 67.5756 254.892 68.0242C254.829 68.4597 254.823 68.9027 254.766 69.3382C254.697 69.9029 254.533 70.4452 254.285 70.9333C254.037 71.4214 253.709 71.8453 253.322 72.1802C253.212 72.2876 253.074 72.3471 252.932 72.3492C252.686 72.3154 252.535 71.9737 252.444 71.6659C251.944 69.9427 252.063 67.8365 251.141 66.4624C250.722 65.9081 250.215 65.4578 249.65 65.1371C249.419 64.9598 249.159 64.8433 248.888 64.7955C248.489 64.8211 248.105 64.9885 247.787 65.2761C247.123 65.8076 246.386 66.1964 245.609 66.4249C245.222 66.5344 244.819 66.5393 244.429 66.4393C244.04 66.3393 243.674 66.1368 243.359 65.8467C242.925 65.4187 242.607 64.7767 242.126 64.4426C241.644 64.1085 241.141 64.1272 240.665 63.8982C240.363 63.7446 240.093 63.5105 239.878 63.2138C239.662 62.917 239.506 62.5656 239.422 62.1861C239.338 61.8066 239.327 61.4092 239.391 61.024C239.455 60.6389 239.591 60.2762 239.791 59.9637C240.105 59.5132 240.571 59.2579 240.851 58.7586C241.213 58.1129 241.181 57.2268 241.355 56.4534C241.457 55.9641 241.656 55.511 241.934 55.1317C242.213 54.7524 242.563 54.4577 242.956 54.2722C243.338 54.1177 243.747 54.0882 244.141 54.1866C244.535 54.2849 244.899 54.5077 245.197 54.8316C245.512 55.1695 245.763 55.605 246.072 55.9579C246.376 56.3056 246.749 56.5565 247.156 56.6877C247.563 56.8189 247.99 56.8261 248.4 56.7087" fill="#3F3D56"/>
<path opacity="0.1" d="M252.296 112.085C252.112 112.279 251.983 112.535 251.923 112.819C251.864 113.103 251.877 113.402 251.962 113.676C252.031 113.853 255.279 113.106 255.622 113.049C256.478 112.903 257.979 112.974 258.555 112.04C259.581 110.384 256.402 110.752 255.82 110.812C254.712 110.924 253.139 111.105 252.296 112.085Z" fill="black"/>
<path d="M222.753 63.6542C222.614 64.3945 222.534 65.1486 222.514 65.9068C221.57 66.1358 220.588 65.7604 219.682 65.3849L217.079 64.3262C216.921 64.2055 216.73 64.1613 216.545 64.2024C216.361 64.2436 216.196 64.367 216.085 64.5477C215.666 65.0658 215.09 66.0495 214.511 66.6314C214.418 66.6196 214.326 66.5957 214.238 66.56C213.8 66.3423 213.866 65.5351 214.181 65.1109C214.496 64.6867 214.961 64.4501 215.248 63.9846C215.381 63.7084 215.53 63.4437 215.695 63.1924C215.905 62.9769 216.157 62.8261 216.428 62.7532C218.243 62.115 220.163 62.0285 222.014 62.5016C222.328 62.5842 222.687 62.7344 222.781 63.0986C222.812 63.2836 222.802 63.475 222.753 63.6542Z" fill="#3F3D56"/>
<path opacity="0.1" d="M222.753 63.6542C222.614 64.3945 222.534 65.1486 222.514 65.9068C221.57 66.1358 220.588 65.7604 219.682 65.3849L217.079 64.3262C216.921 64.2055 216.73 64.1613 216.545 64.2024C216.361 64.2436 216.196 64.367 216.085 64.5477C215.666 65.0658 215.09 66.0495 214.511 66.6314C214.418 66.6196 214.326 66.5957 214.238 66.56C213.8 66.3423 213.866 65.5351 214.181 65.1109C214.496 64.6867 214.961 64.4501 215.248 63.9846C215.381 63.7084 215.53 63.4437 215.695 63.1924C215.905 62.9769 216.157 62.8261 216.428 62.7532C218.243 62.115 220.163 62.0285 222.014 62.5016C222.328 62.5842 222.687 62.7344 222.781 63.0986C222.812 63.2836 222.802 63.475 222.753 63.6542Z" fill="black"/>
<path opacity="0.1" d="M246.559 134.93C247.012 135.11 247.503 135.373 247.657 135.913L244.013 134.809L242.125 134.235C241.791 134.134 240.596 134.017 240.375 133.706C240.061 133.248 241.178 133.563 241.379 133.597C241.99 133.706 242.6 133.818 243.207 133.95C244.353 134.194 245.454 134.595 246.559 134.93Z" fill="black"/>
<path opacity="0.1" d="M247.972 138.778C247.657 138.526 246.754 138.556 246.367 138.447C245.801 138.286 245.244 138.072 244.687 137.866C243.557 137.426 242.437 136.927 241.275 136.604C241.061 136.548 240.331 136.533 240.366 136.21C240.401 135.887 241.096 135.774 241.269 135.759C242.298 135.669 243.582 136.244 244.539 136.653C245.758 137.174 246.913 137.889 247.972 138.778Z" fill="black"/>
<path opacity="0.1" d="M245.662 131.498C244.507 131.123 243.46 130.267 242.27 130.101C241.96 130.116 241.655 130.004 241.405 129.786C241.265 129.622 241.168 129.414 241.125 129.185C241.921 129.137 242.846 129.538 243.57 129.918C243.968 130.121 244.351 130.365 244.715 130.646C244.979 130.837 245.376 131.389 245.662 131.498Z" fill="black"/>
<path d="M267.678 97.8821C267.483 99.4429 267.765 101.035 268.474 102.368C269.182 103.701 270.269 104.685 271.536 105.139C271.382 106.029 270.611 106.521 270.066 107.155C269.299 108.045 268.902 109.378 267.996 110.054C266.986 110.804 265.686 110.512 264.534 110.196C264.429 110.182 264.333 110.122 264.264 110.027C264.24 109.982 264.223 109.933 264.213 109.881C263.832 108.218 263.584 106.442 263.974 104.775C264.289 103.356 265.044 102.147 265.648 100.893C266.252 99.6391 266.309 98.2951 267.678 97.8821Z" fill="#3F3D56"/>
<path d="M239.541 76.355C238.323 76.4607 237.14 76.8905 236.08 77.6127C235.375 78.0932 234.651 78.739 233.845 78.6226C233.37 78.5588 232.901 78.2471 232.439 78.3973C232.178 78.5227 231.935 78.6949 231.718 78.9079C231.608 79.0125 231.477 79.0813 231.338 79.1076C231.199 79.1339 231.057 79.1168 230.925 79.0581L230.611 84.254C230.491 86.2288 230.375 88.2448 230.771 90.1708C230.976 91.1544 231.426 92.0479 231.476 93.0466C231.526 94.0452 231.451 95.0702 231.511 96.0801C231.567 97.0149 231.74 97.9347 231.784 98.8695C231.872 100.634 231.507 102.384 231.155 104.099C230.623 106.63 230.302 109.216 229.267 111.506C228.977 112.141 228.637 112.787 228.637 113.507C228.637 113.598 228.637 113.684 228.656 113.77C228.342 113.977 228.049 114.172 227.782 114.375C227.184 114.837 226.545 115.351 226.299 116.151C226.101 116.8 226.192 117.543 225.953 118.17C225.714 118.797 225.166 119.244 225.047 119.92C224.962 120.412 225.126 120.93 225.047 121.422C224.976 121.676 224.918 121.936 224.874 122.199C224.842 122.762 225.242 123.216 225.639 123.524C226.217 123.979 226.855 124.314 227.527 124.515L229.405 115.617C231.118 111.839 232.543 107.885 233.663 103.803C233.983 102.468 234.395 101.167 234.893 99.9132C235.25 99.2037 235.565 98.4661 235.837 97.7057C236.124 96.7596 236.152 95.7347 236.291 94.736C236.455 93.5704 236.702 92.4237 237.03 91.3083C237.37 90.1032 237.763 88.9018 237.833 87.6366C237.936 85.8271 237.386 83.9161 237.971 82.2417C238.219 81.615 238.543 81.0346 238.931 80.5185C239.743 79.3321 240.482 78.0895 241.294 76.9031C240.872 76.3662 240.171 76.3099 239.541 76.355Z" fill="#3F3D56"/>
<g opacity="0.1">
<path opacity="0.1" d="M248.41 55.5898L248.016 55.6239L247.972 55.6617C248.12 55.6545 248.266 55.6304 248.41 55.5898Z" fill="black"/>
<path opacity="0.1" d="M255.609 63.3837C255.544 64.1301 255.409 64.8655 255.207 65.5762C255.077 66.0077 254.971 66.4492 254.892 66.8978C254.829 67.3333 254.823 67.7763 254.766 68.2118C254.696 68.7765 254.533 69.3188 254.285 69.8069C254.036 70.2949 253.709 70.7189 253.322 71.0538C253.211 71.1611 253.074 71.2207 252.931 71.2227C252.686 71.1889 252.535 70.8473 252.444 70.5394C251.943 68.8162 252.063 66.71 251.141 65.336C250.721 64.7817 250.215 64.3314 249.649 64.0107C249.419 63.8333 249.159 63.7168 248.888 63.6691C248.489 63.6947 248.105 63.862 247.786 64.1496C247.122 64.6811 246.385 65.0699 245.609 65.2984C245.221 65.4079 244.818 65.4129 244.429 65.3128C244.04 65.2128 243.674 65.0104 243.359 64.7203C242.924 64.2923 242.607 63.6503 242.125 63.3162C241.644 62.982 241.14 63.0008 240.665 62.7718C240.368 62.6205 240.104 62.3915 239.891 62.1016C239.679 61.8117 239.524 61.4685 239.438 61.0974C239.427 61.0506 239.418 61.0029 239.413 60.9547C239.334 61.3738 239.343 61.8095 239.438 62.2237C239.524 62.5948 239.679 62.938 239.891 63.2279C240.104 63.5178 240.368 63.7468 240.665 63.8981C241.14 64.1271 241.675 64.1308 242.125 64.4425C242.575 64.7541 242.924 65.4186 243.359 65.8466C243.674 66.1367 244.04 66.3391 244.429 66.4391C244.818 66.5392 245.221 66.5342 245.609 66.4247C246.385 66.1962 247.122 65.8074 247.786 65.2759C248.105 64.9883 248.489 64.821 248.888 64.7953C249.159 64.8431 249.419 64.9596 249.649 65.137C250.208 65.4639 250.707 65.9179 251.119 66.4735C252.041 67.8476 251.921 69.9538 252.422 71.677C252.513 71.9886 252.664 72.3265 252.909 72.3603C253.06 72.3612 253.207 72.2972 253.322 72.1801C253.711 71.8443 254.039 71.4187 254.288 70.9286C254.537 70.4384 254.7 69.8938 254.769 69.3268C254.826 68.8913 254.832 68.4483 254.895 68.0128C254.975 67.5642 255.08 67.1227 255.21 66.6913C255.516 65.6802 255.658 64.6085 255.628 63.5339C255.622 63.4889 255.616 63.4363 255.609 63.3837Z" fill="black"/>
</g>
<path d="M235.699 93.5083L235.485 96.936C235.454 97.4015 234.708 108.484 229.207 121.437C224.487 132.546 215.301 147.015 197.959 155.146C196.606 155.785 195.201 156.38 193.745 156.933L192.122 150.851C196.198 149.321 200.125 147.272 203.834 144.739C212.674 138.65 219.546 129.959 224.339 118.775C226.882 112.82 228.694 106.46 229.72 99.8906H209.989V93.5083H235.699Z" fill="#F7D022"/>
<path opacity="0.1" d="M195.835 155.15C213.174 147.018 222.363 132.553 227.08 121.444C232.581 108.492 233.33 97.4166 233.358 96.9435L233.572 93.5159H235.775L235.561 96.9435C235.532 97.4091 234.783 108.492 229.283 121.444C224.562 132.553 215.377 147.018 198.038 155.15C196.685 155.788 195.279 156.385 193.821 156.941L193.607 156.141C194.366 155.818 195.109 155.488 195.835 155.15Z" fill="white"/>
<path d="M161.119 150.851L159.495 156.933C158.037 156.378 156.632 155.781 155.279 155.143C137.939 147.011 128.751 132.546 124.033 121.437C118.533 108.484 117.784 97.409 117.755 96.936L117.542 93.5083H143.239V99.8906H123.505C124.536 106.461 126.354 112.821 128.902 118.775C133.694 129.959 140.564 138.65 149.403 144.736C153.113 147.271 157.041 149.321 161.119 150.851Z" fill="#F7D022"/>
<path opacity="0.1" d="M157.399 155.15C140.06 147.018 130.871 132.553 126.154 121.444C120.654 108.492 119.905 97.4166 119.876 96.9435L119.662 93.5159H117.459L117.673 96.9435C117.702 97.4091 118.451 108.492 123.951 121.444C128.672 132.553 137.857 147.018 155.197 155.15C156.55 155.788 157.955 156.385 159.413 156.941L159.627 156.141C158.87 155.818 158.127 155.488 157.399 155.15Z" fill="white"/>
<path d="M206.305 209.644V244.06H146.933V209.644L148.821 206.64C168.061 198.494 171.96 177.248 172.737 168.842C172.853 167.681 172.919 166.513 172.936 165.343H180.277C180.294 166.513 180.36 167.681 180.475 168.842C181.265 177.248 185.164 198.501 204.391 206.64L206.305 209.644Z" fill="#F7D022"/>
<path opacity="0.1" d="M206.305 209.644H146.933V213.961H206.305V209.644Z" fill="black"/>
<path opacity="0.1" d="M151.968 206.64C171.208 198.494 175.107 177.248 175.884 168.842C176 167.681 176.066 166.513 176.082 165.343H172.936C172.919 166.513 172.853 167.681 172.737 168.842C171.947 177.248 168.049 198.501 148.821 206.64L146.933 209.644V244.06H150.08V209.644L151.968 206.64Z" fill="white"/>
<path opacity="0.1" d="M137.914 93.5083H143.238V99.8906H138.386C138.195 97.7882 138.038 95.6608 137.914 93.5083Z" fill="black"/>
<path opacity="0.1" d="M161.119 150.852L159.495 156.934C158.037 156.378 156.632 155.781 155.279 155.143C153.053 151.9 151.086 148.416 149.403 144.736C153.113 147.271 157.041 149.321 161.119 150.852Z" fill="black"/>
<path opacity="0.1" d="M192.119 150.852C196.195 149.321 200.122 147.272 203.831 144.74C202.148 148.42 200.181 151.905 197.956 155.15C196.603 155.788 195.198 156.384 193.742 156.937L192.119 150.852Z" fill="black"/>
<path opacity="0.1" d="M215.32 93.5083C215.197 95.6608 215.039 97.7882 214.848 99.8906H209.999V93.5083H215.32Z" fill="black"/>
<path opacity="0.1" d="M180.488 168.842C177.932 169.433 175.305 169.433 172.75 168.842C172.865 167.681 172.931 166.513 172.948 165.343H180.289C180.306 166.513 180.372 167.681 180.488 168.842Z" fill="black"/>
<path d="M138.543 82.9363C138.679 130.263 155.672 168.534 176.62 168.534C197.569 168.534 214.559 130.263 214.697 82.9363H138.543Z" fill="#F7D022"/>
<path opacity="0.1" d="M145.309 82.9363H138.543C138.679 130.263 155.672 168.534 176.62 168.534C177.754 168.532 178.885 168.418 180.003 168.193C160.637 164.333 145.438 127.688 145.309 82.9363Z" fill="white"/>
<path d="M196.81 222.818H156.427V235.207H196.81V222.818Z" fill="#3F3D56"/>
<path opacity="0.1" d="M158.315 224.507H196.81V222.818H156.427V235.207H158.315V224.507Z" fill="white"/>
<path d="M117.006 128.63C116.279 128.341 112 124.301 111.676 122.473C111.352 120.644 113.938 103.611 113.938 103.611C113.938 103.611 113.699 103.611 113.309 103.555V103.281L113.841 80.9052C113.841 80.9052 116.021 65.888 111.902 66.7627C107.783 67.6375 110.367 80.9052 110.367 80.9052C110.367 80.9052 109.898 87.6404 109.567 89.6602C109.253 91.6087 107.811 99.5453 108.793 102.012C108.829 102.099 108.869 102.185 108.913 102.267C108.913 102.267 109.076 110.733 107.298 111.889C105.602 112.989 104.897 118.527 104.838 119.023L104.746 118.978C104.24 118.599 103.795 118.115 103.434 117.547C103.396 117.491 103.368 117.431 103.333 117.371C104.491 115.817 105.115 113.799 105.081 111.72C105.046 109.642 104.356 107.655 103.148 106.157C102.586 105.46 101.927 104.886 101.2 104.46C101.179 103.742 101.036 103.037 100.781 102.387C99.963 100.3 95.4316 97.5705 92.2123 97.5067C90.727 97.4541 89.5092 97.9572 89.0655 99.3425C88.8389 100.045 88.9082 100.844 88.8137 101.573C88.6249 103.074 87.8162 104.249 86.7777 105.184C86.3584 104.626 85.9051 104.105 85.4214 103.626C84.3704 102.665 82.2746 99.4965 82.2746 99.4965C82.2746 99.4965 75.7323 91.4135 75.2477 89.1984C74.763 86.9834 68.227 73.6819 66.7732 75.9983C65.3193 78.3147 71.7798 88.41 71.7798 88.41C71.7798 88.41 73.0071 92.078 73.9512 93.3169C74.8952 94.5558 82.133 107.095 82.133 107.095L82.4791 107.951C80.9498 108.912 79.5526 110.136 79.0585 112.043C78.3347 114.852 79.9176 117.675 81.0127 120.303C83.1463 125.431 83.4515 131.971 80.698 136.657C78.2309 140.794 73.9512 142.761 69.9452 144.48C71.8799 146.293 74.2833 147.245 76.7424 147.172C75.8172 150.371 72.5382 151.43 69.7438 152.023C71.2103 153.705 73.3092 154.317 75.3232 154.688C76.3096 154.889 77.309 154.983 78.3096 154.97H78.555L78.8005 154.947C79.1415 154.92 79.481 154.869 79.8169 154.794C81.2707 154.441 82.6837 153.495 83.4263 151.963C84.0557 150.653 84.276 148.866 85.4183 148.208C85.7157 148.048 86.0363 147.958 86.3623 147.942H86.3277C86.5417 147.942 86.762 147.942 86.976 147.942L91.7372 147.998C91.9354 147.998 92.14 147.998 92.3445 147.998C93.6882 147.961 95.1232 147.683 95.8061 146.358C96.087 145.714 96.2348 145 96.2372 144.274C96.3379 142.476 96.2372 140.625 96.2781 138.811C96.684 142.112 97.1089 147.255 96.0987 149.155C95.2781 150.594 94.2834 151.881 93.147 152.973C92.8611 153.259 92.5997 153.579 92.3665 153.926C92.2123 154.058 92.1211 154.129 92.1211 154.129L92.0235 154.478C91.6649 155.127 91.4049 155.846 91.2557 156.603C91.2008 156.797 91.1804 157.003 91.1959 157.208C91.306 157.474 90.4092 158.574 90.6704 159.036C88.4298 162.171 88.005 166.92 88.005 166.92L83.9141 174.331C81.812 180.92 78.6651 181.595 78.6651 181.595C78.6651 181.595 71.2732 175.679 71.0718 175.39C70.8704 175.101 68.0445 173.655 68.0445 173.655C67.7113 172.958 67.2027 172.404 66.5907 172.071C65.6214 171.59 65.5396 169.818 65.5396 169.818C65.42 165.632 63.3589 165.313 63.3589 165.313C61.6973 165.144 60.4291 165.497 59.4536 166.143L59.1578 166.169C57.7291 166.308 56.011 166.462 54.1228 166.612C48.8707 167.025 47.6214 171.083 47.6214 171.083C47.6214 171.083 46.9763 171.951 47.8228 172.889C48.6693 173.828 54.0882 172.889 54.3179 172.867C53.905 172.92 53.4873 172.886 53.0844 172.765C53.9372 172.728 55.111 172.69 56.1116 172.69H56.354C56.291 173.323 56.2605 173.96 56.2627 174.597C56.2627 175.799 59.0477 176.568 59.0477 176.568L67.5284 185.579C67.5284 185.579 72.8592 188.421 76.2515 192.509C79.6438 196.598 82.6428 193.069 82.6428 193.069C86.2333 192.01 96.5644 177.109 96.5739 177.094C96.5739 177.53 96.791 192.021 97.2033 194.931C97.2196 195.078 97.2503 195.223 97.2945 195.362C97.7791 196.613 97.1309 200.029 96.8508 201.471C96.6722 202.677 96.6036 203.903 96.6463 205.127C96.6463 205.127 92.7725 222.773 93.0935 224.323C93.4144 225.874 90.9945 233.078 90.9945 233.078V239.085L91.4162 239.059C91.3613 239.156 91.3109 239.256 91.2651 239.359L91.2368 239.423C91.2368 239.423 93.8204 240.095 95.5575 239.904C97.2945 239.712 100.278 241.499 100.278 241.499C100.278 241.499 101.288 242.07 104.397 242.31C107.506 242.55 107.506 240.673 107.506 240.673C107.15 238.116 102.238 237.26 102.087 237.234C101.691 236.938 101.319 236.615 101.014 236.337L100.951 236.277C100.972 236.221 100.99 236.163 101.005 236.104C101.53 233.551 98.6225 232.444 98.6225 232.444V231.82C100.511 230.664 100.885 222.728 100.885 222.728C100.885 222.728 103.717 212.914 104.114 211.277C104.51 209.64 104.114 207.189 104.114 207.189L104.397 205.071C104.397 205.071 105.004 203.629 105.004 203.34C105.083 202.608 105.319 201.912 105.69 201.321C106.134 200.694 105.206 199.203 105.206 199.203L106.014 196.703V193.958L107.903 184.002C107.903 184.002 109.882 172.405 109.196 168.609C108.51 164.814 110.005 162.884 110.005 162.884C109.87 162.969 109.731 163.044 109.589 163.109C109.778 162.588 109.941 162.054 110.077 161.51L114.325 162.137V162.212H115.858C115.858 162.212 115.373 155.079 115.373 152.203C115.373 149.327 117.006 139.007 117.006 139.007C117.006 139.007 117.733 128.919 117.006 128.63ZM98.1473 120.303C98.1473 120.584 98.1253 120.877 98.1095 121.178L98.0246 121.331L97.8672 121.174L97.6753 121.53L97.6186 121.564C97.2033 121.309 96.9893 119.849 96.6903 120.164L96.6494 120.205C96.5833 120.115 96.5172 120.089 96.448 120.164L96.3851 120.228C96.3851 120.119 96.3851 120.006 96.3851 119.894C96.9608 120.07 97.5529 120.16 98.1473 120.16C98.1505 120.209 98.1473 120.258 98.1473 120.303ZM112.277 153.521H112.368L112.217 153.994C112.236 153.836 112.255 153.682 112.277 153.521ZM96.7658 238.657L96.1868 238.484L96.5015 238.421L96.7942 238.65L96.8288 238.68L96.7658 238.657ZM102.682 237.647C102.49 237.527 102.295 237.388 102.106 237.245C102.169 237.287 102.418 237.441 102.682 237.647Z" fill="url(#paint1_linear)"/>
<path d="M114.366 146.429L110.555 158.277H111.48L107.896 161.686L114.366 162.647V146.429Z" fill="#F86D70"/>
<path opacity="0.1" d="M114.366 146.429L110.555 158.277L109.595 157.97L107.896 161.686L114.366 162.647V146.429Z" fill="black"/>
<path d="M108.39 154.009H114.366L116.559 132.478H108.39V154.009Z" fill="#F86D70"/>
<path opacity="0.1" d="M108.39 154.009H114.366L116.559 132.478H108.39V154.009Z" fill="black"/>
<path d="M96.7183 137.576L98.0085 137.317L100.973 136.716C100.973 136.716 109.875 134.321 111.713 134.126C112.826 133.951 113.912 133.581 114.935 133.03C115.417 132.782 115.722 132.594 115.722 132.594L112.515 125.608L107.54 121.208C107.54 121.208 104.393 120.408 103.062 118.223C102.765 117.753 102.572 117.201 102.5 116.619C102.428 116.036 102.479 115.441 102.65 114.889C103.462 111.886 97.8008 117.761 97.8008 117.761C97.8008 117.761 97.8543 119.169 97.8008 120.963C97.8008 121.316 97.7725 121.684 97.7504 122.06C97.7504 122.308 97.7221 122.555 97.7001 122.811C97.5616 124.594 97.2784 126.43 96.7183 127.526C95.3494 130.207 96.7183 137.576 96.7183 137.576Z" fill="#FBBEBE"/>
<path opacity="0.1" d="M97.8013 121.114H97.9271C98.1537 121.114 98.3362 120.539 98.5565 120.513C100.328 120.31 101.946 119.867 103.069 118.369C102.773 117.899 102.58 117.348 102.508 116.767C102.436 116.185 102.487 115.591 102.657 115.039C103.469 112.036 97.8076 117.907 97.8076 117.907C97.8076 117.907 97.8674 119.319 97.8013 121.114Z" fill="black"/>
<path d="M90.9092 112.599C90.9088 113.68 91.0869 114.75 91.4334 115.749C91.7799 116.748 92.288 117.655 92.9286 118.419C93.5692 119.183 94.3298 119.79 95.1669 120.203C96.004 120.616 96.9011 120.829 97.8071 120.828C98.0337 120.828 98.2571 120.828 98.4805 120.791C99.8096 120.635 101.072 120.023 102.115 119.028C103.158 118.033 103.937 116.698 104.356 115.185C104.775 113.672 104.818 112.047 104.478 110.506C104.138 108.965 103.43 107.575 102.441 106.505C101.452 105.434 100.223 104.73 98.9048 104.476C97.5863 104.223 96.2345 104.431 95.0134 105.076C93.7923 105.722 92.7545 106.776 92.026 108.111C91.2974 109.447 90.9095 111.006 90.9092 112.599Z" fill="#FBBEBE"/>
<path d="M88.7916 100.108C88.565 100.807 88.6342 101.588 88.543 102.327C88.2063 104.997 85.9311 106.596 83.873 107.715C81.815 108.833 79.4926 110.159 78.8381 112.738C78.1206 115.527 79.6877 118.324 80.7765 120.941C82.8975 126.039 83.1996 132.542 80.4619 137.205C78.0293 141.334 73.7905 143.294 69.8003 145.014C71.7207 146.816 74.1075 147.764 76.5503 147.694C75.6346 150.874 72.3776 151.929 69.6021 152.515C71.059 154.189 73.1454 154.797 75.1437 155.165C76.6007 155.436 78.0954 155.612 79.5493 155.263C81.0031 154.914 82.3814 153.971 83.1304 152.447C83.7598 151.144 83.9737 149.369 85.1098 148.712C85.6225 148.471 86.175 148.374 86.7241 148.43L91.4444 148.49C92.914 148.49 94.6542 148.355 95.4126 146.857C95.6923 146.217 95.8391 145.506 95.8405 144.785C96.0451 141.09 95.4503 137.186 96.7248 133.815C97.1087 132.797 94.6447 131.187 94.9028 130.109C95.7902 126.404 96.0136 123.486 96.0042 119.631C96.0042 116.646 97.6311 114.074 98.9748 111.555C100.319 109.036 101.442 105.856 100.381 103.153C99.1856 100.138 90.2045 95.7572 88.7916 100.108Z" fill="#3F3D56"/>
<path d="M95.0757 237.576L96.2778 238.526L96.4634 238.672L96.4981 238.698L97.9236 239.825L101.253 240.493L104.18 240.253C104.18 240.253 105.023 238.15 103.698 238.199C103.274 238.173 102.86 238.031 102.49 237.782L102.307 237.673C102.115 237.553 101.923 237.418 101.734 237.276C101.341 236.979 100.97 236.656 100.671 236.382C100.23 235.977 99.9376 235.669 99.9376 235.669L95.0757 237.576Z" fill="#FBBEBE"/>
<path opacity="0.1" d="M96.2935 238.526L96.4791 238.672L96.5137 238.698L97.9393 239.825L101.269 240.493L104.195 240.253C104.195 240.253 105.039 238.15 103.714 238.199C103.289 238.173 102.876 238.031 102.505 237.782C102.738 238 102.933 238.237 102.952 238.436C103.006 238.972 100.787 239.937 100.787 239.937L97.6592 238.95C97.6592 238.95 97.1274 238.77 96.4004 238.544L96.3312 238.522L96.2935 238.526Z" fill="black"/>
<path d="M90.9438 239.442C90.9438 239.442 93.5085 240.11 95.233 239.919C96.9575 239.727 99.9281 241.499 99.9281 241.499C99.9281 241.499 100.932 242.062 104.019 242.303C107.106 242.543 107.106 240.673 107.106 240.673C106.754 238.132 101.876 237.294 101.725 237.257C101.785 237.294 102.04 237.448 102.298 237.655C102.644 237.925 103.018 238.278 103.047 238.563C103.1 239.096 100.882 240.065 100.882 240.065L97.7536 239.081C97.7536 239.081 97.2218 238.897 96.4949 238.672H96.4257C95.3478 238.322 94.2527 238.052 93.1466 237.865C91.7998 237.692 91.1106 239.059 90.969 239.367C90.9587 239.391 90.9503 239.416 90.9438 239.442Z" fill="#3F3D56"/>
<path d="M50.5195 171.928L51.8821 173.175C51.8821 173.175 52.2786 173.152 52.8702 173.13H53.059C53.9055 173.092 55.073 173.054 56.0643 173.054C56.7051 173.02 57.3471 173.063 57.9807 173.182C58.6604 173.467 59.8688 168.542 59.8688 168.542L58.5031 168.166L58.05 168.039L57.7353 167.949L56.6244 167.637L53.2573 168.095L50.8909 169.912L50.5195 171.928Z" fill="#FBBEBE"/>
<path opacity="0.1" d="M50.5195 171.928L51.8821 173.175C51.8821 173.175 52.2786 173.152 52.8702 173.13C52.5988 173.005 52.3749 172.766 52.2409 172.458C51.3597 169.54 55.7307 168.294 55.7307 168.294L57.7667 168.189L58.1632 168.166H58.4779L58.0248 168.039L57.7101 167.949L56.5993 167.637L53.2321 168.095L50.8657 169.912L50.5195 171.928Z" fill="black"/>
<path d="M47.8321 173.246C48.6566 174.154 54.0566 173.246 54.2831 173.223C53.8733 173.279 53.4585 173.244 53.059 173.122C52.8612 173.08 52.6738 172.985 52.5105 172.846C52.3472 172.706 52.212 172.525 52.1149 172.315C51.2338 169.394 55.6048 168.151 55.6048 168.151L57.6408 168.046L58.0342 168.024L62.9842 167.768L63.2234 166.143C63.2234 166.143 61.6153 166.323 59.0915 166.563C57.6723 166.702 55.9447 166.856 54.0786 167.003C48.8642 167.416 47.6244 171.451 47.6244 171.451C47.6244 171.451 46.9919 172.315 47.8321 173.246Z" fill="#3F3D56"/>
<path d="M108.393 102.778C108.427 102.867 108.467 102.952 108.513 103.033L109.715 105.135L112.843 105.511L112.878 104.032L113.403 81.7761C113.403 81.7761 115.568 66.849 111.477 67.7087C107.386 68.5685 109.954 81.7761 109.954 81.7761C109.954 81.7761 109.489 88.4738 109.161 90.4861C108.843 92.4308 107.418 100.337 108.393 102.778Z" fill="#FBBEBE"/>
<path d="M101.373 158.056L102.263 159.873L104.255 163.939C104.255 163.939 107.868 165.52 108.793 164.314C109.299 163.657 109.847 161.364 110.231 159.434C110.546 157.872 110.756 156.554 110.756 156.554L101.373 158.056Z" fill="#FBBEBE"/>
<path opacity="0.1" d="M101.373 158.056L102.263 159.873C102.319 159.816 102.37 159.752 102.414 159.682C103.421 158.15 107.855 159.355 110.231 159.453C110.546 157.891 110.756 156.573 110.756 156.573L101.373 158.056Z" fill="black"/>
<path opacity="0.1" d="M56.0645 173.047C56.7052 173.013 57.3473 173.055 57.9809 173.175C58.6606 173.46 59.869 168.534 59.869 168.534L58.0501 168.024L63.0001 167.768L63.2393 166.143C63.2393 166.143 61.6312 166.323 59.1075 166.563C58.586 166.922 58.1207 167.385 57.7323 167.934L57.6568 168.046C56.6026 169.589 56.2124 171.579 56.0645 173.047Z" fill="black"/>
<path opacity="0.1" d="M95.0757 237.576L96.4635 238.672C98.5341 238.225 100.425 237.523 100.649 236.42C100.65 236.402 100.65 236.384 100.649 236.367C100.208 235.962 99.9156 235.654 99.9156 235.654L95.0757 237.576Z" fill="black"/>
<path opacity="0.1" d="M90.9727 239.378C92.8012 239.269 94.623 239.036 96.4293 238.68C95.3505 238.327 94.2543 238.055 93.1471 237.865C91.8034 237.692 91.1143 239.059 90.9727 239.378Z" fill="black"/>
<path d="M56.2153 174.943C56.2153 176.14 58.9814 176.906 58.9814 176.906L67.4055 185.853C67.4055 185.853 72.6986 188.676 76.0657 192.742C79.4328 196.808 82.4034 193.316 82.4034 193.316C85.972 192.265 96.2496 177.432 96.2496 177.432C96.2496 177.432 96.4888 194.371 96.9702 195.614C97.4517 196.857 96.8097 200.254 96.5297 201.692C96.353 202.891 96.2854 204.11 96.3283 205.326C96.3283 205.326 92.4797 222.885 92.8006 224.417C93.1216 225.949 90.7143 233.127 90.7143 233.127V239.108C90.7143 239.108 100.139 238.676 100.658 236.142C101.178 233.607 98.295 232.504 98.295 232.504V231.881C100.183 230.732 100.539 222.84 100.539 222.84C100.539 222.84 103.349 213.079 103.749 211.453C104.148 209.828 103.749 207.384 103.749 207.384L104.029 205.281C104.029 205.281 104.63 203.843 104.63 203.558C104.708 202.829 104.943 202.138 105.313 201.55C105.753 200.926 104.831 199.443 104.831 199.443L105.634 196.954V194.229L107.522 184.325C107.522 184.325 109.488 172.792 108.806 169.011C108.123 165.23 109.608 163.319 109.608 163.319C106.389 165.332 104.765 160.853 104.233 158.927C104.098 158.431 104.032 158.101 104.032 158.101C104.032 158.101 99.6104 156.156 95.4944 156.622C94.6584 156.703 93.8346 156.911 93.043 157.241C88.4706 159.205 87.75 167.337 87.75 167.337L83.7 174.706C81.6136 181.261 78.4856 181.93 78.4856 181.93C78.4856 181.93 71.1472 176.047 70.9332 175.757C70.7192 175.468 67.9248 174.034 67.9248 174.034C67.5944 173.34 67.0889 172.789 66.4804 172.457C65.5174 171.977 65.4388 170.205 65.4388 170.205C65.3192 166.041 63.2737 165.7 63.2737 165.7C56.1744 164.994 56.2153 173.749 56.2153 174.943Z" fill="#3F3D56"/>
<path d="M97.0425 151.55H101.373V135.523H97.0425V151.55Z" fill="#F86D70"/>
<path opacity="0.1" d="M97.0425 151.55H101.373V135.523H97.0425V151.55Z" fill="black"/>
<path opacity="0.1" d="M108.39 102.744C108.389 102.755 108.389 102.766 108.39 102.778C108.424 102.867 108.464 102.952 108.51 103.033L109.712 105.135L112.84 105.511L112.874 104.032C111.899 103.942 109.677 103.622 108.39 102.744Z" fill="black"/>
<path d="M108.513 103.033C108.513 103.033 108.673 111.45 106.908 112.599C105.143 113.748 104.457 119.732 104.457 119.732C104.457 119.732 109.806 123.93 110.999 125.777C112.192 127.624 114.929 132.024 114.366 133.075C113.803 134.126 115.732 138.913 115.732 138.913C115.732 138.913 112.201 147.525 113.003 150.78C113.806 154.035 113.885 162.644 113.885 162.644H115.411C115.411 162.644 114.929 155.563 114.929 152.691C114.929 149.819 116.531 139.581 116.531 139.581C116.531 139.581 117.255 129.535 116.531 129.249C115.807 128.964 111.559 124.943 111.238 123.122C110.917 121.302 113.485 104.351 113.485 104.351C113.485 104.351 110.196 104.182 108.513 103.033Z" fill="#F86D70"/>
<path opacity="0.1" d="M96.9609 134.036C97.1073 135.207 97.4649 136.327 98.0088 137.317L100.973 136.717C100.973 136.717 109.876 134.321 111.713 134.126C112.827 133.951 113.912 133.581 114.936 133.03C114.23 130.048 112.854 127.354 110.955 125.24L109.825 123.989C108.161 122.146 106.231 120.674 104.129 119.646C104.262 119.777 113.601 129.291 111.556 131.156C109.511 133.022 104.004 128.48 104.004 128.48L97.7414 122.06L97.5148 121.827L97.1529 122.499C97.337 122.589 97.5167 122.692 97.691 122.807C99.8253 124.204 101.409 126.553 102.097 129.339C103.384 134.501 96.9609 134.036 96.9609 134.036Z" fill="black"/>
<path d="M95.0352 157.958C95.0352 157.958 100.97 161.882 102.411 159.682C102.726 159.197 103.39 158.987 104.218 158.931C104.082 158.435 104.016 158.105 104.016 158.105C104.016 158.105 99.5949 156.16 95.4789 156.626C95.2082 157.437 95.0352 157.958 95.0352 157.958Z" fill="#444053"/>
<path d="M97.7666 121.835L104.255 128.495C104.255 128.495 109.74 133.052 111.808 131.172C113.875 129.291 104.378 119.657 104.378 119.657C106.475 120.689 108.403 122.155 110.071 123.99L111.201 125.24C114.171 128.525 114.841 128.525 114.942 133.353C114.967 134.543 114.627 136.251 114.366 136.559C113.403 137.685 112.73 145.866 112.878 146.823C113.026 147.781 111.084 156.044 111.713 158.341C112.343 160.639 103.846 157.193 102.408 159.396C100.97 161.6 95.0352 157.673 95.0352 157.673C95.0352 157.673 98.3236 147.623 99.1261 146.955C99.9285 146.286 100.891 141.117 99.1261 138.725C97.3607 136.334 97.2033 134.036 97.2033 134.036C97.2033 134.036 103.623 134.509 102.336 129.347C101.974 127.851 101.346 126.465 100.494 125.285C99.6426 124.104 98.5878 123.157 97.4016 122.507L97.7666 121.835Z" fill="#E8E8F0"/>
<path opacity="0.1" d="M106.427 138.774C106.427 138.774 103.938 144.372 100.718 145.824C100.615 145.87 100.514 145.911 100.404 145.948C97.0429 147.168 106.679 140.508 106.427 138.774Z" fill="black"/>
<path d="M71.6159 89.251C71.6159 89.251 72.818 92.8889 73.781 94.1316C74.7439 95.3742 81.881 107.816 81.881 107.816L82.4852 109.318L83.0044 110.598L87.5768 110.024L87.8915 107.823L87.7152 107.568C87.2558 106.911 86.0034 105.147 85.1631 104.377C84.1215 103.423 82.0352 100.266 82.0352 100.266C82.0352 100.266 75.5401 92.2244 75.0586 90.0243C74.5771 87.8243 68.0789 74.6317 66.6376 76.9143C65.1963 79.1969 71.6159 89.251 71.6159 89.251Z" fill="#FBBEBE"/>
<g opacity="0.1">
<path opacity="0.1" d="M84.8832 148.43C84.3343 148.373 83.7819 148.468 83.2689 148.708C82.136 149.365 81.922 151.141 81.2926 152.443C80.5563 153.968 79.1528 154.91 77.7084 155.259C77.4213 155.326 77.1313 155.373 76.8398 155.402C77.7598 155.509 78.6877 155.461 79.5965 155.259C81.0409 154.91 82.4444 153.968 83.1807 152.443C83.8101 151.141 84.0241 149.365 85.157 148.708C85.4544 148.548 85.775 148.459 86.101 148.445L84.8832 148.43Z" fill="black"/>
<path opacity="0.1" d="M96.0609 119.631C96.0609 116.646 97.6878 114.074 99.0283 111.555C100.369 109.036 101.495 105.856 100.435 103.153C99.5287 100.844 94.0658 97.747 90.9126 98.359C93.9997 98.8358 97.8042 101.261 98.5469 103.153C99.6073 105.856 98.4808 109.036 97.1402 111.555C95.7997 114.074 94.1665 116.646 94.1728 119.631C94.1728 123.483 93.9556 126.389 93.0682 130.109C92.8133 131.179 95.271 132.797 94.8934 133.811C93.6158 137.19 94.2137 141.087 94.0091 144.781C94.0049 145.503 93.8571 146.213 93.578 146.853C92.9486 148.088 91.6584 148.408 90.4028 148.475H91.5011C92.9675 148.475 94.7077 148.34 95.4661 146.842C95.7452 146.202 95.893 145.491 95.8972 144.77C96.1018 141.075 95.5039 137.175 96.7815 133.8C97.1654 132.786 94.7014 131.172 94.9563 130.098C95.8437 126.404 96.0672 123.483 96.0609 119.631Z" fill="black"/>
</g>
<path opacity="0.1" d="M82.4854 109.31L83.0046 110.59L87.5769 110.016L87.8916 107.816L87.7154 107.561C87.2276 107.846 83.5742 109.945 82.4854 109.31Z" fill="black"/>
<path opacity="0.1" d="M99.3682 123.7C99.3682 123.7 98.2448 121.598 97.6029 122.169C96.9609 122.739 96.7123 120.445 96.3441 120.828C95.9759 121.211 94.9029 122.278 94.456 120.787C94.1067 119.601 90.3053 112.096 88.7634 109.077C88.3669 108.297 88.1182 107.816 88.1182 107.816C88.1182 107.816 83.7882 110.399 82.7466 109.539V111.356L83.6277 111.454L88.348 121.966C88.348 121.966 89.8333 124.785 89.7326 125.769C89.6319 126.753 91.6364 131.059 91.9574 131.344C92.2784 131.63 95.7336 136.416 95.7336 136.416C95.7336 136.416 97.499 146.752 95.9728 149.624C94.4466 152.496 91.8032 154.598 91.8032 154.598C91.8032 154.598 91.0071 157.373 91.1235 157.662C91.2399 157.951 90.1983 159.194 90.6798 159.577C91.1613 159.959 91.8032 162.636 91.8032 162.636C91.8032 162.636 94.0501 158.33 95.2647 157.662C96.4794 156.994 98.034 148.186 98.034 148.186C98.034 148.186 98.4777 142.998 98.5123 139.649C98.5469 136.3 98.4053 123.7 99.3682 123.7Z" fill="black"/>
<path d="M99.1261 123.7C99.1261 123.7 98.0058 121.598 97.3638 122.169C96.7219 122.739 96.4701 120.445 96.1051 120.828C95.7401 121.211 94.667 122.278 94.217 120.787C93.8645 119.601 90.0631 112.096 88.5243 109.077L87.8792 107.816C87.8792 107.816 83.5491 110.399 82.5044 109.539V111.356L83.3887 111.454L88.1089 121.966C88.1089 121.966 89.5974 124.785 89.4936 125.769C89.3897 126.753 91.3817 131.059 91.7184 131.344C92.0551 131.63 95.4946 136.416 95.4946 136.416C95.4946 136.416 97.26 146.752 95.7369 149.624C94.9323 151.067 93.9536 152.359 92.8324 153.461C91.8906 154.388 91.2277 155.656 90.9443 157.072C90.8896 157.266 90.8703 157.47 90.8876 157.673C91.004 157.958 89.9624 159.205 90.4439 159.588C90.9254 159.971 91.5736 162.659 91.5736 162.659C91.5736 162.659 93.8205 158.353 95.0352 157.684C96.2499 157.016 97.8075 148.209 97.8075 148.209C97.8075 148.209 98.2481 143.02 98.2859 139.671C98.3236 136.322 98.182 123.7 99.1261 123.7Z" fill="#F86D70"/>
<path opacity="0.1" d="M88.1368 167.243C88.1368 167.243 91.5071 167.994 92.8571 169.154C94.2071 170.314 87.7246 167.337 87.7246 167.337L88.1368 167.243Z" fill="black"/>
<path opacity="0.1" d="M96.2402 177.432C96.2402 177.432 99.7553 180.927 99.1259 184.085C98.4965 187.242 96.8728 195.186 96.8728 195.186L96.2402 177.432Z" fill="black"/>
<path opacity="0.1" d="M65.4987 170.712C65.4987 170.712 60.5455 171.358 60.8665 172.123C61.1875 172.889 65.4987 171.418 65.4987 171.418V170.712Z" fill="black"/>
<path opacity="0.1" d="M103.531 199.778C103.531 199.778 103.846 200.254 102.008 199.778C100.171 199.301 101.527 197.829 101.527 197.829L103.531 199.778Z" fill="black"/>
<path opacity="0.1" d="M102.902 206.381C102.902 206.381 100.385 206.858 99.0346 206.381C97.6846 205.905 102.902 206.381 102.902 206.381Z" fill="black"/>
<path opacity="0.1" d="M97.7222 232.218C97.7222 232.218 97.2817 231.644 95.0757 232.695C92.8698 233.746 91.9886 233.795 91.3467 233.446C90.7047 233.097 97.7222 232.218 97.7222 232.218Z" fill="black"/>
<path opacity="0.1" d="M100.171 169.897L97.043 175.089C97.043 175.089 98.7265 170.543 100.171 169.897Z" fill="black"/>
<path opacity="0.1" d="M94.0906 122.169C94.0906 122.169 93.9553 123.892 91.9382 124.564C89.921 125.236 89.5371 125.78 89.5371 125.78" fill="black"/>
<path opacity="0.1" d="M88.8481 109.678C88.8481 109.678 86.1859 111.931 83.4072 111.454L88.8481 109.678Z" fill="black"/>
<path opacity="0.1" d="M90.8745 157.91C90.8745 157.91 91.6518 158.492 93.5179 155.946L90.8745 157.91Z" fill="black"/>
<path opacity="0.1" d="M110.256 130.92C110.332 130.454 110.061 130.023 109.806 129.658L109.284 128.908C109.182 128.754 109.067 128.613 108.941 128.487C108.626 128.198 108.223 128.112 107.896 127.853" fill="black"/>
<path opacity="0.1" d="M279.217 0.0412815C279.217 0.0412815 252.724 -1.8659 255.839 20.2845C255.839 20.2845 255.21 24.2002 258.193 25.976C258.193 25.976 258.24 24.3354 260.912 24.8948C261.863 25.0829 262.829 25.1383 263.791 25.0599C265.091 24.9529 266.326 24.344 267.309 23.3255C267.309 23.3255 274.758 19.6537 277.653 5.13211C277.653 5.13211 279.796 1.96348 279.711 1.1488L275.24 3.42766C275.24 3.42766 276.769 7.27582 275.554 10.4745C275.554 10.4745 275.409 3.56657 274.55 3.71674C274.377 3.75053 272.228 5.04952 272.228 5.04952C272.228 5.04952 274.856 11.7509 272.873 16.624C272.873 16.624 273.625 8.36456 271.407 5.53382L268.26 7.72634C268.26 7.72634 271.331 14.6493 269.248 20.2995C269.248 20.2995 269.783 11.6346 267.596 8.25945L264.745 10.9137C264.745 10.9137 267.63 17.7391 265.871 22.4244C265.871 22.4244 265.642 12.3366 264.128 11.5745C264.128 11.5745 261.633 14.2025 261.252 15.2762C261.252 15.2762 263.228 20.2319 262.001 22.8449C262.001 22.8449 261.249 16.1247 260.632 16.0872C260.632 16.0872 258.146 20.5398 257.888 23.5958C257.888 23.5958 257.995 19.0568 260.031 15.6667C260.031 15.6667 257.627 16.1585 256.223 18.0169C256.223 18.0169 256.61 14.8708 260.644 14.5967C260.644 14.5967 262.699 11.2178 263.247 11.0113C263.247 11.0113 259.238 10.6134 256.805 11.8974C256.805 11.8974 258.945 8.92771 263.983 10.2793L266.8 7.53486C266.8 7.53486 261.519 6.67513 259.279 7.62497C259.279 7.62497 261.856 4.99696 267.558 6.91165L270.623 4.72665C270.623 4.72665 266.12 3.57032 263.439 3.97579C263.439 3.97579 266.271 2.15495 271.523 4.12972L273.726 2.95462C273.726 2.95462 270.428 2.18123 269.462 2.05734C268.496 1.93345 268.445 1.61809 268.445 1.61809C270.535 1.20243 272.68 1.48707 274.642 2.44028C274.642 2.44028 279.299 0.390431 279.217 0.0412815Z" fill="#F7D022"/>
<path opacity="0.1" d="M246.54 5.67653C246.54 5.67653 234.582 4.81305 235.983 14.822C235.983 14.822 235.703 16.594 237.043 17.3975C237.043 17.3975 237.065 16.6466 238.274 16.9056C238.703 16.9918 239.139 17.017 239.573 16.9807C240.161 16.9331 240.719 16.6575 241.162 16.1961C241.162 16.1961 244.53 14.5404 245.839 7.97792C245.839 7.97792 246.805 6.54378 246.767 6.17586L244.747 7.20453C244.747 7.20453 245.439 8.94653 244.895 10.3919C244.895 10.3919 244.829 7.26836 244.441 7.34345C244.363 7.34345 243.39 7.94413 243.39 7.94413C243.39 7.94413 244.58 10.9739 243.683 13.1776C243.683 13.1776 244.023 9.44585 243.019 8.16564L241.597 9.15677C241.597 9.15677 242.988 12.2841 242.044 14.837C242.044 14.837 242.286 10.9213 241.298 9.39705L240.011 10.6097C240.011 10.6097 241.313 13.6957 240.52 15.8094C240.52 15.8094 240.417 11.2517 239.731 10.91C239.731 10.91 238.604 12.0964 238.431 12.5844C238.431 12.5844 239.325 14.837 238.771 16.0009C238.771 16.0009 238.431 12.9636 238.141 12.9524C238.141 12.9524 237.021 14.9647 236.902 16.3312C236.958 15.0559 237.292 13.82 237.871 12.7459C237.223 12.8924 236.624 13.2617 236.149 13.8084C236.149 13.8084 236.326 12.3892 238.148 12.2616C238.148 12.2616 239.092 10.7373 239.325 10.6435C239.325 10.6435 237.512 10.4633 236.414 11.0452C236.414 11.0452 237.38 9.70115 239.658 10.2943L240.917 9.0554C240.917 9.0554 238.532 8.67998 237.518 9.0967C237.518 9.0967 238.683 7.91034 241.26 8.77383L242.645 7.78645C242.645 7.78645 240.612 7.26085 239.397 7.45232C239.397 7.45232 240.678 6.62637 243.051 7.5199L244.042 6.99054C244.042 6.99054 242.55 6.63764 242.113 6.58507C241.675 6.53251 241.653 6.3861 241.653 6.3861C242.598 6.19861 243.568 6.32861 244.454 6.76153C244.454 6.76153 246.578 5.83422 246.54 5.67653Z" fill="#F7D022"/>
<path d="M288.312 244.315C295.3 244.315 300.965 243.172 300.965 241.762C300.965 240.352 295.3 239.209 288.312 239.209C281.323 239.209 275.658 240.352 275.658 241.762C275.658 243.172 281.323 244.315 288.312 244.315Z" fill="#F7D022"/>
<path d="M293.545 237.587C294.123 237.026 294.543 236.267 294.75 235.413C294.908 234.554 294.599 233.536 293.907 233.202C293.133 232.849 292.305 233.491 291.679 234.137C291.053 234.783 290.332 235.522 289.514 235.383C289.935 234.926 290.251 234.347 290.43 233.702C290.608 233.057 290.644 232.367 290.533 231.7C290.498 231.424 290.4 231.165 290.25 230.95C289.819 230.401 289.042 230.634 288.526 231.066C286.889 232.44 286.433 235.094 286.424 237.478C286.26 236.619 286.398 235.721 286.395 234.85C286.392 233.979 286.188 232.973 285.561 232.511C285.175 232.263 284.741 232.142 284.303 232.158C283.569 232.125 282.748 232.215 282.248 232.857C281.618 233.653 281.785 234.989 282.326 235.86C282.868 236.731 283.695 237.291 284.457 237.895C285.066 238.328 285.586 238.92 285.977 239.626C286.024 239.724 286.062 239.829 286.09 239.937H290.703C291.735 239.311 292.691 238.52 293.545 237.587Z" fill="#F7D022"/>
</g>
<defs>
<linearGradient id="paint0_linear" x1="254.426" y1="189.566" x2="254.426" y2="38.5303" gradientUnits="userSpaceOnUse">
<stop stop-color="#808080" stop-opacity="0.25"/>
<stop offset="0.54" stop-color="#808080" stop-opacity="0.12"/>
<stop offset="1" stop-color="#808080" stop-opacity="0.1"/>
</linearGradient>
<linearGradient id="paint1_linear" x1="12540.6" y1="94077" x2="28083.4" y2="94077" gradientUnits="userSpaceOnUse">
<stop stop-color="#808080" stop-opacity="0.25"/>
<stop offset="0.54" stop-color="#808080" stop-opacity="0.12"/>
<stop offset="1" stop-color="#808080" stop-opacity="0.1"/>
</linearGradient>
<clipPath id="clip0">
<rect width="360" height="270" fill="white"/>
</clipPath>
</defs>
</svg>
