<svg width="115" height="36" viewBox="0 0 115 36" fill="none" xmlns="http://www.w3.org/2000/svg">
<path d="M4.18436 1.69294C3.94596 2.31315 2.95947 4.88746 1.98942 7.41079C1.01937 9.93412 0.172636 12.1431 0.10687 12.313L0 12.6359H1.46329H2.92659L3.45272 11.251L3.98707 9.87464L6.20667 9.84916L8.42627 9.83216L8.96062 11.2085L9.49497 12.5934L10.95 12.6189C11.7475 12.6274 12.4051 12.6104 12.4051 12.5764C12.4051 12.5339 11.3775 9.83216 10.1197 6.56118L7.8426 0.61394L6.22311 0.588452L4.61184 0.571461L4.18436 1.69294ZM6.88077 5.77105L7.45622 7.28335H6.22311C5.08043 7.28335 4.99 7.27485 5.03932 7.13042C5.45036 5.98345 6.19845 4.1568 6.24777 4.19928C6.28065 4.24176 6.56016 4.94693 6.88077 5.77105Z" fill="#292933"/>
<path d="M13.0625 5.89849C13.0625 10.9112 13.0789 11.251 13.2187 11.5739C13.3009 11.7608 13.4735 12.0157 13.6051 12.1431C14.1148 12.6359 14.1312 12.6359 18.0525 12.6359C21.3819 12.6359 21.6779 12.6189 21.982 12.4744C22.1629 12.3895 22.4095 12.2111 22.5328 12.0751C23.0178 11.5314 23.0096 11.6843 23.0096 5.8815V0.571461H21.6943H20.379V5.32925V10.087H18.0361H15.6931V5.32925V0.571461H14.3778H13.0625V5.89849Z" fill="#292933"/>
<path d="M24.2432 1.84587V3.12028H26.1339H28.0247V7.87807V12.6359H29.34H30.6553V7.87807V3.12028H32.4228H34.1903V1.84587V0.571461H29.2167H24.2432V1.84587Z" fill="#292933"/>
<path d="M36.4509 0.732885C36.2701 0.817846 36.0235 0.996264 35.9002 1.1322C35.4151 1.66745 35.4233 1.59099 35.4233 6.62065C35.4233 10.9282 35.4398 11.2595 35.5795 11.5739C35.6618 11.7608 35.8344 12.0157 35.9659 12.1431C36.4756 12.6359 36.492 12.6359 40.4133 12.6359C43.7427 12.6359 44.0387 12.6189 44.3429 12.4744C44.7457 12.279 45.0745 11.9307 45.2389 11.5144C45.4362 11.0386 45.4362 2.16872 45.2389 1.69294C45.0745 1.27663 44.7457 0.928295 44.3429 0.732885C44.0387 0.588452 43.7427 0.571461 40.3969 0.571461C37.0511 0.571461 36.7551 0.588452 36.4509 0.732885ZM42.7398 6.60366V10.087H40.3969H38.054V6.60366V3.12028H40.3969H42.7398V6.60366Z" fill="#292933"/>
<path d="M46.6035 6.60366V12.6359H47.9188H49.2342L49.2506 9.19496L49.2753 5.75406L51.6182 9.19496L53.9611 12.6359H55.26H56.5506V6.60366V0.571461H55.2353H53.92L53.9035 3.99537L53.8789 7.42778L51.5442 3.99537L49.2095 0.571461H47.9024H46.6035V6.60366Z" fill="#292933"/>
<path d="M58.8113 0.732885C58.6304 0.817846 58.3838 0.996264 58.2605 1.1322C57.7755 1.66745 57.7837 1.59099 57.7837 6.62065C57.7837 10.9282 57.8001 11.2595 57.9399 11.5739C58.0221 11.7608 58.1947 12.0157 58.3263 12.1431C58.836 12.6359 58.8524 12.6359 62.7737 12.6359C66.1031 12.6359 66.399 12.6189 66.7032 12.4744C67.106 12.279 67.4348 11.9307 67.5993 11.5144C67.7966 11.0386 67.7966 2.16872 67.5993 1.69294C67.4348 1.27663 67.106 0.928295 66.7032 0.732885C66.399 0.588452 66.1031 0.571461 62.7572 0.571461C59.4114 0.571461 59.1155 0.588452 58.8113 0.732885ZM65.1002 6.60366V10.087H62.7572H60.4143V6.60366V3.12028H62.7572H65.1002V6.60366Z" fill="#292933"/>
<path d="M68.8816 6.60366V12.6359H70.1969H71.5122L71.5287 9.85765L71.5533 7.08794L72.8275 9.84066L74.11 12.5934H75.1622H76.2145L77.5051 9.80668L78.7876 7.01997L78.8122 9.82367L78.8287 12.6359H80.144H81.4593V6.60366V0.571461L80.1276 0.588452L78.7958 0.61394L76.9872 4.49664C75.9925 6.63765 75.154 8.38783 75.1294 8.38783C75.0965 8.38783 74.2744 6.63765 73.2961 4.49664L71.5204 0.61394L70.2051 0.588452L68.8816 0.571461V6.60366Z" fill="#292933"/>
<path d="M83.72 0.732885C83.5391 0.817846 83.2925 0.996264 83.1692 1.1322C82.6842 1.66745 82.6924 1.59099 82.6924 6.62065C82.6924 10.9282 82.7088 11.2595 82.8486 11.5739C82.9308 11.7608 83.1034 12.0157 83.235 12.1431C83.7447 12.6359 83.7611 12.6359 87.6824 12.6359C91.0118 12.6359 91.3078 12.6189 91.6119 12.4744C92.0148 12.279 92.3436 11.9307 92.508 11.5144C92.7053 11.0386 92.7053 2.16872 92.508 1.69294C92.3436 1.27663 92.0148 0.928295 91.6119 0.732885C91.3078 0.588452 91.0118 0.571461 87.666 0.571461C84.3201 0.571461 84.0242 0.588452 83.72 0.732885ZM90.0089 6.60366V10.087H87.666H85.323V6.60366V3.12028H87.666H90.0089V6.60366Z" fill="#292933"/>
<path d="M93.8728 5.89849C93.8728 10.9112 93.8892 11.251 94.029 11.5739C94.1112 11.7608 94.2838 12.0157 94.4154 12.1431C94.925 12.6359 94.9415 12.6359 98.8627 12.6359C102.192 12.6359 102.488 12.6189 102.792 12.4744C102.973 12.3895 103.22 12.2111 103.343 12.0751C103.828 11.5314 103.82 11.6843 103.82 5.8815V0.571461H102.504H101.189V5.32925V10.087H98.8462H96.5034V5.32925V0.571461H95.1881H93.8728V5.89849Z" fill="#292933"/>
<path d="M106.081 0.732885C105.9 0.817846 105.653 0.996264 105.53 1.1322C105.094 1.61648 105.053 1.84587 105.053 3.88492C105.053 5.92398 105.094 6.15337 105.53 6.63765C106.031 7.18139 106.097 7.19839 109.394 7.19839H112.369V8.64272V10.087H108.711H105.053V11.3615V12.6359H109.352C113.356 12.6359 113.668 12.6189 113.972 12.4744C114.153 12.3895 114.4 12.2111 114.523 12.0751C114.975 11.5739 115 11.4209 115 8.64272C115 5.86451 114.975 5.71158 114.523 5.21031C114.022 4.66656 113.956 4.64957 110.668 4.64957H107.684V3.88492V3.12028H111.342H115V1.84587V0.571461H110.709C106.697 0.571461 106.385 0.588452 106.081 0.732885Z" fill="#292933"/>
<path d="M0.813721 21.2169V26.2296H1.92352H3.03332L3.04154 23.9526L3.04976 21.6842L4.12668 23.9526L5.20359 26.2296H6.07499H6.93817L8.00687 23.9441L9.07556 21.6502L9.10022 23.9441L9.11667 26.2296H10.2265H11.3363V21.2169V16.2042H10.2429H9.14955L7.63693 19.4072C6.80664 21.1744 6.09966 22.6527 6.07499 22.6867C6.04211 22.7207 5.33513 21.2849 4.50483 19.4837L2.99222 16.2042H1.90708H0.813721V21.2169Z" fill="#292933"/>
<path d="M15.7837 16.3911C15.7426 16.5016 14.904 18.6681 13.9258 21.2169C12.9393 23.7657 12.109 25.9322 12.0679 26.0427L11.9939 26.2381L13.2352 26.2126L14.4766 26.1871L14.904 25.0826L15.3315 23.9781H17.2058H19.0802L19.5077 25.0826L19.9351 26.1871L21.1847 26.2126L22.4342 26.2381L22.2781 25.8302C22.1958 25.6009 21.3162 23.3494 20.338 20.8091L18.5541 16.2042H17.2058C15.8823 16.2042 15.8494 16.2042 15.7837 16.3911ZM17.732 20.4947L18.2252 21.7691L17.2387 21.7946C16.6879 21.8031 16.2358 21.8031 16.2194 21.7861C16.2029 21.7691 16.4167 21.1744 16.6879 20.4607C16.9674 19.7556 17.2058 19.1863 17.2141 19.1948C17.2305 19.2118 17.4607 19.7896 17.732 20.4947Z" fill="#292933"/>
<path d="M22.9275 21.2169V26.2296H24.0373H25.1471V23.9781V21.7266H27.1201H29.093V23.9781V26.2296H30.1617H31.2387L31.214 23.8592C31.1893 21.5992 31.1811 21.4718 31.0167 21.2424C30.9263 21.1149 30.7372 20.928 30.5974 20.8346L30.359 20.6561L30.655 20.4437C31.1482 20.0784 31.2304 19.7895 31.2304 18.4472C31.2304 17.3597 31.214 17.2577 31.0249 16.9179C30.8934 16.68 30.7043 16.5016 30.4659 16.3826C30.1206 16.2127 29.9973 16.2042 26.52 16.2042H22.9275V21.2169ZM29.093 18.9654V19.6026H27.1201H25.1471V18.9654V18.3282H27.1201H29.093V18.9654Z" fill="#292933"/>
<path d="M32.2993 21.2169V26.2296H33.4091H34.5189V21.2169V16.2042H33.4091H32.2993V21.2169Z" fill="#292933"/>
<path d="M35.5056 21.2169V26.2296H36.6154H37.7252V23.3664V20.5032L39.6818 23.3494L41.6383 26.1871L42.7234 26.2126L43.8086 26.2381V21.2169V16.2042H42.7399H41.6712L41.6547 19.0674L41.6301 21.9391L39.6571 19.0759L37.6841 16.2042H36.599H35.5056V21.2169Z" fill="#292933"/>
<path d="M45.7401 16.3231C45.436 16.4676 45.0825 16.8499 44.9674 17.1643C44.9098 17.3257 44.877 18.7275 44.877 21.2169C44.877 23.7062 44.9098 25.1081 44.9674 25.2695C45.0825 25.5924 45.436 25.9747 45.7566 26.1106C45.9703 26.2041 46.6937 26.2296 49.275 26.2296H52.5222V25.1676V24.1055H49.8094H47.0966V22.9161V21.7266H49.8094H52.5222V20.6646V19.6026H49.8094H47.0966V18.9654V18.3282H49.8094H52.5222V17.2662V16.2042H49.2586C46.7102 16.2127 45.9292 16.2382 45.7401 16.3231Z" fill="#292933"/>
<path d="M57.0027 16.5185C57.0685 16.697 57.9317 18.9399 58.9264 21.5142L60.7185 26.1871L62.0831 26.2126L63.4396 26.2296L65.2235 21.6247C66.2017 19.0844 67.0814 16.8329 67.1636 16.6035L67.3198 16.1957L66.0702 16.2212L64.8206 16.2467L63.5218 19.6026C62.8066 21.4463 62.1982 23.035 62.1571 23.12C62.0996 23.2474 61.7707 22.4658 60.7267 19.764L59.3621 16.2467L58.1207 16.2212L56.8794 16.1957L57.0027 16.5185Z" fill="#292933"/>
<path d="M68.7582 16.3231C68.454 16.4676 68.1005 16.8499 67.9854 17.1643C67.9279 17.3257 67.895 18.7275 67.895 21.2169C67.895 23.7062 67.9279 25.1081 67.9854 25.2695C68.1005 25.5924 68.454 25.9747 68.7746 26.1106C68.9884 26.2041 69.7118 26.2296 72.2931 26.2296H75.5403V25.1676V24.1055H72.8275H70.1146V22.9161V21.7266H72.8275H75.5403V20.6646V19.6026H72.8275H70.1146V18.9654V18.3282H72.8275H75.5403V17.2662V16.2042H72.2767C69.7282 16.2127 68.9473 16.2382 68.7582 16.3231Z" fill="#292933"/>
<path d="M76.5266 21.2169V26.2296H77.6364H78.7463V23.9781V21.7266H80.7193H82.6923V23.9781V26.2296H83.7611H84.8298V21.2169V16.2042H83.7611H82.6923V17.9034V19.6026H80.7193H78.7463V17.9034V16.2042H77.6364H76.5266V21.2169Z" fill="#292933"/>
<path d="M85.8984 21.2169V26.2296H87.0084H88.1183V21.2169V16.2042H87.0084H85.8984V21.2169Z" fill="#292933"/>
<path d="M89.9677 16.3231C89.6635 16.4676 89.31 16.8499 89.1949 17.1643C89.1374 17.3257 89.1045 18.7275 89.1045 21.2169C89.1045 23.7062 89.1374 25.1081 89.1949 25.2695C89.31 25.5924 89.6635 25.9747 89.9841 26.1106C90.1979 26.2041 90.9213 26.2296 93.5026 26.2296H96.7498V25.1676V24.1055H94.0369H91.3241V21.2169V18.3282H94.0369H96.7498V17.2662V16.2042H93.4862C90.9377 16.2127 90.1567 16.2382 89.9677 16.3231Z" fill="#292933"/>
<path d="M97.7363 20.6137C97.7363 23.5278 97.7692 25.1081 97.8268 25.2695C97.9419 25.5924 98.2954 25.9747 98.616 26.1106C98.8297 26.2041 99.5532 26.2296 102.135 26.2296H105.382V25.1676V24.1055H102.669H99.956V20.1549V16.2042H98.8462H97.7363V20.6137Z" fill="#292933"/>
<path d="M107.231 16.3231C106.927 16.4676 106.573 16.8499 106.458 17.1643C106.401 17.3257 106.368 18.7275 106.368 21.2169C106.368 23.7062 106.401 25.1081 106.458 25.2695C106.573 25.5924 106.927 25.9747 107.248 26.1106C107.461 26.2041 108.185 26.2296 110.766 26.2296H114.013V25.1676V24.1055H111.3H108.588V22.9161V21.7266H111.3H114.013V20.6646V19.6026H111.3H108.588V18.9654V18.3282H111.3H114.013V17.2662V16.2042H110.75C108.201 16.2127 107.42 16.2382 107.231 16.3231Z" fill="#292933"/>
<path d="M7.94135 29.9423C7.90846 29.9678 7.8838 31.2167 7.8838 32.7035C7.8838 35.2948 7.87558 35.4138 7.71939 35.5752C7.62896 35.6687 7.49743 35.7451 7.43166 35.7451C7.36589 35.7451 7.30835 35.7791 7.30835 35.8301C7.30835 35.8811 7.69472 35.915 8.29484 35.915C9.25667 35.915 9.57728 35.8216 8.9936 35.7111C8.79631 35.6687 8.67299 35.5922 8.63189 35.4648C8.59079 35.3628 8.53324 34.4197 8.50858 33.3662L8.45103 31.4546L9.65948 32.7715C11.9613 35.2693 12.6929 36 12.882 36H13.0629V33.3322C13.0629 31.8624 13.0958 30.5625 13.1369 30.4521C13.178 30.3331 13.3095 30.2227 13.4246 30.1887C13.9096 30.0613 13.5972 29.9678 12.6929 29.9678C12.101 29.9678 11.7476 30.0018 11.7476 30.0528C11.7476 30.1038 11.8544 30.1632 11.9942 30.1887C12.4299 30.2822 12.4463 30.3416 12.4874 32.5081C12.5121 33.6126 12.5285 34.5217 12.5203 34.5302C12.5203 34.5472 11.912 33.893 11.1721 33.0859C8.33594 29.9933 8.10576 29.7639 7.94135 29.9423Z" fill="#292933"/>
<path d="M25.7886 29.9423C24.3418 29.9678 23.939 30.0443 24.4651 30.1802C24.909 30.2907 24.9008 30.2312 24.9008 32.9159C24.9008 34.4792 24.8679 35.4817 24.8186 35.5837C24.7692 35.6687 24.6542 35.7451 24.5719 35.7451C24.4815 35.7451 24.4075 35.7791 24.4075 35.8131C24.4075 35.8811 26.1174 36 27.1286 36C27.6958 36 27.778 35.9065 27.778 35.2439C27.778 34.9125 27.7451 34.8106 27.6547 34.8106C27.5807 34.8106 27.5067 34.9125 27.4739 35.0654C27.4081 35.4393 27.1697 35.5752 26.586 35.5752C25.7804 35.5752 25.764 35.5497 25.764 34.1564V32.9839L26.3147 32.9924C26.8984 33.0009 27.1204 33.1029 27.1204 33.3747C27.1204 33.4767 27.1779 33.5362 27.2848 33.5362C27.4245 33.5362 27.4492 33.4767 27.4492 33.2048C27.4492 33.0264 27.4739 32.7545 27.4985 32.6101C27.5643 32.3042 27.4163 32.2532 27.0875 32.4741C26.9477 32.5761 26.734 32.6016 26.3312 32.5846L25.764 32.5591V31.4546V30.3501L26.3394 30.3841C27.0217 30.4181 27.2026 30.4946 27.2026 30.7749C27.2026 30.9279 27.2437 30.9873 27.367 30.9873C27.4739 30.9873 27.5314 30.9279 27.5314 30.8259C27.5314 30.741 27.5561 30.4946 27.5807 30.2737C27.6301 29.9253 27.6218 29.8829 27.4821 29.8998C27.3917 29.9168 26.6353 29.9338 25.7886 29.9423Z" fill="#292933"/>
<path d="M36.0727 29.9673C35.2588 30.2137 34.8807 31.1313 35.2177 31.9894C35.3821 32.3802 35.5383 32.5586 36.3768 33.2808C36.7632 33.6206 37.1003 33.9945 37.1907 34.1814C37.5689 34.997 36.8783 35.8211 36.0069 35.5747C35.6288 35.4728 35.3821 35.1924 35.3081 34.7676C35.1848 34.1219 34.93 34.6232 34.93 35.4983C34.93 35.6767 34.8889 35.7447 34.7902 35.7447C34.5107 35.7362 33.9846 35.4218 33.6476 35.0565C33.2201 34.5892 32.2171 33.2808 32.2171 33.2043C32.2171 33.1703 32.3158 33.0514 32.4309 32.9325C32.5542 32.822 32.7351 32.5331 32.8419 32.3037C33.2283 31.4626 33.031 30.613 32.3487 30.2137C32.0363 30.0268 31.9048 30.0098 30.5566 29.9843C29.7016 29.9673 29.0933 29.9843 29.0933 30.0268C29.0933 30.0693 29.2084 30.1627 29.3563 30.2307C29.5454 30.3157 29.6441 30.4261 29.6934 30.647C29.7838 31.0038 29.7263 35.2944 29.6358 35.5153C29.5947 35.5917 29.4796 35.6852 29.3728 35.7107C28.9124 35.8296 29.2495 35.9146 30.2031 35.9146C31.1978 35.9146 31.5348 35.8211 30.9512 35.7107C30.795 35.6767 30.647 35.5917 30.6141 35.5068C30.5812 35.4303 30.5401 34.929 30.5155 34.4023L30.4661 33.4507H30.9265H31.3869L31.8554 34.1049C32.5624 35.1075 33.031 35.6512 33.3023 35.7956C33.4749 35.8891 33.7791 35.9231 34.3792 35.9231C34.8396 35.9146 35.5548 35.9401 35.974 35.9656C36.6564 36.0165 36.7632 35.9995 37.166 35.8041C37.799 35.5068 38.0128 35.1414 38.0128 34.3258C38.0128 33.7906 37.9881 33.6801 37.7662 33.3488C37.6264 33.1533 37.1907 32.7116 36.7961 32.3887C35.9576 31.692 35.8178 31.5051 35.8178 31.1058C35.8178 30.7574 36.0069 30.5026 36.3768 30.3411C36.8208 30.1457 37.4373 30.4091 37.5442 30.8424C37.5853 30.9868 37.6757 31.1228 37.7497 31.1398C37.873 31.1653 37.8895 31.0888 37.8895 30.579V29.9928L37.5853 29.9333C37.166 29.8654 36.3357 29.8823 36.0727 29.9673ZM31.6335 30.5365C31.9376 30.7659 32.2171 31.3777 32.2171 31.811C32.2171 32.7965 31.5266 33.3488 30.7045 33.0259L30.4908 32.9409V31.726C30.4908 30.8679 30.5237 30.4771 30.5977 30.4006C30.7374 30.2477 31.3622 30.3326 31.6335 30.5365Z" fill="#292933"/>
<path d="M42.6904 30.0103C42.5753 30.3926 42.4931 30.8344 42.5342 30.9024C42.6246 31.0553 42.7972 30.9873 42.8877 30.7749C43.0192 30.4861 43.2905 30.3926 44.0221 30.3926H44.6304V32.831C44.6304 34.1819 44.6058 35.3628 44.5811 35.4733C44.5482 35.5752 44.4413 35.6857 44.3345 35.7112C43.8741 35.8301 44.2112 35.9151 45.1647 35.9151C46.1594 35.9151 46.4965 35.8216 45.9128 35.7112C45.7566 35.6772 45.6004 35.5922 45.5676 35.5073C45.5347 35.4308 45.4936 34.2413 45.4689 32.8735L45.436 30.3926H46.0197C46.7267 30.3926 47.1541 30.554 47.1952 30.8344C47.2117 30.9364 47.2774 31.0298 47.3432 31.0298C47.4336 31.0298 47.4747 30.9024 47.4912 30.4776L47.5158 29.9253H45.1154C43.5946 29.9253 42.7068 29.9593 42.6904 30.0103Z" fill="#292933"/>
<path d="M49.9081 30.1122C49.867 30.2397 49.4313 31.4546 48.9462 32.814C48.042 35.3628 47.8447 35.7452 47.4254 35.7452C47.335 35.7452 47.261 35.7791 47.261 35.8301C47.261 35.8811 47.6309 35.9151 48.2064 35.9151C49.0942 35.9151 49.4066 35.8301 48.9462 35.7112C48.675 35.6432 48.6832 35.5328 49.012 34.5132L49.2915 33.6636H50.056H50.8288L51.1823 34.5982C51.3878 35.1419 51.5193 35.6092 51.4947 35.7197C51.4536 35.9151 51.4618 35.9151 52.3167 35.9151C53.1553 35.9151 53.4348 35.8131 52.9333 35.7027C52.7935 35.6687 52.5962 35.5328 52.4894 35.3798C52.3825 35.2269 51.9221 34.1139 51.4618 32.899C51.0014 31.684 50.5575 30.5201 50.4753 30.3077C50.2944 29.8319 50.0396 29.7469 49.9081 30.1122ZM50.3766 32.3722C50.5164 32.7885 50.6315 33.1623 50.6315 33.2048C50.6315 33.2473 50.3766 33.2813 50.056 33.2813C49.6614 33.2813 49.4806 33.2473 49.4806 33.1793C49.4806 32.9414 50.0149 31.4206 50.0643 31.5226C50.0971 31.5736 50.2369 31.9644 50.3766 32.3722Z" fill="#292933"/>
<path d="M54.8979 29.9672C54.0841 30.2136 53.706 31.1312 54.043 31.9893C54.2074 32.3801 54.3636 32.5585 55.2021 33.2807C55.5885 33.6206 55.9255 33.9944 56.0159 34.1813C56.3941 34.9969 55.7036 35.821 54.8322 35.5747C54.454 35.4727 54.2074 35.1923 54.1334 34.7675C54.043 34.2663 53.8539 34.4022 53.7964 35.0224C53.7635 35.3198 53.7553 35.6256 53.78 35.6936C53.9115 36.0419 55.3665 36.1099 56.0242 35.7956C56.6242 35.5067 56.838 35.1244 56.838 34.3257C56.838 33.7905 56.8133 33.68 56.5914 33.3487C56.4516 33.1533 56.0159 32.7115 55.6213 32.3886C54.7829 31.6919 54.6431 31.505 54.6431 31.1057C54.6431 30.7574 54.8322 30.5025 55.2021 30.3411C55.646 30.1457 56.2625 30.409 56.3694 30.8423C56.4105 30.9868 56.5009 31.1227 56.5749 31.1397C56.6982 31.1652 56.7147 31.0887 56.7147 30.579V29.9927L56.4105 29.9333C55.9913 29.8653 55.161 29.8823 54.8979 29.9672Z" fill="#292933"/>
<path d="M64.8288 29.9423C64.7959 29.9678 64.7713 31.2167 64.7713 32.7035C64.7713 35.2948 64.763 35.4138 64.6068 35.5752C64.5164 35.6687 64.3849 35.7451 64.3191 35.7451C64.2533 35.7451 64.1958 35.7791 64.1958 35.8301C64.1958 35.8811 64.5822 35.915 65.1823 35.915C66.1441 35.915 66.4647 35.8216 65.8811 35.7111C65.6838 35.6687 65.5604 35.5922 65.5193 35.4648C65.4782 35.3628 65.4207 34.4197 65.396 33.3662L65.3385 31.4546L66.5469 32.7715C68.8487 35.2693 69.5804 36 69.7695 36H69.9503V33.3322C69.9503 31.8624 69.9832 30.5625 70.0243 30.4521C70.0654 30.3331 70.197 30.2227 70.312 30.1887C70.7971 30.0613 70.4847 29.9678 69.5804 29.9678C68.9885 29.9678 68.635 30.0018 68.635 30.0528C68.635 30.1038 68.7419 30.1632 68.8816 30.1887C69.3173 30.2822 69.3338 30.3416 69.3749 32.5081C69.3995 33.6126 69.416 34.5217 69.4078 34.5302C69.4078 34.5472 68.7994 33.893 68.0596 33.0859C65.2234 29.9933 64.9932 29.7639 64.8288 29.9423Z" fill="#292933"/>
<path d="M84.2297 29.9676C82.865 30.3245 81.936 31.7094 82.0593 33.1877C82.1662 34.3857 82.643 35.1844 83.5473 35.6602C84.0981 35.9491 84.1392 35.9576 85.0682 35.9576C85.9232 35.9576 86.0712 35.9321 86.4822 35.7367C87.1317 35.4223 87.5757 34.972 87.8881 34.3178C88.1429 33.7825 88.1593 33.706 88.1593 32.8139C88.1593 31.9728 88.1347 31.8368 87.9374 31.4545C87.6496 30.8852 87.1975 30.4519 86.6138 30.18C86.2274 29.9931 85.9808 29.9421 85.3395 29.9166C84.9038 29.8997 84.4023 29.9251 84.2297 29.9676ZM85.8986 30.4859C86.4083 30.7238 86.7453 31.0806 87.0248 31.7009C87.2304 32.1597 87.255 32.3126 87.255 33.0688C87.2468 33.9949 87.1235 34.4282 86.696 34.9465C85.9479 35.8641 84.427 35.7706 83.6295 34.7681C82.643 33.5191 82.791 31.344 83.909 30.6303C84.575 30.2055 85.1833 30.163 85.8986 30.4859Z" fill="#292933"/>
<path d="M89.5734 29.9423C89.5405 29.9678 89.5159 31.2167 89.5159 32.7035C89.5159 35.2948 89.5077 35.4138 89.3515 35.5752C89.261 35.6687 89.1295 35.7451 89.0637 35.7451C88.998 35.7451 88.9404 35.7791 88.9404 35.8301C88.9404 35.8811 89.3268 35.915 89.9269 35.915C90.8888 35.915 91.2094 35.8216 90.6257 35.7111C90.4284 35.6687 90.3051 35.5922 90.264 35.4648C90.2229 35.3628 90.1653 34.4197 90.1407 33.3662L90.0831 31.4546L91.2916 32.7715C93.5934 35.2693 94.3251 36 94.5141 36H94.695V33.3322C94.695 31.8624 94.7279 30.5625 94.769 30.4521C94.8101 30.3331 94.9416 30.2227 95.0567 30.1887C95.5417 30.0613 95.2293 29.9678 94.3251 29.9678C93.7332 29.9678 93.3797 30.0018 93.3797 30.0528C93.3797 30.1038 93.4865 30.1632 93.6263 30.1887C94.062 30.2822 94.0784 30.3416 94.1195 32.5081C94.1442 33.6126 94.1606 34.5217 94.1524 34.5302C94.1524 34.5472 93.5441 33.893 92.8042 33.0859C89.968 29.9933 89.7378 29.7639 89.5734 29.9423Z" fill="#292933"/>
<path d="M98.0486 29.9423C96.6018 29.9678 96.199 30.0443 96.7251 30.1802C97.169 30.2907 97.1608 30.2312 97.1608 32.9159C97.1608 34.4792 97.1279 35.4817 97.0786 35.5837C97.0293 35.6687 96.9142 35.7451 96.832 35.7451C96.7415 35.7451 96.6675 35.7791 96.6675 35.8131C96.6675 35.8811 98.3774 36 99.3886 36C99.9558 36 100.038 35.9065 100.038 35.2439C100.038 34.9125 100.005 34.8106 99.9147 34.8106C99.8407 34.8106 99.7667 34.9125 99.7339 35.0654C99.6681 35.4393 99.4297 35.5752 98.846 35.5752C98.0404 35.5752 98.024 35.5497 98.024 34.1564V32.9839L98.5747 32.9924C99.1584 33.0009 99.3804 33.1029 99.3804 33.3747C99.3804 33.4767 99.4379 33.5362 99.5448 33.5362C99.6845 33.5362 99.7092 33.4767 99.7092 33.2048C99.7092 33.0264 99.7339 32.7545 99.7585 32.6101C99.8243 32.3042 99.6763 32.2532 99.3475 32.4741C99.2077 32.5761 98.994 32.6016 98.5912 32.5846L98.024 32.5591V31.4546V30.3501L98.5994 30.3841C99.2817 30.4181 99.4626 30.4946 99.4626 30.7749C99.4626 30.9279 99.5037 30.9873 99.627 30.9873C99.7339 30.9873 99.7914 30.9279 99.7914 30.8259C99.7914 30.741 99.8161 30.4946 99.8407 30.2737C99.89 29.9253 99.8818 29.8829 99.7421 29.8998C99.6516 29.9168 98.8953 29.9338 98.0486 29.9423Z" fill="#292933"/>
<path d="M102.578 29.9672C101.764 30.2136 101.386 31.1312 101.723 31.9893C101.888 32.3801 102.044 32.5585 102.882 33.2807C103.269 33.6206 103.606 33.9944 103.696 34.1813C104.074 34.9969 103.384 35.821 102.512 35.5747C102.134 35.4727 101.888 35.1923 101.814 34.7675C101.723 34.2663 101.534 34.4022 101.477 35.0224C101.444 35.3198 101.435 35.6256 101.46 35.6936C101.592 36.0419 103.047 36.1099 103.704 35.7956C104.305 35.5067 104.518 35.1244 104.518 34.3257C104.518 33.7905 104.494 33.68 104.272 33.3487C104.132 33.1533 103.696 32.7115 103.302 32.3886C102.463 31.6919 102.323 31.505 102.323 31.1057C102.323 30.7574 102.512 30.5025 102.882 30.3411C103.326 30.1457 103.943 30.409 104.05 30.8423C104.091 30.9868 104.181 31.1227 104.255 31.1397C104.378 31.1652 104.395 31.0887 104.395 30.579V29.9927L104.091 29.9333C103.672 29.8653 102.841 29.8823 102.578 29.9672Z" fill="#292933"/>
<path d="M111.235 30.1122C111.194 30.2397 110.758 31.4546 110.273 32.814C109.369 35.3628 109.171 35.7452 108.752 35.7452C108.662 35.7452 108.588 35.7791 108.588 35.8301C108.588 35.8811 108.958 35.9151 109.533 35.9151C110.421 35.9151 110.733 35.8301 110.273 35.7112C110.002 35.6432 110.01 35.5328 110.339 34.5132L110.618 33.6636H111.383H112.156L112.509 34.5982C112.715 35.1419 112.846 35.6092 112.821 35.7197C112.78 35.9151 112.789 35.9151 113.644 35.9151C114.482 35.9151 114.762 35.8131 114.26 35.7027C114.12 35.6687 113.923 35.5328 113.816 35.3798C113.709 35.2269 113.249 34.1139 112.789 32.899C112.328 31.684 111.884 30.5201 111.802 30.3077C111.621 29.8319 111.366 29.7469 111.235 30.1122ZM111.703 32.3722C111.843 32.7885 111.958 33.1623 111.958 33.2048C111.958 33.2473 111.703 33.2813 111.383 33.2813C110.988 33.2813 110.807 33.2473 110.807 33.1793C110.807 32.9414 111.342 31.4206 111.391 31.5226C111.424 31.5736 111.564 31.9644 111.703 32.3722Z" fill="#292933"/>
<path d="M0.567139 30.0523C0.567139 30.1033 0.68223 30.1628 0.813763 30.1967C0.953517 30.2222 1.10149 30.3072 1.13438 30.3837C1.17548 30.4601 1.2248 31.4032 1.24125 32.4737C1.27413 34.5807 1.30701 34.7507 1.75916 35.3029C2.12087 35.7447 2.5648 35.9401 3.34578 35.9826C4.53779 36.0506 5.26123 35.6937 5.64761 34.8271C5.86135 34.3598 5.86957 34.2749 5.91889 32.3463C5.94355 31.2503 5.97644 30.3412 5.97644 30.3242C5.98466 30.3072 6.10797 30.2562 6.2395 30.2137C6.69987 30.0438 6.48613 29.9673 5.54073 29.9673C4.94884 29.9673 4.59534 30.0013 4.59534 30.0523C4.59534 30.1033 4.71043 30.1628 4.84196 30.1967C4.98172 30.2222 5.12969 30.3157 5.17902 30.4091C5.23656 30.5196 5.25301 31.2418 5.23656 32.4142C5.2119 34.0795 5.19546 34.3004 5.03926 34.6487C4.48025 35.9061 2.91829 35.9146 2.32639 34.6742C2.11265 34.2324 2.10443 34.1134 2.06333 32.7371C2.03867 31.9299 2.05511 31.0464 2.07977 30.783C2.13732 30.3412 2.1702 30.2817 2.38394 30.2052C2.84431 30.0353 2.61412 29.9673 1.59474 29.9673C0.945296 29.9673 0.567139 30.0013 0.567139 30.0523Z" fill="#292933"/>
<path d="M14.9209 30.0273C14.888 30.0613 14.9867 30.1462 15.1346 30.2227L15.4059 30.3501L15.4306 32.729C15.4552 35.4648 15.4388 35.6347 15.1593 35.7112C14.6907 35.8301 15.0195 35.9151 15.9814 35.9151C16.9761 35.9151 17.3131 35.8216 16.7294 35.7112C16.5732 35.6772 16.4253 35.5922 16.3842 35.5073C16.302 35.3119 16.2362 31.3527 16.3102 30.7665C16.3595 30.3417 16.3924 30.2822 16.6061 30.2057C16.7377 30.1632 16.8445 30.0868 16.8445 30.0443C16.8445 29.9508 15.0113 29.9423 14.9209 30.0273Z" fill="#292933"/>
<path d="M17.5842 30.0528C17.5842 30.1037 17.6911 30.1632 17.8226 30.1887C17.9624 30.2227 18.1268 30.3076 18.2008 30.3926C18.2994 30.5115 20.4615 35.8386 20.4615 35.9745C20.4615 35.9915 20.5519 36 20.6588 36C20.8643 36 21.0945 35.5157 22.5578 31.8794C23.1497 30.4266 23.2401 30.2652 23.5525 30.1887C23.6594 30.1547 23.7498 30.0952 23.7498 30.0528C23.7498 30.0018 23.3798 29.9678 22.8455 29.9678C22.2947 29.9678 21.9412 30.0018 21.9412 30.0528C21.9412 30.0952 21.9905 30.1377 22.0481 30.1377C22.1056 30.1377 22.2207 30.1887 22.3029 30.2482C22.4345 30.3501 22.4262 30.4011 22.1878 31.0723C21.7604 32.2617 20.9383 34.4197 20.8807 34.4962C20.8232 34.5557 19.3106 30.537 19.3106 30.3416C19.3106 30.2822 19.401 30.2142 19.5161 30.1887C19.6312 30.1547 19.7216 30.0952 19.7216 30.0528C19.7216 30.0018 19.2941 29.9678 18.6529 29.9678C17.9788 29.9678 17.5842 30.0018 17.5842 30.0528Z" fill="#292933"/>
<path d="M39.5828 30.0273C39.5499 30.0613 39.6485 30.1462 39.7965 30.2227L40.0678 30.3501L40.0924 32.729C40.1171 35.4648 40.1007 35.6347 39.8212 35.7112C39.3526 35.8301 39.6814 35.9151 40.6432 35.9151C41.6379 35.9151 41.975 35.8216 41.3913 35.7112C41.2351 35.6772 41.0871 35.5922 41.046 35.5073C40.9638 35.3119 40.8981 31.3527 40.9721 30.7665C41.0214 30.3417 41.0543 30.2822 41.268 30.2057C41.3995 30.1632 41.5064 30.0868 41.5064 30.0443C41.5064 29.9508 39.6732 29.9423 39.5828 30.0273Z" fill="#292933"/>
<path d="M60.957 30.0273C60.9241 30.0613 61.0228 30.1462 61.1708 30.2227L61.442 30.3501L61.4667 32.729C61.4914 35.4648 61.4749 35.6347 61.1954 35.7112C60.7268 35.8301 61.0557 35.9151 62.0175 35.9151C63.0122 35.9151 63.3493 35.8216 62.7656 35.7112C62.6094 35.6772 62.4614 35.5922 62.4203 35.5073C62.3381 35.3119 62.2723 31.3527 62.3463 30.7665C62.3956 30.3417 62.4285 30.2822 62.6423 30.2057C62.7738 30.1632 62.8807 30.0868 62.8807 30.0443C62.8807 29.9508 61.0474 29.9423 60.957 30.0273Z" fill="#292933"/>
<path d="M71.759 30.0438C71.759 30.0863 71.8577 30.1458 71.981 30.1798C72.4249 30.2902 72.4167 30.2392 72.4167 32.8475C72.4167 34.1814 72.392 35.3624 72.3674 35.4728C72.3345 35.5748 72.2276 35.6852 72.1207 35.7107C72.0139 35.7362 71.9234 35.7957 71.9234 35.8297C71.9234 35.9231 74.365 36.0336 75.1049 35.9741C76.1982 35.8891 77.0532 35.2944 77.5053 34.3089C77.6944 33.8841 77.7191 33.7311 77.7191 32.8985C77.7191 32.0829 77.6944 31.913 77.5218 31.5476C77.1436 30.7575 76.5353 30.3072 75.5488 30.0863C74.9322 29.9589 71.759 29.9164 71.759 30.0438ZM74.4472 30.3837C75.4995 30.5451 76.2805 31.1058 76.6833 31.9979C77.119 32.975 76.897 34.3683 76.2147 34.997C75.705 35.4473 75.2611 35.6088 74.4719 35.6173C73.4936 35.6173 73.3621 35.5238 73.2963 34.7507C73.2223 33.9605 73.2305 30.6301 73.3045 30.5111C73.4361 30.3072 73.6991 30.2732 74.4472 30.3837Z" fill="#292933"/>
<path d="M78.9604 30.0273C78.9276 30.0613 79.0262 30.1462 79.1742 30.2227L79.4455 30.3501L79.4701 32.729C79.4948 35.4648 79.4783 35.6347 79.1988 35.7112C78.7303 35.8301 79.0591 35.9151 80.0209 35.9151C81.0156 35.9151 81.3527 35.8216 80.769 35.7112C80.6128 35.6772 80.4648 35.5922 80.4237 35.5073C80.3415 35.3119 80.2758 31.3527 80.3497 30.7665C80.3991 30.3417 80.4319 30.2822 80.6457 30.2057C80.7772 30.1632 80.8841 30.0868 80.8841 30.0443C80.8841 29.9508 79.0509 29.9423 78.9604 30.0273Z" fill="#292933"/>
<path d="M106.006 30.0273C105.973 30.0613 106.072 30.1462 106.22 30.2227L106.491 30.3501L106.516 32.729C106.541 35.4648 106.524 35.6347 106.245 35.7112C105.776 35.8301 106.105 35.9151 107.067 35.9151C108.062 35.9151 108.399 35.8216 107.815 35.7112C107.659 35.6772 107.511 35.5922 107.47 35.5073C107.387 35.3119 107.322 31.3527 107.396 30.7665C107.445 30.3417 107.478 30.2822 107.692 30.2057C107.823 30.1632 107.93 30.0868 107.93 30.0443C107.93 29.9508 106.097 29.9423 106.006 30.0273Z" fill="#292933"/>
</svg>
