<svg width="1152" height="436" viewBox="0 0 1152 436" fill="none" xmlns="http://www.w3.org/2000/svg">
<rect width="1152" height="276" fill="#F7D022"/>
<path d="M0 433L38.4 417C76.8 401 153.6 369 230.4 374.3C307.2 380 384 422 460.8 433C537.6 444 614.4 422 691.2 401C768 380 844.8 358 921.6 358.3C998.4 358 1075.2 380 1113.6 390.3L1152 401V273H1113.6C1075.2 273 998.4 273 921.6 273C844.8 273 768 273 691.2 273C614.4 273 537.6 273 460.8 273C384 273 307.2 273 230.4 273C153.6 273 76.8 273 38.4 273H0V433Z" fill="#F7D022"/>
</svg>
