<svg width="120" height="100" viewBox="0 0 120 100" fill="none" xmlns="http://www.w3.org/2000/svg">
<path d="M90 0H30L0 50L30 100H90L120 50L90 0Z" fill="#F7D022"/>
<path d="M35.0227 91.6293H84.978L109.956 50L84.978 8.37051H35.0227L10.0449 50L35.0227 91.6293Z" fill="white"/>
<path d="M41.3599 8.30859H40.71V34.1247H41.3599V8.30859Z" fill="#3F3D56"/>
<path d="M55.2369 8.30859H54.5869V34.1247H55.2369V8.30859Z" fill="#3F3D56"/>
<path d="M79.5987 8.30859H78.9487V34.1247H79.5987V8.30859Z" fill="#3F3D56"/>
<path d="M79.2736 37.3887C80.2955 37.3887 81.1239 36.5916 81.1239 35.6083C81.1239 34.625 80.2955 33.8279 79.2736 33.8279C78.2517 33.8279 77.4233 34.625 77.4233 35.6083C77.4233 36.5916 78.2517 37.3887 79.2736 37.3887Z" fill="#3F3D56"/>
<path d="M69.0973 62.908C70.1192 62.908 70.9476 62.1109 70.9476 61.1276C70.9476 60.1443 70.1192 59.3472 69.0973 59.3472C68.0755 59.3472 67.2471 60.1443 67.2471 61.1276C67.2471 62.1109 68.0755 62.908 69.0973 62.908Z" fill="#3F3D56"/>
<path d="M31.4753 46.5875C32.4971 46.5875 33.3255 45.7904 33.3255 44.8071C33.3255 43.8238 32.4971 43.0267 31.4753 43.0267C30.4534 43.0267 29.625 43.8238 29.625 44.8071C29.625 45.7904 30.4534 46.5875 31.4753 46.5875Z" fill="#3F3D56"/>
<path d="M69.4225 59.6438H68.7726V28.5354H54.9121V27.91H69.4225V59.6438Z" fill="#3F3D56"/>
<path d="M45.3527 74.184C46.3746 74.184 47.203 73.3868 47.203 72.4035C47.203 71.4202 46.3746 70.6231 45.3527 70.6231C44.3308 70.6231 43.5024 71.4202 43.5024 72.4035C43.5024 73.3868 44.3308 74.184 45.3527 74.184Z" fill="#F7D022"/>
<path d="M45.6774 70.9199H45.0274V39.8112H31.167V39.1858H45.6774V70.9199Z" fill="#3F3D56"/>
<path d="M88.217 60.2374C89.2388 60.2374 90.0672 59.4403 90.0672 58.457C90.0672 57.4737 89.2388 56.6766 88.217 56.6766C87.1951 56.6766 86.3667 57.4737 86.3667 58.457C86.3667 59.4403 87.1951 60.2374 88.217 60.2374Z" fill="#F7D022"/>
<path d="M88.542 56.9732H87.8921V25.8648H78.9658V25.2394H88.542V56.9732Z" fill="#3F3D56"/>
<path d="M31.8004 43.0265H31.1504V27.5594H41.035V28.1848H31.8004V43.0265Z" fill="#3F3D56"/>
<path d="M55.0661 81.1572C56.088 81.1572 56.9163 80.3601 56.9163 79.3768C56.9163 78.3935 56.088 77.5964 55.0661 77.5964C54.0442 77.5964 53.2158 78.3935 53.2158 79.3768C53.2158 80.3601 54.0442 81.1572 55.0661 81.1572Z" fill="#3F3D56"/>
<path d="M55.391 77.5963H54.741V62.7546H45.5063V62.1292H55.391V77.5963Z" fill="#3F3D56"/>
<path d="M78.6574 67.9525C79.6793 67.9525 80.5076 67.1554 80.5076 66.1721C80.5076 65.1888 79.6793 64.3917 78.6574 64.3917C77.6355 64.3917 76.8071 65.1888 76.8071 66.1721C76.8071 67.1554 77.6355 67.9525 78.6574 67.9525Z" fill="#3F3D56"/>
<path d="M78.9825 64.3917H78.3325V48.9246H88.2172V49.55H78.9825V64.3917Z" fill="#3F3D56"/>
</svg>
