<svg width="120" height="100" viewBox="0 0 120 100" fill="none" xmlns="http://www.w3.org/2000/svg">
<path d="M120 0V91.3242C115.245 80.1656 107.627 70.7031 98.0443 64.0514C97.9428 63.9803 97.84 63.9092 97.7373 63.8407C88.2005 57.3052 77.1268 53.8433 65.8226 53.8634H2.71729V0H120Z" fill="#3F3D56"/>
<path d="M117.283 100V95.0477C107.882 72.9119 87.1595 57.5343 63.1054 57.5343H0V100H117.283Z" fill="#F7D022"/>
<path d="M13.585 10.0457H9.9624V6.39268H13.585V10.0457ZM10.5437 9.45957H13.0037V6.97885H10.5437V9.45957Z" fill="#F2F2F2"/>
<path d="M85.5848 89.0411H5.88672V72.6027H85.5848V89.0411ZM6.13231 88.7781H85.3392V72.8658H6.13231V88.7781Z" fill="#F2F2F2"/>
<path opacity="0.1" d="M14.9436 78.9954H8.604V85.8447H14.9436V78.9954Z" fill="black"/>
<path d="M79.2449 75.7991H27.1694V77.6256H79.2449V75.7991Z" fill="#F2F2F2"/>
<path d="M79.2449 79.9087H27.1694V81.7352H79.2449V79.9087Z" fill="#F2F2F2"/>
<path d="M79.2449 84.4749H27.1694V86.3014H79.2449V84.4749Z" fill="#F2F2F2"/>
<path d="M18.1134 86.3014H8.604V75.7991H18.1134V86.3014ZM8.84174 86.0388H17.8757V76.0616H8.84174V86.0388Z" fill="#F2F2F2"/>
<path d="M95.7735 86.3014C94.7435 86.3014 93.7367 85.98 92.8803 85.3779C92.0239 84.7758 91.3565 83.9201 90.9623 82.9188C90.5682 81.9176 90.465 80.8158 90.666 79.7529C90.8669 78.69 91.3629 77.7137 92.0912 76.9474C92.8195 76.1811 93.7474 75.6592 94.7575 75.4478C95.7677 75.2363 96.8148 75.3448 97.7663 75.7596C98.7179 76.1743 99.5312 76.8766 100.103 77.7777C100.676 78.6788 100.981 79.7382 100.981 80.8219C100.979 82.2747 100.43 83.6674 99.454 84.6946C98.4778 85.7219 97.1541 86.2997 95.7735 86.3014V86.3014ZM95.7735 75.5973C94.7914 75.5973 93.8314 75.9037 93.0149 76.4778C92.1983 77.0519 91.5619 77.8679 91.1861 78.8226C90.8103 79.7772 90.712 80.8277 90.9035 81.8412C91.0951 82.8547 91.568 83.7856 92.2624 84.5163C92.9569 85.2469 93.8416 85.7445 94.8048 85.9461C95.768 86.1477 96.7663 86.0443 97.6736 85.6488C98.5809 85.2534 99.3564 84.5837 99.902 83.7245C100.448 82.8654 100.739 81.8552 100.739 80.8219C100.737 79.4368 100.214 78.1088 99.2828 77.1293C98.352 76.1498 97.0899 75.5989 95.7735 75.5973V75.5973Z" fill="#F2F2F2"/>
<path d="M99.1699 77.8122L98.9966 77.6256L95.7737 81.0946L92.5508 77.6256L92.3774 77.8122L95.6004 81.2811L92.8065 84.2883L92.9797 84.4749L95.7737 81.4677L98.5676 84.4749L98.741 84.2883L95.9471 81.2811L99.1699 77.8122Z" fill="#F2F2F2"/>
<path d="M94.6319 2.2831L20.3774 15.8097L26.3388 53.7438H26.5858L20.6586 16.0243L94.4314 2.58717L103.869 62.6475L98.0026 63.7163C98.1053 63.7848 98.208 63.8558 98.3095 63.9269L104.151 62.8633L94.6319 2.2831Z" stroke="#F2F2F2" stroke-width="2" stroke-miterlimit="10"/>
<path d="M61.1418 38.0221C63.6838 45.9659 62.791 53.4247 62.791 53.4247C62.791 53.4247 57.7769 48.0039 55.2348 40.0601C52.6928 32.1163 53.5856 24.6575 53.5856 24.6575C53.5856 24.6575 58.5998 30.0783 61.1418 38.0221Z" fill="#F7D022"/>
<path d="M64.2062 38.0221C61.7852 45.9659 62.6355 53.4247 62.6355 53.4247C62.6355 53.4247 67.4109 48.0039 69.8319 40.0601C72.2528 32.1163 71.4026 24.6575 71.4026 24.6575C71.4026 24.6575 66.6272 30.0783 64.2062 38.0221Z" fill="#F7D022"/>
<path d="M65.2004 38.0589C65.3613 46.5071 62.5549 53.4246 62.5549 53.4246C62.5549 53.4246 59.4878 46.645 59.327 38.1968C59.1662 29.7486 61.9725 22.831 61.9725 22.831C61.9725 22.831 65.0396 29.6107 65.2004 38.0589Z" fill="#F2F2F2"/>
<path d="M62.2642 31.5068C62.6393 31.5068 62.9435 31.098 62.9435 30.5936C62.9435 30.0892 62.6393 29.6804 62.2642 29.6804C61.8891 29.6804 61.585 30.0892 61.585 30.5936C61.585 31.098 61.8891 31.5068 62.2642 31.5068Z" fill="#F7D022"/>
<path d="M55.6984 33.3333C55.9485 33.3333 56.1513 33.1289 56.1513 32.8767C56.1513 32.6245 55.9485 32.4201 55.6984 32.4201C55.4483 32.4201 55.2456 32.6245 55.2456 32.8767C55.2456 33.1289 55.4483 33.3333 55.6984 33.3333Z" fill="#3F3D56"/>
<path d="M70.6413 28.7671C70.8914 28.7671 71.0941 28.5627 71.0941 28.3105C71.0941 28.0583 70.8914 27.8539 70.6413 27.8539C70.3912 27.8539 70.1885 28.0583 70.1885 28.3105C70.1885 28.5627 70.3912 28.7671 70.6413 28.7671Z" fill="#3F3D56"/>
<path d="M57.7357 37.4429C57.8607 37.4429 57.9621 37.2385 57.9621 36.9863C57.9621 36.7341 57.8607 36.5297 57.7357 36.5297C57.6106 36.5297 57.5093 36.7341 57.5093 36.9863C57.5093 37.2385 57.6106 37.4429 57.7357 37.4429Z" fill="#3F3D56"/>
<path d="M66.5661 34.7032C66.8162 34.7032 67.0189 34.4988 67.0189 34.2466C67.0189 33.9944 66.8162 33.7899 66.5661 33.7899C66.316 33.7899 66.1133 33.9944 66.1133 34.2466C66.1133 34.4988 66.316 34.7032 66.5661 34.7032Z" fill="#3F3D56"/>
<path d="M57.9621 44.2922C58.2122 44.2922 58.4149 44.0878 58.4149 43.8356C58.4149 43.5834 58.2122 43.379 57.9621 43.379C57.712 43.379 57.5093 43.5834 57.5093 43.8356C57.5093 44.0878 57.712 44.2922 57.9621 44.2922Z" fill="#3F3D56"/>
<path d="M67.0192 41.5525C67.2693 41.5525 67.4721 41.3481 67.4721 41.0959C67.4721 40.8437 67.2693 40.6393 67.0192 40.6393C66.7691 40.6393 66.5664 40.8437 66.5664 41.0959C66.5664 41.3481 66.7691 41.5525 67.0192 41.5525Z" fill="#3F3D56"/>
<path d="M62.9436 42.0091C63.1936 42.0091 63.3964 41.8047 63.3964 41.5525C63.3964 41.3003 63.1936 41.0959 62.9436 41.0959C62.6935 41.0959 62.4907 41.3003 62.4907 41.5525C62.4907 41.8047 62.6935 42.0091 62.9436 42.0091Z" fill="#F7D022"/>
</svg>
