<svg width="120" height="100" viewBox="0 0 120 100" fill="none" xmlns="http://www.w3.org/2000/svg">
<g clip-path="url(#clip0)">
<path d="M25.3543 -0.000243055C22.0941 -0.00958916 18.8637 1.03574 15.8419 3.0779C15.7202 3.16109 15.5981 3.24469 15.476 3.33018C10.8837 6.5634 6.96551 11.9861 4.2125 18.9188C1.45948 25.8514 -0.00589876 33.9856 1.78461e-05 42.3018V88.4609C0.000347126 88.9484 0.11656 89.4157 0.323162 89.7604C0.529763 90.1051 0.80988 90.299 1.10206 90.2996L1.12394 90.3028C22.3648 96.7386 43.0145 99.9997 62.5164 99.9997C62.8088 99.9997 63.1009 99.999 63.3927 99.9976C82.5627 99.9002 101.229 96.639 118.872 90.3042L118.898 90.2996C119.19 90.299 119.47 90.1052 119.677 89.7604C119.884 89.4157 120 88.9484 120 88.4609V1.83845C120 1.35097 119.883 0.883612 119.677 0.538911C119.47 0.19421 119.19 0.000318256 118.898 -0.000230586L25.3543 -0.000243055Z" fill="#F7D022"/>
<path d="M91.3222 36.8131C91.1311 36.8183 90.949 36.9486 90.815 37.1758C90.681 37.4031 90.606 37.7091 90.606 38.0278C90.606 38.3466 90.681 38.6526 90.815 38.8798C90.949 39.107 91.1311 39.2373 91.3222 39.2426H109.578C109.673 39.2454 109.768 39.2167 109.857 39.1581C109.946 39.0996 110.028 39.0123 110.096 38.9014C110.165 38.7904 110.22 38.6579 110.258 38.5114C110.296 38.365 110.317 38.2074 110.318 38.0478C110.32 37.8881 110.303 37.7295 110.267 37.5811C110.232 37.4326 110.18 37.2972 110.113 37.1825C110.047 37.0678 109.967 36.9762 109.879 36.9128C109.792 36.8494 109.697 36.8155 109.601 36.8131C109.593 36.8128 109.586 36.8128 109.578 36.8131H91.3222Z" fill="#3F3D56"/>
<path d="M113.718 36.4748C113.704 36.497 113.694 36.5233 113.687 36.5523C113.679 36.5813 113.676 36.6124 113.676 36.6438C113.676 36.6752 113.679 36.7063 113.687 36.7353C113.694 36.7643 113.704 36.7906 113.718 36.8128L114.333 37.839H112.816C112.778 37.839 112.742 37.8642 112.715 37.909C112.688 37.9538 112.673 38.0147 112.673 38.078C112.673 38.1414 112.688 38.2022 112.715 38.2471C112.742 38.2919 112.778 38.3171 112.816 38.3171H114.333L113.718 39.3433C113.704 39.3655 113.694 39.3918 113.687 39.4208C113.679 39.4498 113.676 39.4809 113.676 39.5123C113.676 39.5437 113.679 39.5748 113.687 39.6038C113.694 39.6328 113.704 39.6591 113.718 39.6813C113.731 39.7035 113.747 39.7211 113.764 39.7331C113.782 39.7451 113.8 39.7513 113.819 39.7513C113.838 39.7513 113.856 39.7451 113.874 39.7331C113.891 39.7211 113.907 39.7035 113.92 39.6813L114.78 38.2471C114.807 38.2022 114.822 38.1414 114.822 38.078C114.822 38.0147 114.807 37.9539 114.78 37.909L113.92 36.4748C113.907 36.4526 113.891 36.435 113.874 36.423C113.856 36.411 113.838 36.4048 113.819 36.4048C113.8 36.4048 113.782 36.411 113.764 36.423C113.747 36.435 113.731 36.4526 113.718 36.4748Z" fill="white"/>
<path d="M87.175 36.4748C87.1883 36.497 87.1989 36.5233 87.2061 36.5523C87.2133 36.5813 87.217 36.6124 87.217 36.6438C87.217 36.6752 87.2133 36.7063 87.2061 36.7353C87.1989 36.7643 87.1883 36.7906 87.175 36.8128L86.56 37.839H88.0766C88.0954 37.8389 88.1141 37.845 88.1315 37.857C88.149 37.869 88.1648 37.8866 88.1782 37.9088C88.1915 37.931 88.2021 37.9574 88.2093 37.9864C88.2165 38.0155 88.2203 38.0466 88.2203 38.078C88.2203 38.1095 88.2165 38.1406 88.2093 38.1697C88.2021 38.1987 88.1915 38.2251 88.1782 38.2473C88.1648 38.2695 88.149 38.2871 88.1315 38.2991C88.1141 38.3111 88.0954 38.3172 88.0766 38.3171H86.56L87.175 39.3433C87.2019 39.3881 87.217 39.4489 87.217 39.5123C87.217 39.5757 87.2019 39.6365 87.175 39.6813C87.1481 39.7261 87.1117 39.7513 87.0737 39.7513C87.0357 39.7513 86.9993 39.7261 86.9724 39.6813L86.1128 38.2471C86.0859 38.2022 86.0708 38.1414 86.0708 38.078C86.0708 38.0147 86.0859 37.9539 86.1128 37.909L86.9724 36.4748C86.9857 36.4526 87.0015 36.435 87.0189 36.423C87.0362 36.411 87.0549 36.4048 87.0737 36.4048C87.0925 36.4048 87.1111 36.411 87.1285 36.423C87.1459 36.435 87.1617 36.4526 87.175 36.4748V36.4748Z" fill="white"/>
<g opacity="0.4">
<path opacity="0.4" d="M92.0593 11.6C92.4914 11.6 92.8417 11.0155 92.8417 10.2946C92.8417 9.57359 92.4914 8.98912 92.0593 8.98912C91.6272 8.98912 91.2769 9.57359 91.2769 10.2946C91.2769 11.0155 91.6272 11.6 92.0593 11.6Z" fill="white"/>
<path opacity="0.4" d="M95.3195 11.6C95.7517 11.6 96.102 11.0155 96.102 10.2946C96.102 9.57359 95.7517 8.98912 95.3195 8.98912C94.8874 8.98912 94.5371 9.57359 94.5371 10.2946C94.5371 11.0155 94.8874 11.6 95.3195 11.6Z" fill="white"/>
<path opacity="0.4" d="M98.5798 11.6C99.0119 11.6 99.3622 11.0155 99.3622 10.2946C99.3622 9.57359 99.0119 8.98912 98.5798 8.98912C98.1477 8.98912 97.7974 9.57359 97.7974 10.2946C97.7974 11.0155 98.1477 11.6 98.5798 11.6Z" fill="white"/>
<path opacity="0.4" d="M101.84 11.6C102.272 11.6 102.622 11.0155 102.622 10.2946C102.622 9.57359 102.272 8.98912 101.84 8.98912C101.408 8.98912 101.058 9.57359 101.058 10.2946C101.058 11.0155 101.408 11.6 101.84 11.6Z" fill="white"/>
<path opacity="0.4" d="M105.1 11.6C105.532 11.6 105.882 11.0155 105.882 10.2946C105.882 9.57359 105.532 8.98912 105.1 8.98912C104.668 8.98912 104.317 9.57359 104.317 10.2946C104.317 11.0155 104.668 11.6 105.1 11.6Z" fill="white"/>
<path opacity="0.4" d="M108.36 11.6C108.792 11.6 109.143 11.0155 109.143 10.2946C109.143 9.57359 108.792 8.98912 108.36 8.98912C107.928 8.98912 107.578 9.57359 107.578 10.2946C107.578 11.0155 107.928 11.6 108.36 11.6Z" fill="white"/>
<path opacity="0.4" d="M111.62 11.6C112.052 11.6 112.403 11.0155 112.403 10.2946C112.403 9.57359 112.052 8.98912 111.62 8.98912C111.188 8.98912 110.838 9.57359 110.838 10.2946C110.838 11.0155 111.188 11.6 111.62 11.6Z" fill="white"/>
<path opacity="0.4" d="M92.0593 15.7339C92.4914 15.7339 92.8417 15.1495 92.8417 14.4285C92.8417 13.7075 92.4914 13.123 92.0593 13.123C91.6272 13.123 91.2769 13.7075 91.2769 14.4285C91.2769 15.1495 91.6272 15.7339 92.0593 15.7339Z" fill="white"/>
<path opacity="0.4" d="M95.3195 15.7339C95.7517 15.7339 96.102 15.1495 96.102 14.4285C96.102 13.7075 95.7517 13.123 95.3195 13.123C94.8874 13.123 94.5371 13.7075 94.5371 14.4285C94.5371 15.1495 94.8874 15.7339 95.3195 15.7339Z" fill="white"/>
<path opacity="0.4" d="M98.5798 15.7339C99.0119 15.7339 99.3622 15.1495 99.3622 14.4285C99.3622 13.7075 99.0119 13.123 98.5798 13.123C98.1477 13.123 97.7974 13.7075 97.7974 14.4285C97.7974 15.1495 98.1477 15.7339 98.5798 15.7339Z" fill="white"/>
<path opacity="0.4" d="M101.84 15.7339C102.272 15.7339 102.622 15.1495 102.622 14.4285C102.622 13.7075 102.272 13.123 101.84 13.123C101.408 13.123 101.058 13.7075 101.058 14.4285C101.058 15.1495 101.408 15.7339 101.84 15.7339Z" fill="white"/>
<path opacity="0.4" d="M105.1 15.7339C105.532 15.7339 105.882 15.1495 105.882 14.4285C105.882 13.7075 105.532 13.123 105.1 13.123C104.668 13.123 104.317 13.7075 104.317 14.4285C104.317 15.1495 104.668 15.7339 105.1 15.7339Z" fill="white"/>
<path opacity="0.4" d="M108.36 15.7339C108.792 15.7339 109.143 15.1495 109.143 14.4285C109.143 13.7075 108.792 13.123 108.36 13.123C107.928 13.123 107.578 13.7075 107.578 14.4285C107.578 15.1495 107.928 15.7339 108.36 15.7339Z" fill="white"/>
<path opacity="0.4" d="M111.62 15.7339C112.052 15.7339 112.403 15.1495 112.403 14.4285C112.403 13.7075 112.052 13.123 111.62 13.123C111.188 13.123 110.838 13.7075 110.838 14.4285C110.838 15.1495 111.188 15.7339 111.62 15.7339Z" fill="white"/>
<path opacity="0.4" d="M92.0593 19.8678C92.4914 19.8678 92.8417 19.2834 92.8417 18.5624C92.8417 17.8414 92.4914 17.2569 92.0593 17.2569C91.6272 17.2569 91.2769 17.8414 91.2769 18.5624C91.2769 19.2834 91.6272 19.8678 92.0593 19.8678Z" fill="white"/>
<path opacity="0.4" d="M95.3195 19.8678C95.7517 19.8678 96.102 19.2834 96.102 18.5624C96.102 17.8414 95.7517 17.2569 95.3195 17.2569C94.8874 17.2569 94.5371 17.8414 94.5371 18.5624C94.5371 19.2834 94.8874 19.8678 95.3195 19.8678Z" fill="white"/>
<path opacity="0.4" d="M98.5798 19.8678C99.0119 19.8678 99.3622 19.2834 99.3622 18.5624C99.3622 17.8414 99.0119 17.2569 98.5798 17.2569C98.1477 17.2569 97.7974 17.8414 97.7974 18.5624C97.7974 19.2834 98.1477 19.8678 98.5798 19.8678Z" fill="white"/>
<path opacity="0.4" d="M101.84 19.8678C102.272 19.8678 102.622 19.2834 102.622 18.5624C102.622 17.8414 102.272 17.2569 101.84 17.2569C101.408 17.2569 101.058 17.8414 101.058 18.5624C101.058 19.2834 101.408 19.8678 101.84 19.8678Z" fill="white"/>
<path opacity="0.4" d="M105.1 19.8678C105.532 19.8678 105.882 19.2834 105.882 18.5624C105.882 17.8414 105.532 17.2569 105.1 17.2569C104.668 17.2569 104.317 17.8414 104.317 18.5624C104.317 19.2834 104.668 19.8678 105.1 19.8678Z" fill="white"/>
<path opacity="0.4" d="M108.36 19.8678C108.792 19.8678 109.143 19.2834 109.143 18.5624C109.143 17.8414 108.792 17.2569 108.36 17.2569C107.928 17.2569 107.578 17.8414 107.578 18.5624C107.578 19.2834 107.928 19.8678 108.36 19.8678Z" fill="white"/>
<path opacity="0.4" d="M111.62 19.8678C112.052 19.8678 112.403 19.2834 112.403 18.5624C112.403 17.8414 112.052 17.2569 111.62 17.2569C111.188 17.2569 110.838 17.8414 110.838 18.5624C110.838 19.2834 111.188 19.8678 111.62 19.8678Z" fill="white"/>
<path opacity="0.4" d="M92.0593 24.0017C92.4914 24.0017 92.8417 23.4173 92.8417 22.6963C92.8417 21.9753 92.4914 21.3909 92.0593 21.3909C91.6272 21.3909 91.2769 21.9753 91.2769 22.6963C91.2769 23.4173 91.6272 24.0017 92.0593 24.0017Z" fill="white"/>
<path opacity="0.4" d="M95.3195 24.0017C95.7517 24.0017 96.102 23.4173 96.102 22.6963C96.102 21.9753 95.7517 21.3909 95.3195 21.3909C94.8874 21.3909 94.5371 21.9753 94.5371 22.6963C94.5371 23.4173 94.8874 24.0017 95.3195 24.0017Z" fill="white"/>
<path opacity="0.4" d="M92.0593 28.1356C92.4914 28.1356 92.8417 27.5512 92.8417 26.8302C92.8417 26.1092 92.4914 25.5247 92.0593 25.5247C91.6272 25.5247 91.2769 26.1092 91.2769 26.8302C91.2769 27.5512 91.6272 28.1356 92.0593 28.1356Z" fill="white"/>
<path opacity="0.4" d="M95.3195 28.1356C95.7517 28.1356 96.102 27.5512 96.102 26.8302C96.102 26.1092 95.7517 25.5247 95.3195 25.5247C94.8874 25.5247 94.5371 26.1092 94.5371 26.8302C94.5371 27.5512 94.8874 28.1356 95.3195 28.1356Z" fill="white"/>
<path opacity="0.4" d="M98.5798 28.1356C99.0119 28.1356 99.3622 27.5512 99.3622 26.8302C99.3622 26.1092 99.0119 25.5247 98.5798 25.5247C98.1477 25.5247 97.7974 26.1092 97.7974 26.8302C97.7974 27.5512 98.1477 28.1356 98.5798 28.1356Z" fill="white"/>
<path opacity="0.4" d="M98.5798 24.0017C99.0119 24.0017 99.3622 23.4173 99.3622 22.6963C99.3622 21.9753 99.0119 21.3909 98.5798 21.3909C98.1477 21.3909 97.7974 21.9753 97.7974 22.6963C97.7974 23.4173 98.1477 24.0017 98.5798 24.0017Z" fill="white"/>
<path opacity="0.4" d="M101.84 24.0017C102.272 24.0017 102.622 23.4173 102.622 22.6963C102.622 21.9753 102.272 21.3909 101.84 21.3909C101.408 21.3909 101.058 21.9753 101.058 22.6963C101.058 23.4173 101.408 24.0017 101.84 24.0017Z" fill="white"/>
<path opacity="0.4" d="M105.1 24.0017C105.532 24.0017 105.882 23.4173 105.882 22.6963C105.882 21.9753 105.532 21.3909 105.1 21.3909C104.668 21.3909 104.317 21.9753 104.317 22.6963C104.317 23.4173 104.668 24.0017 105.1 24.0017Z" fill="white"/>
<path opacity="0.4" d="M108.36 24.0017C108.792 24.0017 109.143 23.4173 109.143 22.6963C109.143 21.9753 108.792 21.3909 108.36 21.3909C107.928 21.3909 107.578 21.9753 107.578 22.6963C107.578 23.4173 107.928 24.0017 108.36 24.0017Z" fill="white"/>
<path opacity="0.4" d="M111.62 24.0017C112.052 24.0017 112.403 23.4173 112.403 22.6963C112.403 21.9753 112.052 21.3909 111.62 21.3909C111.188 21.3909 110.838 21.9753 110.838 22.6963C110.838 23.4173 111.188 24.0017 111.62 24.0017Z" fill="white"/>
</g>
<path d="M80.8357 76.7056C79.9815 76.7056 79.1464 76.283 78.4361 75.4912C77.7259 74.6994 77.1723 73.5739 76.8454 72.2572C76.5185 70.9404 76.4329 69.4915 76.5996 68.0937C76.7662 66.6958 77.1776 65.4118 77.7816 64.404C78.3857 63.3962 79.1553 62.7099 79.9931 62.4319C80.8309 62.1538 81.6993 62.2965 82.4885 62.8419C83.2777 63.3874 83.9523 64.311 84.4269 65.496C84.9015 66.6811 85.1548 68.0743 85.1548 69.4995C85.1535 71.41 84.698 73.2417 83.8883 74.5926C83.0786 75.9435 81.9808 76.7035 80.8357 76.7056V76.7056ZM80.8357 62.702C80.0299 62.702 79.2422 63.1007 78.5722 63.8476C77.9022 64.5945 77.38 65.6561 77.0716 66.8982C76.7633 68.1403 76.6826 69.5071 76.8398 70.8256C76.997 72.1442 77.385 73.3554 77.9548 74.3061C78.5246 75.2567 79.2505 75.9041 80.0409 76.1664C80.8312 76.4287 81.6504 76.2941 82.3948 75.7796C83.1393 75.2651 83.7756 74.3938 84.2233 73.276C84.6709 72.1582 84.9099 70.8439 84.9099 69.4995C84.9087 67.6973 84.479 65.9695 83.7152 64.6952C82.9514 63.4208 81.9159 62.704 80.8357 62.702V62.702Z" fill="#3F3D56"/>
<path d="M82.4914 68.8088H81.2495V66.7367C81.2495 66.5536 81.2058 66.3779 81.1282 66.2483C81.0506 66.1188 80.9453 66.0461 80.8355 66.0461C80.7257 66.0461 80.6204 66.1188 80.5428 66.2483C80.4651 66.3779 80.4215 66.5536 80.4215 66.7367V68.8088H79.1796C79.0698 68.8088 78.9645 68.8816 78.8869 69.0111C78.8092 69.1406 78.7656 69.3163 78.7656 69.4995C78.7656 69.6827 78.8092 69.8583 78.8869 69.9879C78.9645 70.1174 79.0698 70.1902 79.1796 70.1902H80.4215V72.2622C80.4215 72.4454 80.4651 72.6211 80.5428 72.7506C80.6204 72.8802 80.7257 72.9529 80.8355 72.9529C80.9453 72.9529 81.0506 72.8802 81.1282 72.7506C81.2058 72.6211 81.2495 72.4454 81.2495 72.2622V70.1902H82.4914C82.6012 70.1902 82.7064 70.1174 82.7841 69.9879C82.8617 69.8583 82.9053 69.6827 82.9053 69.4995C82.9053 69.3163 82.8617 69.1406 82.7841 69.0111C82.7064 68.8816 82.6012 68.8088 82.4914 68.8088V68.8088Z" fill="white"/>
<g opacity="0.4">
<path opacity="0.4" d="M6.61517 77.5903C6.95492 77.5903 7.23034 77.1308 7.23034 76.5639C7.23034 75.9971 6.95492 75.5376 6.61517 75.5376C6.27542 75.5376 6 75.9971 6 76.5639C6 77.1308 6.27542 77.5903 6.61517 77.5903Z" fill="white"/>
<path opacity="0.4" d="M6.61517 73.3138C6.95492 73.3138 7.23034 72.8542 7.23034 72.2874C7.23034 71.7205 6.95492 71.261 6.61517 71.261C6.27542 71.261 6 71.7205 6 72.2874C6 72.8542 6.27542 73.3138 6.61517 73.3138Z" fill="white"/>
<path opacity="0.4" d="M6.61517 69.0372C6.95492 69.0372 7.23034 68.5776 7.23034 68.0108C7.23034 67.4439 6.95492 66.9844 6.61517 66.9844C6.27542 66.9844 6 67.4439 6 68.0108C6 68.5776 6.27542 69.0372 6.61517 69.0372Z" fill="white"/>
<path opacity="0.4" d="M6.61517 64.7606C6.95492 64.7606 7.23034 64.3011 7.23034 63.7342C7.23034 63.1674 6.95492 62.7079 6.61517 62.7079C6.27542 62.7079 6 63.1674 6 63.7342C6 64.3011 6.27542 64.7606 6.61517 64.7606Z" fill="white"/>
<path opacity="0.4" d="M6.61517 60.484C6.95492 60.484 7.23034 60.0245 7.23034 59.4577C7.23034 58.8908 6.95492 58.4313 6.61517 58.4313C6.27542 58.4313 6 58.8908 6 59.4577C6 60.0245 6.27542 60.484 6.61517 60.484Z" fill="white"/>
<path opacity="0.4" d="M6.61517 56.2075C6.95492 56.2075 7.23034 55.748 7.23034 55.1811C7.23034 54.6143 6.95492 54.1547 6.61517 54.1547C6.27542 54.1547 6 54.6143 6 55.1811C6 55.748 6.27542 56.2075 6.61517 56.2075Z" fill="white"/>
<path opacity="0.4" d="M6.61517 51.9309C6.95492 51.9309 7.23034 51.4714 7.23034 50.9045C7.23034 50.3377 6.95492 49.8782 6.61517 49.8782C6.27542 49.8782 6 50.3377 6 50.9045C6 51.4714 6.27542 51.9309 6.61517 51.9309Z" fill="white"/>
<path opacity="0.4" d="M8.56341 77.5903C8.90316 77.5903 9.17859 77.1308 9.17859 76.5639C9.17859 75.9971 8.90316 75.5376 8.56341 75.5376C8.22366 75.5376 7.94824 75.9971 7.94824 76.5639C7.94824 77.1308 8.22366 77.5903 8.56341 77.5903Z" fill="white"/>
<path opacity="0.4" d="M8.56341 73.3138C8.90316 73.3138 9.17859 72.8542 9.17859 72.2874C9.17859 71.7205 8.90316 71.261 8.56341 71.261C8.22366 71.261 7.94824 71.7205 7.94824 72.2874C7.94824 72.8542 8.22366 73.3138 8.56341 73.3138Z" fill="white"/>
<path opacity="0.4" d="M8.56341 69.0372C8.90316 69.0372 9.17859 68.5776 9.17859 68.0108C9.17859 67.4439 8.90316 66.9844 8.56341 66.9844C8.22366 66.9844 7.94824 67.4439 7.94824 68.0108C7.94824 68.5776 8.22366 69.0372 8.56341 69.0372Z" fill="white"/>
<path opacity="0.4" d="M8.56341 64.7606C8.90316 64.7606 9.17859 64.3011 9.17859 63.7342C9.17859 63.1674 8.90316 62.7079 8.56341 62.7079C8.22366 62.7079 7.94824 63.1674 7.94824 63.7342C7.94824 64.3011 8.22366 64.7606 8.56341 64.7606Z" fill="white"/>
<path opacity="0.4" d="M8.56341 60.484C8.90316 60.484 9.17859 60.0245 9.17859 59.4577C9.17859 58.8908 8.90316 58.4313 8.56341 58.4313C8.22366 58.4313 7.94824 58.8908 7.94824 59.4577C7.94824 60.0245 8.22366 60.484 8.56341 60.484Z" fill="white"/>
<path opacity="0.4" d="M8.56341 56.2075C8.90316 56.2075 9.17859 55.748 9.17859 55.1811C9.17859 54.6143 8.90316 54.1547 8.56341 54.1547C8.22366 54.1547 7.94824 54.6143 7.94824 55.1811C7.94824 55.748 8.22366 56.2075 8.56341 56.2075Z" fill="white"/>
<path opacity="0.4" d="M8.56341 51.9309C8.90316 51.9309 9.17859 51.4714 9.17859 50.9045C9.17859 50.3377 8.90316 49.8782 8.56341 49.8782C8.22366 49.8782 7.94824 50.3377 7.94824 50.9045C7.94824 51.4714 8.22366 51.9309 8.56341 51.9309Z" fill="white"/>
<path opacity="0.4" d="M10.5117 77.5903C10.8514 77.5903 11.1268 77.1308 11.1268 76.5639C11.1268 75.9971 10.8514 75.5376 10.5117 75.5376C10.1719 75.5376 9.89648 75.9971 9.89648 76.5639C9.89648 77.1308 10.1719 77.5903 10.5117 77.5903Z" fill="white"/>
<path opacity="0.4" d="M10.5117 73.3138C10.8514 73.3138 11.1268 72.8542 11.1268 72.2874C11.1268 71.7205 10.8514 71.261 10.5117 71.261C10.1719 71.261 9.89648 71.7205 9.89648 72.2874C9.89648 72.8542 10.1719 73.3138 10.5117 73.3138Z" fill="white"/>
<path opacity="0.4" d="M10.5117 69.0372C10.8514 69.0372 11.1268 68.5776 11.1268 68.0108C11.1268 67.4439 10.8514 66.9844 10.5117 66.9844C10.1719 66.9844 9.89648 67.4439 9.89648 68.0108C9.89648 68.5776 10.1719 69.0372 10.5117 69.0372Z" fill="white"/>
<path opacity="0.4" d="M10.5117 64.7606C10.8514 64.7606 11.1268 64.3011 11.1268 63.7342C11.1268 63.1674 10.8514 62.7079 10.5117 62.7079C10.1719 62.7079 9.89648 63.1674 9.89648 63.7342C9.89648 64.3011 10.1719 64.7606 10.5117 64.7606Z" fill="white"/>
<path opacity="0.4" d="M10.5117 60.484C10.8514 60.484 11.1268 60.0245 11.1268 59.4577C11.1268 58.8908 10.8514 58.4313 10.5117 58.4313C10.1719 58.4313 9.89648 58.8908 9.89648 59.4577C9.89648 60.0245 10.1719 60.484 10.5117 60.484Z" fill="white"/>
<path opacity="0.4" d="M10.5117 56.2075C10.8514 56.2075 11.1268 55.748 11.1268 55.1811C11.1268 54.6143 10.8514 54.1547 10.5117 54.1547C10.1719 54.1547 9.89648 54.6143 9.89648 55.1811C9.89648 55.748 10.1719 56.2075 10.5117 56.2075Z" fill="white"/>
<path opacity="0.4" d="M10.5117 51.9309C10.8514 51.9309 11.1268 51.4714 11.1268 50.9045C11.1268 50.3377 10.8514 49.8782 10.5117 49.8782C10.1719 49.8782 9.89648 50.3377 9.89648 50.9045C9.89648 51.4714 10.1719 51.9309 10.5117 51.9309Z" fill="white"/>
<path opacity="0.4" d="M12.4594 77.5903C12.7992 77.5903 13.0746 77.1308 13.0746 76.5639C13.0746 75.9971 12.7992 75.5376 12.4594 75.5376C12.1197 75.5376 11.8442 75.9971 11.8442 76.5639C11.8442 77.1308 12.1197 77.5903 12.4594 77.5903Z" fill="white"/>
<path opacity="0.4" d="M12.4594 73.3138C12.7992 73.3138 13.0746 72.8542 13.0746 72.2874C13.0746 71.7205 12.7992 71.261 12.4594 71.261C12.1197 71.261 11.8442 71.7205 11.8442 72.2874C11.8442 72.8542 12.1197 73.3138 12.4594 73.3138Z" fill="white"/>
<path opacity="0.4" d="M14.4077 77.5903C14.7474 77.5903 15.0228 77.1308 15.0228 76.5639C15.0228 75.9971 14.7474 75.5376 14.4077 75.5376C14.0679 75.5376 13.7925 75.9971 13.7925 76.5639C13.7925 77.1308 14.0679 77.5903 14.4077 77.5903Z" fill="white"/>
<path opacity="0.4" d="M14.4077 73.3138C14.7474 73.3138 15.0228 72.8542 15.0228 72.2874C15.0228 71.7205 14.7474 71.261 14.4077 71.261C14.0679 71.261 13.7925 71.7205 13.7925 72.2874C13.7925 72.8542 14.0679 73.3138 14.4077 73.3138Z" fill="white"/>
<path opacity="0.4" d="M14.4077 69.0372C14.7474 69.0372 15.0228 68.5776 15.0228 68.0108C15.0228 67.4439 14.7474 66.9844 14.4077 66.9844C14.0679 66.9844 13.7925 67.4439 13.7925 68.0108C13.7925 68.5776 14.0679 69.0372 14.4077 69.0372Z" fill="white"/>
<path opacity="0.4" d="M12.4594 69.0372C12.7992 69.0372 13.0746 68.5776 13.0746 68.0108C13.0746 67.4439 12.7992 66.9844 12.4594 66.9844C12.1197 66.9844 11.8442 67.4439 11.8442 68.0108C11.8442 68.5776 12.1197 69.0372 12.4594 69.0372Z" fill="white"/>
<path opacity="0.4" d="M12.4594 64.7606C12.7992 64.7606 13.0746 64.3011 13.0746 63.7342C13.0746 63.1674 12.7992 62.7079 12.4594 62.7079C12.1197 62.7079 11.8442 63.1674 11.8442 63.7342C11.8442 64.3011 12.1197 64.7606 12.4594 64.7606Z" fill="white"/>
<path opacity="0.4" d="M12.4594 60.484C12.7992 60.484 13.0746 60.0245 13.0746 59.4577C13.0746 58.8908 12.7992 58.4313 12.4594 58.4313C12.1197 58.4313 11.8442 58.8908 11.8442 59.4577C11.8442 60.0245 12.1197 60.484 12.4594 60.484Z" fill="white"/>
<path opacity="0.4" d="M12.4594 56.2075C12.7992 56.2075 13.0746 55.748 13.0746 55.1811C13.0746 54.6143 12.7992 54.1547 12.4594 54.1547C12.1197 54.1547 11.8442 54.6143 11.8442 55.1811C11.8442 55.748 12.1197 56.2075 12.4594 56.2075Z" fill="white"/>
<path opacity="0.4" d="M12.4594 51.9309C12.7992 51.9309 13.0746 51.4714 13.0746 50.9045C13.0746 50.3377 12.7992 49.8782 12.4594 49.8782C12.1197 49.8782 11.8442 50.3377 11.8442 50.9045C11.8442 51.4714 12.1197 51.9309 12.4594 51.9309Z" fill="white"/>
</g>
<path d="M60.9071 6.74229H20.0407C19.84 6.74263 19.6476 6.87582 19.5056 7.11261C19.3637 7.3494 19.2839 7.67047 19.2837 8.00534V66.3086C19.2839 66.6435 19.3637 66.9646 19.5056 67.2014C19.6476 67.4382 19.84 67.5713 20.0407 67.5717H60.9071C61.1078 67.5713 61.3002 67.4382 61.4422 67.2014C61.5841 66.9646 61.6639 66.6435 61.6641 66.3086V8.00534C61.6639 7.67046 61.5841 7.3494 61.4422 7.1126C61.3002 6.87581 61.1078 6.74263 60.9071 6.74229ZM61.3607 66.3086C61.3607 66.5096 61.3129 66.7023 61.2279 66.8446C61.1429 66.9869 61.0275 67.0672 60.9071 67.0679H20.0407C19.9202 67.0676 19.8047 66.9874 19.7196 66.845C19.6346 66.7026 19.5869 66.5097 19.5871 66.3086V8.00534C19.5869 7.80429 19.6346 7.61135 19.7196 7.46897C19.8047 7.32658 19.9202 7.24641 20.0407 7.24609H60.9071C61.0275 7.24681 61.1429 7.32711 61.2279 7.46941C61.3129 7.6117 61.3607 7.80441 61.3607 8.00534V66.3086Z" fill="#3F3D56"/>
<path d="M29.4734 57.2048C29.4734 57.2947 29.472 57.3845 29.4692 57.4721C29.428 58.7879 29.0857 60.0271 28.5129 60.9341C27.9401 61.8412 27.1805 62.3468 26.3908 62.3468C25.6011 62.3468 24.8415 61.8412 24.2687 60.9341C23.6959 60.0271 23.3536 58.7879 23.3124 57.4721C23.3095 57.3845 23.3081 57.2947 23.3081 57.2048C23.3079 56.5291 23.3874 55.8599 23.5422 55.2356C23.697 54.6112 23.924 54.0438 24.2103 53.5659C24.4966 53.0879 24.8365 52.7088 25.2106 52.4501C25.5848 52.1915 25.9858 52.0583 26.3908 52.0583C26.7958 52.0583 27.1968 52.1915 27.5709 52.4501C27.945 52.7088 28.285 53.0879 28.5712 53.5659C28.8575 54.0438 29.0845 54.6112 29.2393 55.2356C29.3942 55.8599 29.4737 56.5291 29.4734 57.2048Z" fill="white"/>
<path d="M57.7315 53.7752H33.5097C33.3735 53.7756 33.243 53.866 33.1468 54.0268C33.0506 54.1876 32.9966 54.4054 32.9966 54.6326C32.9966 54.8598 33.0506 55.0777 33.1468 55.2384C33.243 55.3992 33.3735 55.4897 33.5097 55.49H57.7315C57.8677 55.4897 57.9982 55.3992 58.0944 55.2384C58.1906 55.0777 58.2446 54.8598 58.2446 54.6326C58.2446 54.4054 58.1906 54.1876 58.0944 54.0268C57.9982 53.866 57.8677 53.7756 57.7315 53.7752V53.7752Z" fill="#3F3D56"/>
<path d="M43.9323 58.9196H33.5098C33.3737 58.9196 33.2431 59.0098 33.1469 59.1704C33.0506 59.331 32.9966 59.5487 32.9966 59.7758C32.9966 60.0029 33.0506 60.2207 33.1469 60.3812C33.2431 60.5418 33.3737 60.632 33.5098 60.632H43.9323C44.0684 60.632 44.1989 60.5418 44.2951 60.3812C44.3914 60.2207 44.4455 60.0029 44.4455 59.7758C44.4455 59.5487 44.3914 59.331 44.2951 59.1704C44.1989 59.0098 44.0684 58.9196 43.9323 58.9196Z" fill="white"/>
<path d="M70.6161 47.7202H29.7499C29.4724 47.7196 29.2063 47.5354 29.01 47.208C28.8138 46.8805 28.7034 46.4366 28.7031 45.9735V16.0516C28.7034 15.5885 28.8138 15.1446 29.0101 14.8171C29.2063 14.4897 29.4724 14.3055 29.7499 14.305H70.6161C70.8936 14.3055 71.1597 14.4897 71.3559 14.8171C71.5522 15.1446 71.6626 15.5885 71.6629 16.0516V45.9735C71.6626 46.4365 71.5522 46.8805 71.356 47.208C71.1597 47.5354 70.8936 47.7196 70.6161 47.7202V47.7202ZM29.7499 14.9179C29.5698 14.9182 29.3971 15.0378 29.2697 15.2503C29.1423 15.4628 29.0707 15.751 29.0705 16.0516V45.9735C29.0707 46.274 29.1423 46.5622 29.2697 46.7748C29.3971 46.9873 29.5698 47.1069 29.7499 47.1073H70.6161C70.7962 47.1069 70.9689 46.9873 71.0963 46.7748C71.2237 46.5622 71.2953 46.274 71.2955 45.9735V16.0516C71.2953 15.751 71.2237 15.4628 71.0963 15.2503C70.9689 15.0378 70.7962 14.9182 70.6161 14.9179H29.7499Z" fill="white"/>
<path d="M38.0724 25.2185C37.9361 25.2185 37.8054 25.3088 37.7091 25.4695C37.6127 25.6303 37.5586 25.8483 37.5586 26.0757C37.5586 26.303 37.6127 26.5211 37.7091 26.6818C37.8054 26.8426 37.9361 26.9329 38.0724 26.9329H62.2937C62.43 26.9329 62.5607 26.8426 62.657 26.6818C62.7534 26.5211 62.8075 26.303 62.8075 26.0757C62.8075 25.8483 62.7534 25.6303 62.657 25.4695C62.5607 25.3088 62.43 25.2185 62.2937 25.2185H38.0724Z" fill="white"/>
<path d="M38.0724 30.1855C37.9361 30.1855 37.8054 30.2758 37.7091 30.4365C37.6127 30.5973 37.5586 30.8153 37.5586 31.0427C37.5586 31.27 37.6127 31.4881 37.7091 31.6488C37.8054 31.8096 37.9361 31.8999 38.0724 31.8999H62.2937C62.4298 31.8996 62.5603 31.8091 62.6565 31.6484C62.7527 31.4876 62.8067 31.2698 62.8067 31.0427C62.8067 30.8156 62.7527 30.5977 62.6565 30.437C62.5603 30.2763 62.4298 30.1858 62.2937 30.1855H38.0724Z" fill="white"/>
<path d="M38.0724 35.0923C37.9361 35.0923 37.8054 35.1826 37.7091 35.3433C37.6127 35.5041 37.5586 35.7221 37.5586 35.9495C37.5586 36.1768 37.6127 36.3949 37.7091 36.5556C37.8054 36.7164 37.9361 36.8067 38.0724 36.8067H48.4949C48.631 36.8063 48.7615 36.7159 48.8577 36.5551C48.9539 36.3944 49.0079 36.1766 49.0079 35.9495C49.0079 35.7224 48.9539 35.5045 48.8577 35.3438C48.7615 35.1831 48.631 35.0926 48.4949 35.0923H38.0724Z" fill="white"/>
<path d="M77.3536 60.3973L73.2492 50.7325L74.5779 51.1944C74.6015 51.2026 74.6259 51.203 74.6496 51.1955C74.6733 51.188 74.6959 51.1728 74.7161 51.1507C74.7363 51.1286 74.7537 51.1001 74.7672 51.0668C74.7808 51.0335 74.7904 50.9961 74.7953 50.9567C74.8002 50.9173 74.8004 50.8766 74.7959 50.837C74.7914 50.7975 74.7823 50.7598 74.7691 50.7261C74.7558 50.6924 74.7388 50.6634 74.7188 50.6407C74.6989 50.618 74.6764 50.6021 74.6528 50.5939L72.6727 49.9062L72.4055 53.2507C72.4022 53.2907 72.4037 53.3313 72.4099 53.3703C72.4161 53.4094 72.4268 53.4459 72.4415 53.478C72.4561 53.5101 72.4744 53.5371 72.4954 53.5573C72.5163 53.5776 72.5394 53.5907 72.5633 53.5961C72.5873 53.6014 72.6117 53.5988 72.6351 53.5884C72.6584 53.578 72.6803 53.56 72.6995 53.5354C72.7187 53.5108 72.7348 53.4802 72.7469 53.4452C72.759 53.4103 72.7668 53.3717 72.7699 53.3317L72.9491 51.0858L77.0539 60.7516C77.0679 60.7844 77.0856 60.8124 77.106 60.8338C77.1264 60.8552 77.1491 60.8697 77.1729 60.8765C77.1967 60.8832 77.221 60.8821 77.2445 60.8732C77.268 60.8643 77.2903 60.8477 77.31 60.8244C77.3296 60.8012 77.3464 60.7716 77.3592 60.7376C77.372 60.7035 77.3807 60.6656 77.3848 60.6259C77.3889 60.5863 77.3882 60.5457 77.3828 60.5064C77.3775 60.4672 77.3675 60.4301 77.3536 60.3973V60.3973Z" fill="white"/>
<path d="M55.0613 88.5266H25.8869C25.7437 88.5263 25.6064 88.4313 25.5051 88.2623C25.4038 88.0933 25.3468 87.8642 25.3467 87.6252V75.5509C25.3468 75.3119 25.4038 75.0828 25.5051 74.9138C25.6064 74.7449 25.7437 74.6498 25.8869 74.6495H55.0613C55.2045 74.6498 55.3418 74.7449 55.4431 74.9138C55.5444 75.0828 55.6014 75.3119 55.6015 75.5509V87.6252C55.6014 87.8642 55.5444 88.0933 55.4431 88.2623C55.3418 88.4313 55.2045 88.5263 55.0613 88.5266V88.5266ZM25.8869 75.0101C25.801 75.0102 25.7186 75.0673 25.6578 75.1687C25.5971 75.2701 25.5629 75.4075 25.5628 75.5509V87.6252C25.5629 87.7686 25.5971 87.9061 25.6578 88.0075C25.7186 88.1089 25.801 88.1659 25.8869 88.1661H55.0613C55.1472 88.1659 55.2296 88.1089 55.2904 88.0075C55.3512 87.9061 55.3854 87.7686 55.3854 87.6252V75.5509C55.3854 75.4075 55.3512 75.2701 55.2904 75.1687C55.2296 75.0673 55.1472 75.0102 55.0613 75.0101H25.8869Z" fill="#3F3D56"/>
<path d="M30.42 84.7966C31.6354 84.7966 32.6207 83.1527 32.6207 81.1248C32.6207 79.0969 31.6354 77.453 30.42 77.453C29.2045 77.453 28.2192 79.0969 28.2192 81.1248C28.2192 83.1527 29.2045 84.7966 30.42 84.7966Z" fill="white"/>
<path d="M35.5022 78.6769C35.454 78.6768 35.4062 78.6925 35.3617 78.7232C35.3171 78.7539 35.2766 78.7989 35.2424 78.8558C35.2083 78.9126 35.1812 78.9801 35.1627 79.0544C35.1443 79.1288 35.1348 79.2084 35.1348 79.2889C35.1348 79.3693 35.1443 79.449 35.1627 79.5233C35.1812 79.5976 35.2083 79.6651 35.2424 79.722C35.2766 79.7788 35.3171 79.8239 35.3617 79.8546C35.4062 79.8853 35.454 79.901 35.5022 79.9008H52.7939C52.8911 79.9008 52.9844 79.8363 53.0532 79.7216C53.122 79.6068 53.1606 79.4512 53.1606 79.2889C53.1606 79.1266 53.122 78.9709 53.0532 78.8562C52.9844 78.7414 52.8911 78.6769 52.7939 78.6769H35.5022Z" fill="white"/>
<path d="M35.5022 82.3487C35.454 82.3486 35.4062 82.3643 35.3617 82.395C35.3171 82.4257 35.2766 82.4707 35.2424 82.5276C35.2083 82.5844 35.1812 82.6519 35.1627 82.7262C35.1443 82.8006 35.1348 82.8802 35.1348 82.9607C35.1348 83.0411 35.1443 83.1208 35.1627 83.1951C35.1812 83.2695 35.2083 83.337 35.2424 83.3938C35.2766 83.4506 35.3171 83.4957 35.3617 83.5264C35.4062 83.5571 35.454 83.5728 35.5022 83.5726H42.9429C43.0401 83.5726 43.1334 83.5082 43.2022 83.3934C43.271 83.2787 43.3097 83.123 43.3097 82.9607C43.3097 82.7984 43.271 82.6427 43.2022 82.528C43.1334 82.4132 43.0401 82.3487 42.9429 82.3487H35.5022Z" fill="white"/>
<path d="M93.5539 45.5086H106.52C106.664 45.5089 106.801 45.604 106.902 45.7729C107.003 45.9419 107.06 46.171 107.061 46.41V68.9405C107.06 69.1795 107.003 69.4086 106.902 69.5776C106.801 69.7466 106.664 69.8416 106.52 69.8419H93.5539C93.4107 69.8416 93.2734 69.7466 93.1721 69.5776C93.0708 69.4086 93.0138 69.1795 93.0137 68.9405V46.41C93.0138 46.171 93.0708 45.9419 93.1721 45.7729C93.2734 45.604 93.4107 45.5089 93.5539 45.5086V45.5086ZM106.52 69.4814C106.606 69.4812 106.689 69.4242 106.749 69.3228C106.81 69.2214 106.844 69.0839 106.844 68.9405V46.41C106.844 46.2666 106.81 46.1292 106.749 46.0278C106.689 45.9264 106.606 45.8693 106.52 45.8692H93.5539C93.468 45.8693 93.3856 45.9264 93.3248 46.0278C93.2641 46.1292 93.2299 46.2666 93.2298 46.41V68.9405C93.2299 69.0839 93.2641 69.2214 93.3248 69.3228C93.3856 69.4242 93.468 69.4812 93.5539 69.4814H106.52Z" fill="#3F3D56"/>
<path d="M103.758 65.1957C103.855 65.1957 103.948 65.1313 104.017 65.0165C104.086 64.9017 104.124 64.7461 104.124 64.5838C104.124 64.4215 104.086 64.2658 104.017 64.151C103.948 64.0363 103.855 63.9718 103.758 63.9718H96.317C96.2197 63.9718 96.1264 64.0363 96.0576 64.151C95.9888 64.2658 95.9502 64.4215 95.9502 64.5838C95.9502 64.7461 95.9888 64.9017 96.0576 65.0165C96.1264 65.1313 96.2197 65.1957 96.317 65.1957H103.758Z" fill="white"/>
<path d="M103.758 61.5901C103.806 61.5903 103.854 61.5746 103.898 61.5439C103.943 61.5132 103.983 61.4681 104.018 61.4113C104.052 61.3545 104.079 61.2869 104.097 61.2126C104.116 61.1383 104.125 61.0586 104.125 60.9782C104.125 60.8977 104.116 60.818 104.097 60.7437C104.079 60.6694 104.052 60.6019 104.018 60.5451C103.983 60.4882 103.943 60.4432 103.898 60.4125C103.854 60.3818 103.806 60.3661 103.758 60.3662H96.3172C96.2689 60.3661 96.2212 60.3818 96.1766 60.4125C96.132 60.4432 96.0915 60.4882 96.0574 60.5451C96.0232 60.6019 95.9962 60.6694 95.9777 60.7437C95.9592 60.818 95.9497 60.8977 95.9497 60.9782C95.9497 61.0586 95.9592 61.1383 95.9777 61.2126C95.9962 61.2869 96.0232 61.3545 96.0574 61.4113C96.0915 61.4681 96.132 61.5132 96.1766 61.5439C96.2212 61.5746 96.2689 61.5903 96.3172 61.5901H103.758Z" fill="white"/>
<path d="M100.037 50.1548C100.494 50.1548 100.94 50.3808 101.32 50.804C101.7 51.2273 101.996 51.8289 102.17 52.5328C102.345 53.2366 102.391 54.0112 102.302 54.7584C102.213 55.5056 101.993 56.192 101.67 56.7307C101.347 57.2694 100.936 57.6363 100.488 57.7849C100.04 57.9336 99.5756 57.8573 99.1538 57.5657C98.7319 57.2742 98.3713 56.7804 98.1176 56.147C97.8639 55.5135 97.7285 54.7688 97.7285 54.0069C97.7292 52.9856 97.9727 52.0065 98.4055 51.2843C98.8383 50.5622 99.4252 50.156 100.037 50.1548Z" fill="white"/>
</g>
<defs>
<clipPath id="clip0">
<rect width="120" height="100" fill="white"/>
</clipPath>
</defs>
</svg>
