<svg width="360" height="270" viewBox="0 0 360 270" fill="none" xmlns="http://www.w3.org/2000/svg">
<g clip-path="url(#clip0)">
<path opacity="0.1" d="M339.557 153.222C327.502 169.996 332.185 194.5 339.846 214.125C342.411 220.696 345.312 227.647 344.23 234.694C342.906 243.31 335.879 249.611 328.501 252.95C315.052 259.037 298.957 257.586 286.599 249.173C275.92 241.902 268.271 230.078 257.409 223.138C239.232 211.524 216.095 215.91 196.356 223.91C182.392 229.57 167.125 236.931 153.249 231.016C143.485 226.854 136.736 216.724 133.058 205.986C131.283 200.801 129.994 195.19 126.604 191.08C124.588 188.637 121.958 186.903 119.263 185.441C94.6573 172.09 63.58 179.24 39.6804 164.431C23.5394 154.43 13.2059 135.564 8.63065 115.892C4.05534 96.2206 4.58826 75.5934 5.74991 55.3342C6.57543 40.9369 8.0566 25.5663 16.4626 14.4545C25.355 2.69978 40.6162 -1.67112 54.4103 0.563086C68.2044 2.7973 80.7076 10.7603 91.7074 20.1394C105.455 31.8613 118.204 46.4578 135.083 51.2061C146.577 54.4397 158.669 52.6709 170.524 52.0584C190.343 51.0344 210.17 53.3116 229.88 55.8052C248.748 58.1923 267.753 60.8196 285.728 67.5369C298.449 72.2905 308.647 80.9195 320.659 86.9478C328.488 90.8773 337.026 91.9623 344.439 96.9673C353.571 103.133 361.942 113.856 359.603 126.405C357.378 138.335 345.956 144.319 339.557 153.222Z" fill="#F7D022"/>
<path d="M235.282 51.4447C235.282 51.4447 215.903 45.1638 214.623 63.0291C213.343 80.8944 219.744 110.32 214.623 119.778C209.501 129.236 191.226 142.901 200.844 144.125C210.462 145.35 215.263 147.101 212.382 153.406C209.501 159.712 194.457 165.667 197.658 170.221C200.859 174.775 202.459 180.38 199.259 185.984C196.058 191.589 184.854 195.092 186.775 198.945C188.696 202.799 195.738 204.901 192.217 209.104C188.696 213.308 178.488 222.87 182.472 222.818" stroke="#535461" stroke-width="3" stroke-miterlimit="10"/>
<path d="M263.591 39.5422H222.724C220.431 39.5422 218.572 41.5763 218.572 44.0855V59.9544C218.572 62.4636 220.431 64.4977 222.724 64.4977H263.591C265.884 64.4977 267.742 62.4636 267.742 59.9544V44.0855C267.742 41.5763 265.884 39.5422 263.591 39.5422Z" fill="#F7D022"/>
<path opacity="0.1" d="M263.823 60.6676H222.492V61.1355H263.823V60.6676Z" fill="black"/>
<path opacity="0.3" d="M263.823 43.4415H222.492V60.5984H263.823V43.4415Z" fill="black"/>
<path opacity="0.1" d="M232.112 58.6169C235.26 58.6169 237.813 55.8237 237.813 52.378C237.813 48.9324 235.26 46.1392 232.112 46.1392C228.963 46.1392 226.411 48.9324 226.411 52.378C226.411 55.8237 228.963 58.6169 232.112 58.6169Z" fill="black"/>
<path opacity="0.1" d="M254.203 58.6169C257.351 58.6169 259.904 55.8237 259.904 52.378C259.904 48.9324 257.351 46.1392 254.203 46.1392C251.054 46.1392 248.502 48.9324 248.502 52.378C248.502 55.8237 251.054 58.6169 254.203 58.6169Z" fill="black"/>
<path d="M247.432 64.4969H238.881V69.9573H247.432V64.4969Z" fill="#F7D022"/>
<path d="M260.972 68.397H225.342V99.5913H260.972V68.397Z" fill="#F7D022"/>
<path d="M261.685 105.83H224.629V109.729H261.685V105.83Z" fill="#F7D022"/>
<path d="M230.687 119.088V123.767V130.786V134.685V137.025H237.1V134.685V130.786V123.767V119.088V113.629H230.687V119.088Z" fill="#F7D022"/>
<path d="M249.927 113.629V119.088V123.767V130.786V134.685V137.025H256.341V134.685V130.786V123.767V119.088V113.629H249.927Z" fill="#F7D022"/>
<path d="M220.489 75.416V82.6291C218.729 82.9655 217.089 83.8308 215.752 85.1283C214.512 86.3849 213.547 87.9321 212.931 89.6541C212.145 91.8649 211.677 94.1953 211.542 96.5629C211.341 99.6585 211.473 102.769 211.937 105.831H204.811C204.514 102.106 204.576 98.3565 204.997 94.6455C205.333 91.5781 206.105 88.5869 207.284 85.78C209.349 81.0411 212.285 78.4703 214.865 77.0738C216.613 76.0958 218.529 75.531 220.489 75.416Z" fill="#F7D022"/>
<path opacity="0.3" d="M237.1 113.629H230.687V119.088H237.1V113.629Z" fill="black"/>
<path opacity="0.3" d="M237.1 123.767H230.687V130.786H237.1V123.767Z" fill="black"/>
<path opacity="0.3" d="M237.1 134.685H230.687V137.025H237.1V134.685Z" fill="black"/>
<path opacity="0.3" d="M256.34 113.629H249.927V119.088H256.34V113.629Z" fill="black"/>
<path opacity="0.3" d="M256.34 123.767H249.927V130.786H256.34V123.767Z" fill="black"/>
<path opacity="0.3" d="M256.34 134.685H249.927V137.025H256.34V134.685Z" fill="black"/>
<path opacity="0.3" d="M220.489 75.416V82.6291C218.729 82.9655 217.088 83.8308 215.751 85.1283L214.865 77.0738C216.613 76.0958 218.529 75.531 220.489 75.416Z" fill="black"/>
<path opacity="0.3" d="M212.931 89.6541C212.145 91.8648 211.677 94.1953 211.542 96.5628L204.997 94.6454C205.333 91.578 206.105 88.5868 207.284 85.7799L212.931 89.6541Z" fill="black"/>
<path d="M265.826 75.416V82.6291C267.586 82.9655 269.226 83.8308 270.563 85.1283C271.803 86.3849 272.767 87.9321 273.384 89.6541C274.169 91.8649 274.638 94.1953 274.772 96.5629C274.974 99.6585 274.842 102.769 274.378 105.831H281.504C281.801 102.106 281.739 98.3565 281.318 94.6455C280.982 91.5781 280.21 88.5869 279.031 85.78C276.966 81.0411 274.03 78.4703 271.45 77.0738C269.702 76.0958 267.786 75.531 265.826 75.416Z" fill="#F7D022"/>
<path opacity="0.3" d="M265.826 75.416V82.6291C267.586 82.9655 269.226 83.8308 270.563 85.1283L271.45 77.0738C269.702 76.0958 267.786 75.531 265.826 75.416Z" fill="black"/>
<path opacity="0.3" d="M273.384 89.6541C274.169 91.8648 274.638 94.1953 274.772 96.5628L281.318 94.6454C280.981 91.578 280.21 88.5868 279.031 85.7799L273.384 89.6541Z" fill="black"/>
<path opacity="0.1" d="M247.432 64.4969H238.881V65.1432H247.432V64.4969Z" fill="black"/>
<path opacity="0.1" d="M261.606 73.9551V87.0152C261.179 86.5117 260.943 85.8505 260.943 85.1641V75.8044C260.943 75.1186 261.179 74.4579 261.606 73.9551Z" fill="black"/>
<path opacity="0.1" d="M225.469 74.8162V84.593C225.426 85.2111 225.192 85.7948 224.804 86.2472V73.162C225.192 73.6144 225.426 74.1981 225.469 74.8162Z" fill="black"/>
<path opacity="0.1" d="M259.191 99.5919H227.124V100.054H259.191V99.5919Z" fill="black"/>
<path opacity="0.1" d="M223.897 113.324H208.22V113.682H223.897V113.324Z" fill="black"/>
<path opacity="0.1" d="M259.191 109.73H243.514V110.088H259.191V109.73Z" fill="black"/>
<path d="M230.614 16.4476H228.16V39.5423H230.614V16.4476Z" fill="#F7D022"/>
<path d="M258.751 16.4476H256.297V39.5423H258.751V16.4476Z" fill="#F7D022"/>
<path opacity="0.1" d="M229.305 19.67C230.841 19.67 232.086 18.3074 232.086 16.6265C232.086 14.9456 230.841 13.583 229.305 13.583C227.769 13.583 226.524 14.9456 226.524 16.6265C226.524 18.3074 227.769 19.67 229.305 19.67Z" fill="black"/>
<path d="M229.305 19.491C230.841 19.491 232.086 18.1284 232.086 16.4475C232.086 14.7667 230.841 13.4041 229.305 13.4041C227.769 13.4041 226.524 14.7667 226.524 16.4475C226.524 18.1284 227.769 19.491 229.305 19.491Z" fill="#F7D022"/>
<path opacity="0.1" d="M257.606 19.67C259.142 19.67 260.387 18.3074 260.387 16.6265C260.387 14.9456 259.142 13.583 257.606 13.583C256.07 13.583 254.825 14.9456 254.825 16.6265C254.825 18.3074 256.07 19.67 257.606 19.67Z" fill="black"/>
<path d="M257.606 19.491C259.142 19.491 260.387 18.1284 260.387 16.4475C260.387 14.7667 259.142 13.4041 257.606 13.4041C256.07 13.4041 254.825 14.7667 254.825 16.4475C254.825 18.1284 256.07 19.491 257.606 19.491Z" fill="#F7D022"/>
<path opacity="0.5" d="M199.739 150.252C198.645 151.451 198.396 153.098 198.007 154.624C196.897 158.983 194.284 163.004 190.642 165.957C187.975 168.121 184.398 170.516 185.031 173.743C185.182 174.515 185.581 175.234 185.686 176.012C186.14 179.379 181.438 181.152 179.617 184.098C178.261 186.293 178.624 189.011 179.027 191.511C179.52 194.57 180.117 197.834 182.41 200.087C183.029 200.695 183.767 201.222 184.199 201.955C185.166 203.597 184.325 205.75 185.205 207.433C186.378 209.679 190.071 209.776 192.214 208.262C194.358 206.748 195.348 204.259 196.298 201.925C198.866 195.617 202.022 189.288 207.357 184.695C212.473 180.291 219.915 176.874 220.793 170.464C221.169 167.715 220.216 164.702 221.672 162.281C222.36 161.136 223.511 160.288 224.29 159.195C226.611 155.937 224.883 151.224 221.484 148.911C216.353 145.418 204.202 145.362 199.739 150.252Z" fill="#DEE3F3"/>
<path d="M289.676 33.138L267.067 40.8689L267.927 43.8781L290.535 36.1473L289.676 33.138Z" fill="#F7D022"/>
<path d="M299.742 150.259C299.742 150.259 287.347 147.546 284.042 143.929C280.736 140.312 265.862 133.981 264.209 138.503C262.557 143.025 241.898 158.398 255.946 161.111C269.994 163.824 289 164.729 293.131 162.92C297.263 161.111 299.742 150.259 299.742 150.259Z" fill="#A8A8A8"/>
<path opacity="0.2" d="M255.946 159.431C269.994 162.144 289 163.049 293.131 161.24C296.278 159.863 298.464 153.245 299.329 150.165C299.591 150.226 299.742 150.259 299.742 150.259C299.742 150.259 297.263 161.111 293.131 162.92C289 164.729 269.994 163.824 255.946 161.111C251.891 160.328 250.731 158.489 251.168 156.162C251.515 157.68 252.928 158.849 255.946 159.431Z" fill="black"/>
<path d="M327.269 31.9954C327.048 31.3931 326.695 30.859 326.243 30.4396C322.917 27.122 317.537 28.1277 313.408 26.1012C312.456 25.6344 311.48 24.9867 310.447 25.1642C309.005 25.412 307.664 27.2091 306.406 26.4118L306.496 26.712C306.466 26.6958 306.436 26.6797 306.406 26.6607C306.714 27.6884 307.023 28.7162 307.331 29.7439C307.686 30.9276 308.061 32.1458 308.751 33.1315C307.73 34.1062 306.948 35.3455 306.478 36.7362C306.007 38.1268 305.863 39.6244 306.058 41.0918C306.253 42.5593 306.781 43.9499 307.594 45.1363C308.407 46.3228 309.479 47.2672 310.711 47.8833C310.755 47.9864 310.798 48.0901 310.84 48.1948C310.879 48.2141 310.92 48.2308 310.959 48.2495C311.233 48.939 311.438 49.6591 311.569 50.3972C310.499 50.5591 308.633 51.8544 306.797 53.7673L303.127 53.6299C300.756 53.5433 298.461 52.6895 296.533 51.1764L285.557 42.541C284.775 42.625 284.038 42.9816 283.454 43.5582C282.091 42.0041 280.935 40.3805 281.033 39.4295C281.033 39.4295 275.929 28.975 274.073 34.2022C272.217 39.4295 277.553 44.9057 277.553 44.9057L280.938 49.7049C280.805 50.5461 280.72 51.3958 280.685 52.2487C284.861 57.476 299.478 62.2054 299.478 62.2054L301.757 62.3262C301.761 62.3719 301.765 62.4106 301.769 62.4487C301.629 63.1032 301.561 63.7735 301.566 64.4457C301.567 64.5422 301.568 64.6434 301.57 64.7445C301.569 64.8107 301.565 64.8774 301.566 64.9435C301.682 73.2822 302.726 98.7962 302.726 98.7962C302.929 98.6971 303.139 98.6065 303.352 98.5211L303.19 100.788C303.19 100.788 293.445 102.281 286.253 105.268C279.061 108.255 278.829 111.74 278.829 111.74V142.489C276.774 143.643 273.533 145.16 271.869 144.348C270.063 143.467 269.071 144.207 268.892 144.98V144.98C268.855 145.132 268.853 145.291 268.884 145.444L268.886 145.454C268.902 145.522 268.925 145.589 268.955 145.651L268.962 145.665C268.996 145.73 269.037 145.789 269.085 145.842C269.781 146.588 284.861 153.06 288.341 152.064C288.449 152.034 288.554 151.995 288.657 151.948C288.69 151.933 288.72 151.913 288.752 151.896C288.817 151.863 288.882 151.831 288.942 151.792C288.978 151.769 289.01 151.741 289.044 151.715C289.096 151.677 289.149 151.64 289.198 151.598C289.232 151.568 289.262 151.535 289.294 151.503C289.339 151.459 289.385 151.417 289.427 151.37C289.457 151.335 289.484 151.297 289.513 151.26C289.552 151.211 289.593 151.162 289.629 151.109C289.655 151.071 289.679 151.03 289.704 150.99C289.739 150.934 289.775 150.879 289.807 150.82C289.829 150.779 289.849 150.736 289.87 150.694C289.901 150.631 289.933 150.569 289.961 150.504C289.979 150.462 289.996 150.418 290.013 150.374C290.04 150.305 290.068 150.236 290.093 150.164C290.107 150.122 290.12 150.078 290.134 150.035C290.158 149.959 290.182 149.882 290.204 149.804C290.215 149.763 290.225 149.721 290.235 149.679C290.256 149.595 290.277 149.511 290.295 149.425C290.303 149.386 290.31 149.347 290.318 149.309C290.336 149.217 290.353 149.124 290.368 149.031C290.373 148.996 290.378 148.961 290.383 148.926C290.398 148.826 290.412 148.725 290.423 148.623C290.427 148.594 290.429 148.564 290.433 148.535C290.444 148.426 290.454 148.316 290.463 148.206C290.465 148.183 290.466 148.16 290.468 148.137C290.476 148.019 290.483 147.9 290.488 147.782C290.488 147.766 290.489 147.75 290.489 147.734C290.494 147.608 290.498 147.481 290.499 147.354L290.499 147.33C290.494 145.845 290.344 144.365 290.051 142.915L290.893 116.718C295.45 116.796 300.007 116.612 304.546 116.168L305.046 128.666C305.046 128.666 305.046 136.881 307.598 140.614C309.782 143.81 312.305 157.942 312.988 161.951C312.05 163.908 310.257 166.327 307.134 166.253C307.134 166.253 301.257 165.697 301.589 167.466L301.59 167.469C301.599 167.515 301.611 167.56 301.627 167.604L301.63 167.616C301.649 167.667 301.67 167.716 301.694 167.764L301.699 167.774C301.723 167.82 301.75 167.867 301.781 167.915C301.787 167.925 301.793 167.935 301.799 167.944C301.834 167.997 301.871 168.05 301.914 168.105L301.924 168.118C301.964 168.168 302.007 168.22 302.053 168.272C302.066 168.287 302.079 168.301 302.092 168.316C302.145 168.374 302.2 168.432 302.262 168.493C305.278 171.48 322.91 171.978 322.91 171.978L322.91 171.966L322.91 171.959L322.91 171.921L322.91 171.911C322.909 171.892 322.909 171.868 322.909 171.841L322.909 171.831C322.898 170.967 322.794 166.431 321.737 163.017H321.982C321.982 163.017 319.43 137.876 317.342 134.889C317.342 134.889 316.787 121.633 318.039 113.325C318.116 113.294 318.194 113.264 318.27 113.233C324.119 110.843 324.534 104.955 323.931 100.63C325.038 101.019 325.694 101.285 325.694 101.285C325.694 101.285 325.674 101.097 325.636 100.764C325.673 100.779 325.694 100.788 325.694 100.788C325.694 100.788 325.582 99.9971 325.399 98.7632C324.981 95.3714 324.17 89.4438 323.307 86.6454C323.167 86.0302 323.034 85.5044 322.91 85.1058C322.412 83.4242 322.069 81.6919 321.888 79.9352C321.652 77.6588 321.532 75.3697 321.53 73.0786C321.549 70.017 321.763 66.9606 322.171 63.9317C322.526 61.2862 322.844 58.2774 322.818 56.1764C322.842 55.4446 322.795 54.7121 322.678 53.9912C322.368 52.4399 321.001 51.4312 319.579 50.7894C319.488 50.7481 319.394 50.7141 319.301 50.6757C319.336 50.0877 319.381 49.4215 319.44 48.7191C319.61 48.8482 319.803 48.9381 320.007 48.9831C320.21 49.0282 320.419 49.0275 320.622 48.9811C321.234 48.8346 321.672 48.2764 322.063 47.7513C324.119 44.9875 326.23 42.1067 327.02 38.6734C327.336 37.1399 327.482 35.5705 327.455 33.999C327.455 33.9131 327.455 33.827 327.455 33.7406C327.486 33.1515 327.423 32.5609 327.269 31.9954Z" fill="url(#paint0_linear)"/>
<path d="M308.547 45.4682C308.547 45.4682 311.662 50.5822 310.995 53.0174C310.327 55.4526 318.338 53.9915 318.338 53.9915C318.338 53.9915 318.561 44.4941 320.118 42.3024C321.676 40.1107 308.547 45.4682 308.547 45.4682Z" fill="#F7C4A7"/>
<path d="M287.964 48.7558C287.964 48.7558 281.511 42.9113 281.733 40.7196C281.733 40.7196 276.838 30.4917 275.058 35.6056C273.278 40.7196 278.396 46.0771 278.396 46.0771L284.626 55.0874L287.964 48.7558Z" fill="#F7C4A7"/>
<path d="M281.4 140.442C281.4 140.442 275.391 144.582 272.944 143.364C270.496 142.146 269.606 144.095 270.273 144.825C270.941 145.556 285.405 151.887 288.743 150.913C292.081 149.939 290.383 141.962 290.383 141.962L281.4 140.442Z" fill="#535461"/>
<path d="M313.22 158.219C313.22 158.219 311.774 164.916 306.767 164.794C306.767 164.794 299.201 164.063 302.094 166.986C304.987 169.908 321.898 170.395 321.898 170.395C321.898 170.395 321.898 160.411 318.783 158.219C315.668 156.027 313.22 158.219 313.22 158.219Z" fill="#535461"/>
<path d="M304.097 110.976L304.764 128.022C304.764 128.022 304.764 136.058 307.212 139.711C309.66 143.364 312.552 161.628 312.552 161.628H321.008C321.008 161.628 318.561 137.032 316.558 134.11C316.558 134.11 315.668 112.437 318.783 107.566L304.097 110.976Z" fill="#575988"/>
<path opacity="0.1" d="M304.097 110.976L304.764 128.022C304.764 128.022 304.764 136.058 307.212 139.711C309.66 143.364 312.552 161.628 312.552 161.628H321.008C321.008 161.628 318.561 137.032 316.558 134.11C316.558 134.11 315.668 112.437 318.783 107.566L304.097 110.976Z" fill="black"/>
<path d="M321.676 95.6338C321.676 95.6338 326.794 109.027 317.448 112.924C308.102 116.82 291.191 116.333 291.191 116.333L290.3 144.582C290.3 144.582 279.842 146.043 279.619 142.39V111.463C279.619 111.463 279.842 108.053 286.74 105.131C293.638 102.209 302.984 100.748 302.984 100.748L303.429 94.4161L321.676 95.6338Z" fill="#575988"/>
<path opacity="0.1" d="M313.476 51.5114C315.253 51.2963 317.051 51.5746 318.704 52.3203C320.068 52.9482 321.379 53.935 321.676 55.4527C322.028 57.25 321.638 61.2808 321.19 64.6907C320.474 70.0374 320.382 75.4623 320.919 80.8343C321.148 83.0714 321.465 85.0223 321.899 85.8929C323.234 88.5716 324.569 101.235 324.569 101.235C324.569 101.235 309.882 95.1467 302.539 98.7996C302.539 98.7996 301.538 73.8386 301.427 65.6806C301.34 59.3638 308.658 52.1651 311.106 51.9216C312.541 51.7789 312.05 51.6732 313.476 51.5114Z" fill="black"/>
<path d="M313.476 51.0243C315.253 50.8093 317.051 51.0875 318.704 51.8333C320.068 52.4611 321.379 53.448 321.676 54.9656C322.028 56.7629 321.638 60.7938 321.19 64.2036C320.474 69.5504 320.382 74.9753 320.919 80.3473C321.092 82.0647 321.42 83.7592 321.899 85.4058C322.9 88.6934 324.569 100.748 324.569 100.748C324.569 100.748 309.882 94.6597 302.539 98.3125C302.539 98.3125 301.538 73.3515 301.427 65.1935C301.34 58.8767 308.658 51.6781 311.106 51.4345C312.541 51.2918 312.05 51.1862 313.476 51.0243Z" fill="#E14B5A"/>
<path opacity="0.1" d="M317.448 64.463L301.649 63.4889C301.649 63.4889 300.644 55.0122 302.924 55.0993L318.561 55.6962C318.561 55.6962 321.898 60.0796 317.448 64.463Z" fill="black"/>
<path d="M317.448 63.9759L299.424 63.0018C299.424 63.0018 285.405 58.3749 281.399 53.2609C281.399 53.2609 281.622 44.2506 286.072 43.7635L296.599 52.2118C298.439 53.6887 300.643 54.5251 302.924 54.6121L318.561 55.2091C318.561 55.2091 321.898 59.5925 317.448 63.9759Z" fill="#E14B5A"/>
<path opacity="0.1" d="M318.227 46.5641C318.491 44.2548 319.448 43.4888 320.118 42.5459C321.676 40.3543 308.547 45.7117 308.547 45.7117C309.224 46.8531 309.817 48.0512 310.322 49.2948C311.37 49.8231 312.511 50.0962 313.665 50.0951C315.601 50.0951 316.842 47.8147 318.227 46.5641Z" fill="black"/>
<path d="M313.665 49.8516C318.089 49.8516 321.676 45.9265 321.676 41.0848C321.676 36.243 318.089 32.318 313.665 32.318C309.241 32.318 305.654 36.243 305.654 41.0848C305.654 45.9265 309.241 49.8516 313.665 49.8516Z" fill="#F7C4A7"/>
<path opacity="0.1" d="M308.607 34.9399C307.754 33.9202 307.344 32.5599 306.956 31.2439L306.069 28.2274C307.276 29.0075 308.562 27.2493 309.945 27.0069C310.936 26.8333 311.872 27.4669 312.785 27.9236C316.745 29.9062 321.905 28.9223 325.095 32.168C325.531 32.5807 325.869 33.103 326.079 33.69C326.228 34.2469 326.288 34.8275 326.258 35.4066C326.283 36.9436 326.143 38.4786 325.841 39.9797C325.083 43.3386 323.058 46.157 321.086 48.8609C320.711 49.3746 320.291 49.9207 319.705 50.064C318.56 50.3439 317.674 48.9894 317.23 47.8006C316.644 46.2259 316.211 44.5876 315.939 42.9132C315.87 42.197 315.692 41.4987 315.411 40.8476C314.721 39.5099 313.022 38.244 311.988 37.2078C310.972 36.1894 309.556 36.0741 308.607 34.9399Z" fill="black"/>
<path d="M308.607 34.6965C307.754 33.6768 307.344 32.3165 306.956 31.0005L306.069 27.984C307.276 28.7641 308.562 27.0059 309.945 26.7635C310.936 26.5899 311.872 27.2235 312.785 27.6802C316.745 29.6628 321.905 28.6789 325.095 31.9246C325.531 32.3373 325.869 32.8596 326.079 33.4466C326.228 34.0035 326.288 34.5841 326.258 35.1632C326.283 36.7002 326.143 38.2352 325.841 39.7363C325.083 43.0952 323.058 45.9136 321.086 48.6175C320.711 49.1312 320.291 49.6773 319.705 49.8206C318.56 50.1005 317.674 48.746 317.23 47.5572C316.644 45.9825 316.211 44.3442 315.939 42.6698C315.87 41.9536 315.692 41.2553 315.411 40.6042C314.721 39.2665 313.022 38.0006 311.988 36.9644C310.972 35.946 309.556 35.8307 308.607 34.6965Z" fill="#632652"/>
<path d="M315.779 43.6419C316.148 43.6419 316.447 42.9332 316.447 42.059C316.447 41.1848 316.148 40.4761 315.779 40.4761C315.41 40.4761 315.112 41.1848 315.112 42.059C315.112 42.9332 315.41 43.6419 315.779 43.6419Z" fill="#F7C4A7"/>
<path opacity="0.1" d="M319.784 84.3099C319.784 84.3099 319.339 85.7711 317.114 85.5275C314.889 85.284 308.436 84.797 308.436 85.5275" fill="black"/>
<path opacity="0.5" d="M302.094 166.742C301.788 166.484 301.562 166.129 301.447 165.726C301.388 166.043 301.567 166.453 302.094 166.986C304.987 169.908 321.899 170.395 321.899 170.395C321.899 170.395 321.899 170.309 321.896 170.151C321.789 170.148 304.978 169.655 302.094 166.742Z" fill="white"/>
<path opacity="0.5" d="M288.743 150.426C285.405 151.4 270.941 145.069 270.273 144.338C270.184 144.239 270.12 144.117 270.088 143.982C270.05 144.128 270.046 144.283 270.079 144.431C270.111 144.578 270.178 144.714 270.273 144.825C270.941 145.556 285.405 151.887 288.743 150.913C290.461 150.412 290.844 148.056 290.812 145.887C290.779 147.909 290.333 149.962 288.743 150.426Z" fill="white"/>
<path d="M161.806 169.09C161.025 164.339 160.547 159.534 160.373 154.71V154.71C160.22 150.738 158.947 146.914 156.729 143.764C154.511 140.615 151.457 138.293 147.986 137.119C146.722 136.693 145.328 136.295 143.791 135.938C130.306 132.804 126.21 135.54 125.744 135.9C125.352 135.114 125.01 134.299 124.723 133.46C124.7 133.375 124.679 133.288 124.657 133.202C127.326 130.087 128.952 126.075 129.27 121.819C131.519 119.323 132.833 116.312 132.833 113.07C132.833 110.281 131.86 107.664 130.157 105.398V100.998C130.157 98.4812 129.704 95.9893 128.824 93.6643C127.944 91.3393 126.654 89.2267 125.028 87.4473C123.402 85.6678 121.472 84.2562 119.348 83.2932C117.223 82.3301 114.946 81.8345 112.646 81.8345H111.226C108.927 81.8345 106.65 82.3301 104.525 83.2932C102.401 84.2562 100.47 85.6678 98.8445 87.4473C97.2185 89.2267 95.9286 91.3393 95.0486 93.6643C94.1686 95.9893 93.7157 98.4812 93.7157 100.998V105.748C92.181 107.822 91.3283 110.401 91.2948 113.07C91.2948 116.244 92.5553 119.196 94.7186 121.661C95.0143 126.073 96.715 130.231 99.5244 133.412C99.6192 134.131 99.7164 134.906 99.8123 135.723L75.6861 141.307C75.6861 141.307 66.3846 141.725 60.3959 155.251C55.3261 166.702 45.2342 196.14 42.2566 204.904H42.2566L42.2566 204.904C41.717 206.492 41.4106 207.403 41.4106 207.403C41.4106 207.403 41.5094 207.293 41.6989 207.107C41.5115 207.661 41.4106 207.96 41.4106 207.96C41.4106 207.96 41.5571 207.798 41.8354 207.532C41.4128 211.2 41.3525 217.495 45.7428 218.279C49.4231 218.937 58.9025 219.207 66.066 219.317V219.325H66.5628C71.3098 219.395 74.9215 219.395 74.9215 219.395V219.325H151.946V218.461C151.947 217.676 151.802 216.9 151.521 216.178C151.558 216.131 151.594 216.084 151.629 216.037C152.041 216.632 152.315 217.328 152.428 218.065C152.419 218.137 152.407 218.208 152.392 218.279C152.392 218.279 152.408 218.234 152.437 218.15C152.455 218.38 152.44 218.612 152.392 218.837C152.392 218.837 162.274 190.971 162.168 174.333C162.197 172.577 162.076 170.821 161.806 169.09ZM100.207 139.485C100.08 138.691 99.9985 137.888 99.9629 137.082L99.9635 137.06C100.049 137.842 100.131 138.654 100.207 139.485ZM70.2708 199.338V205.98L66.4667 206.869L70.2708 199.338Z" fill="url(#paint1_linear)"/>
<path d="M111.541 84.5146H111.541C116.185 84.5147 120.639 86.5336 123.923 90.1274C127.207 93.7212 129.052 98.5955 129.052 103.678V111.852H94.0303V103.678C94.0303 98.5955 95.8752 93.7212 99.1591 90.1274C102.443 86.5336 106.897 84.5146 111.541 84.5146Z" fill="#E14B5A"/>
<path d="M111.663 129.542C122.687 129.542 131.623 122.822 131.623 114.533C131.623 106.243 122.687 99.5236 111.663 99.5236C100.64 99.5236 91.7036 106.243 91.7036 114.533C91.7036 122.822 100.64 129.542 111.663 129.542Z" fill="#E14B5A"/>
<path d="M98.8672 129.072C98.8672 129.072 103.031 152.926 98.8672 159.359C94.7038 165.791 111.602 168.337 111.602 168.337L129.113 161.369L131.562 144.216C131.562 144.216 120.909 137.649 123.113 124.382L98.8672 129.072Z" fill="#F7C4A7"/>
<path d="M150.542 209.478C150.542 209.478 151.644 214.704 145.644 215.642C142.101 216.213 138.497 216.166 134.967 215.503L133.644 202.375H147.603L150.542 209.478Z" fill="#F7C4A7"/>
<path d="M44.5765 202.788C44.5765 202.788 41.9267 214.57 47.9269 215.642C53.9271 216.714 75.9686 216.714 75.9686 216.714V202.777L65.9906 205.11L56.621 195.273L44.5765 202.788Z" fill="#F7C4A7"/>
<path opacity="0.1" d="M100.153 136.778L76.7032 142.205C76.7032 142.205 67.7642 142.607 62.0089 155.606C56.2536 168.605 43.7634 205.726 43.7634 205.726C43.7634 205.726 54.4168 193.933 66.907 206.53L75.2338 190.047L73.397 216.178H137.93V203.85C137.93 203.85 151.399 211.756 150.42 216.178C150.42 216.178 161.946 183.677 159.467 168.906C158.717 164.34 158.257 159.723 158.09 155.087V155.087C157.943 151.269 156.72 147.594 154.588 144.567C152.457 141.54 149.522 139.31 146.186 138.181C144.971 137.772 143.631 137.389 142.154 137.046C128.317 133.83 124.766 137.046 124.766 137.046C124.766 137.046 122.086 146.591 122.133 150.916C122.194 156.477 114.908 160.163 114.908 160.163C114.908 160.163 104.133 157.348 103.643 155.07C103.153 152.792 99.2957 139.458 100.153 136.778Z" fill="black"/>
<path d="M100.153 136.242L76.7032 141.669C76.7032 141.669 67.7641 142.071 62.0089 155.07C56.2536 168.069 43.7634 205.19 43.7634 205.19C43.7634 205.19 54.4168 193.397 66.907 205.994L75.2338 189.511L73.397 215.642H137.93V203.313C137.93 203.313 151.399 211.22 150.42 215.642C150.42 215.642 161.946 183.141 159.467 168.37C158.717 163.804 158.257 159.186 158.09 154.551V154.551C157.943 150.733 156.72 147.058 154.588 144.031C152.457 141.004 149.522 138.773 146.186 137.645C144.971 137.236 143.631 136.853 142.154 136.51C128.317 133.294 124.766 136.51 124.766 136.51C124.766 136.51 122.086 146.054 122.133 150.38C122.194 155.941 114.908 159.627 114.908 159.627C114.908 159.627 104.133 156.812 103.643 154.534C103.153 152.256 99.2957 138.922 100.153 136.242Z" fill="#575988"/>
<path opacity="0.1" d="M124.119 135.103C123.134 132.051 122.914 128.765 123.48 125.588L99.2346 130.279C99.2346 130.279 99.5846 132.284 99.9801 135.288C101.547 137.067 103.428 138.479 105.509 139.438C107.59 140.397 109.828 140.882 112.086 140.865C114.344 140.848 116.575 140.328 118.644 139.337C120.712 138.347 122.575 136.906 124.119 135.103Z" fill="black"/>
<path d="M128.256 121.434C128.256 126.229 126.529 130.832 123.449 134.243C120.37 137.654 116.186 139.6 111.804 139.658C107.423 139.716 103.197 137.882 100.043 134.554C96.8884 131.225 95.0599 126.67 94.9536 121.876C94.95 121.729 94.9487 121.581 94.9487 121.434C94.9482 118.022 95.8229 114.677 97.4734 111.782C99.1238 108.887 101.484 106.557 104.285 105.057C104.784 104.79 105.297 104.55 105.824 104.336C108.565 103.233 111.522 102.933 114.402 103.465C114.403 103.466 114.406 103.467 114.408 103.466C118.096 104.154 121.466 106.182 123.972 109.223C126.478 112.264 127.974 116.14 128.219 120.227C128.244 120.626 128.256 121.028 128.256 121.434Z" fill="#F7C4A7"/>
<g opacity="0.1">
<path opacity="0.1" d="M105.801 104.763C105.808 104.758 105.816 104.752 105.824 104.747C105.297 104.96 104.784 105.201 104.285 105.468C101.484 106.968 99.1238 109.298 97.4734 112.194C95.8229 115.089 94.9482 118.433 94.9487 121.846C94.9487 121.993 94.95 122.14 94.9536 122.288C95.4712 122.273 95.9802 122.139 96.4476 121.895C100.508 119.822 102.944 113.477 103.9 109.052C104.243 107.468 104.571 105.683 105.801 104.763Z" fill="black"/>
<path opacity="0.1" d="M118.548 105.275C117.23 104.613 115.838 104.143 114.408 103.878C115.581 104.173 116.628 104.893 117.381 105.921C117.749 106.47 118.055 107.067 118.291 107.697C116.075 106.636 113.674 106.116 111.256 106.17C108.837 106.225 106.459 106.855 104.284 108.015C105.33 110.522 108.571 111.89 110.735 112.805C113.105 113.806 115.502 114.722 117.927 115.551C117.213 114.916 116.499 114.282 115.785 113.648C117.397 113.928 119.009 114.209 120.621 114.49C120.673 113.436 120.559 112.381 120.283 111.37C121.204 112.187 122.438 112.461 123.443 113.155C125.328 114.455 126.112 116.964 127.139 119.127C127.377 119.722 127.748 120.242 128.219 120.638C128.021 117.362 127.017 114.205 125.315 111.501C123.612 108.797 121.274 106.646 118.548 105.275Z" fill="black"/>
</g>
<path d="M105.801 104.352C105.808 104.346 105.816 104.341 105.824 104.336C105.297 104.549 104.784 104.789 104.285 105.057C101.484 106.557 99.1238 108.887 97.4734 111.782C95.8229 114.677 94.9482 118.022 94.9487 121.434C94.9487 121.581 94.95 121.729 94.9536 121.876C95.4712 121.861 95.9802 121.727 96.4476 121.484C100.508 119.41 102.944 113.065 103.9 108.64C104.243 107.056 104.571 105.271 105.801 104.352Z" fill="#632652"/>
<path d="M118.548 104.864C117.23 104.201 115.838 103.731 114.408 103.466C115.581 103.761 116.628 104.481 117.381 105.51C117.749 106.059 118.055 106.655 118.291 107.285C116.075 106.225 113.674 105.704 111.256 105.759C108.837 105.814 106.459 106.443 104.284 107.603C105.33 110.11 108.571 111.478 110.735 112.394C113.105 113.395 115.502 114.31 117.927 115.14C117.213 114.504 116.499 113.87 115.785 113.237C117.397 113.517 119.009 113.797 120.621 114.078C120.673 113.025 120.559 111.969 120.283 110.959C121.204 111.776 122.438 112.049 123.443 112.743C125.328 114.043 126.112 116.552 127.139 118.715C127.377 119.31 127.748 119.83 128.219 120.227C128.02 116.95 127.017 113.793 125.315 111.089C123.612 108.385 121.274 106.234 118.548 104.864Z" fill="#632652"/>
<path opacity="0.1" d="M93.0508 118.428C93.0508 118.428 110.194 95.1108 130.031 118.428L128.317 113.202C128.317 113.202 119.011 98.327 112.398 101.543C105.786 104.759 99.2959 107.038 99.2959 107.038L93.0508 118.428Z" fill="black"/>
<path d="M93.0508 118.017C93.0508 118.017 110.194 94.6992 130.031 118.017L128.317 112.79C128.317 112.79 119.011 97.9154 112.398 101.132C105.786 104.348 99.2959 106.626 99.2959 106.626L93.0508 118.017Z" fill="#E14B5A"/>
<path opacity="0.1" d="M78.9685 168.27C78.9685 168.27 75.295 178.991 80.438 188.64C85.581 198.288 75.9072 202.308 75.9072 202.308" fill="black"/>
<path opacity="0.1" d="M138.481 158.622C138.481 158.622 144.848 167.466 140.685 175.373C136.521 183.279 136.766 202.308 136.766 202.308" fill="black"/>
<path d="M73.3357 210.215H144.113C145.672 210.215 147.167 210.893 148.27 212.099C149.372 213.305 149.991 214.941 149.991 216.647H67.458C67.458 214.941 68.0773 213.305 69.1796 212.099C70.2818 210.893 71.7769 210.215 73.3357 210.215H73.3357Z" fill="#535461"/>
<path d="M83.9826 165.992H133.467C136.778 165.992 139.953 167.431 142.294 169.993C144.635 172.555 145.95 176.03 145.95 179.654V211.689H71.499V179.654C71.499 176.03 72.8143 172.555 75.1554 169.993C77.4965 167.431 80.6718 165.992 83.9826 165.992Z" fill="#535461"/>
<path d="M108.663 195.675C111.098 195.675 113.072 193.515 113.072 190.851C113.072 188.186 111.098 186.026 108.663 186.026C106.229 186.026 104.255 188.186 104.255 190.851C104.255 193.515 106.229 195.675 108.663 195.675Z" fill="white"/>
<path opacity="0.1" d="M94.0303 107.495C94.0303 107.495 110.88 89.0658 129.052 107.159" stroke="black" stroke-miterlimit="10"/>
<path d="M133.31 106.322H131.617V116.816H133.31V106.322Z" fill="#6A5C99"/>
<path d="M129.361 113.112C130.907 113.112 132.39 113.784 133.483 114.981C134.576 116.177 135.19 117.799 135.19 119.491V119.903C135.19 121.595 134.576 123.217 133.483 124.413C132.39 125.61 130.907 126.282 129.361 126.282V113.112Z" fill="#FFD037"/>
<path d="M129.549 112.495H129.549C128.822 112.495 128.233 113.14 128.233 113.935V125.459C128.233 126.254 128.822 126.899 129.549 126.899H129.549C130.276 126.899 130.865 126.254 130.865 125.459V113.935C130.865 113.14 130.276 112.495 129.549 112.495Z" fill="#6A5C99"/>
<path d="M89.5997 117.022H91.292V106.527H89.5997V117.022Z" fill="#6A5C99"/>
<path d="M93.5483 126.487C92.0024 126.487 90.5198 125.815 89.4267 124.619C88.3336 123.423 87.7194 121.8 87.7194 120.108V119.697C87.7194 118.005 88.3336 116.383 89.4267 115.186C90.5198 113.99 92.0024 113.318 93.5483 113.318V126.487Z" fill="#FFD037"/>
<path d="M93.3603 127.105H93.3603C94.0872 127.105 94.6765 126.46 94.6765 125.664V114.141C94.6765 113.345 94.0872 112.701 93.3603 112.701H93.3603C92.6334 112.701 92.0441 113.345 92.0441 114.141V125.664C92.0441 126.46 92.6334 127.105 93.3603 127.105Z" fill="#6A5C99"/>
<path d="M131.417 95.1043C129.126 89.8904 124.135 83.5866 113.378 83.0835L113.379 83.0691L113.249 83.0758L113.241 83.0753L113.241 83.0763L109.43 83.2749L109.43 83.2953C98.7437 83.8337 93.7767 90.1128 91.4926 95.3102C89.9737 98.831 89.1678 102.669 89.1301 106.563L90.446 106.527L91.7618 106.494C91.8194 103.024 92.5498 99.6069 93.9047 96.4688C96.8061 89.9482 102.144 86.4797 109.769 86.1597L109.769 86.1572L113.14 85.953L113.14 85.954C120.766 86.2739 126.103 89.7424 129.005 96.2631C130.36 99.4011 131.09 102.818 131.148 106.289L132.464 106.322L133.779 106.357C133.742 102.464 132.936 98.6252 131.417 95.1043Z" fill="#FFD037"/>
<path d="M191.541 216.732H12.0403V269.474H191.541V216.732Z" fill="#D6D6E3"/>
<path opacity="0.1" d="M191.541 220.282H12.0403V227.128H191.541V220.282Z" fill="black"/>
<path d="M203.58 215.971H0V222.818H203.58V215.971Z" fill="#D6D6E3"/>
<path d="M139.401 198.945C139.401 198.945 147.084 214.359 166.289 210.155C185.495 205.951 176.212 249.038 176.212 249.038C176.212 249.038 173.07 269.592 175.281 269.474" stroke="#535461" stroke-width="3" stroke-miterlimit="10"/>
</g>
<defs>
<linearGradient id="paint0_linear" x1="298.159" y1="171.978" x2="298.159" y2="25.1342" gradientUnits="userSpaceOnUse">
<stop stop-color="#808080" stop-opacity="0.25"/>
<stop offset="0.53514" stop-color="#808080" stop-opacity="0.12"/>
<stop offset="1" stop-color="#808080" stop-opacity="0.1"/>
</linearGradient>
<linearGradient id="paint1_linear" x1="42991.9" y1="95228.2" x2="42991.9" y2="41209.3" gradientUnits="userSpaceOnUse">
<stop stop-color="#808080" stop-opacity="0.25"/>
<stop offset="0.53514" stop-color="#808080" stop-opacity="0.12"/>
<stop offset="1" stop-color="#808080" stop-opacity="0.1"/>
</linearGradient>
<clipPath id="clip0">
<rect width="360" height="270" fill="white"/>
</clipPath>
</defs>
</svg>
