<svg width="524" height="478" viewBox="0 0 524 478" fill="none" xmlns="http://www.w3.org/2000/svg">
<path d="M319.246 3.01895H2.90923C1.30251 3.01895 0 4.26631 0 5.80501V469.176C0 470.715 1.30251 471.962 2.90923 471.962H319.246C320.853 471.962 322.156 470.715 322.156 469.176V5.80501C322.156 4.26631 320.853 3.01895 319.246 3.01895Z" fill="white"/>
<path d="M2.90923 3.51895H319.246C320.598 3.51895 321.656 4.56261 321.656 5.80501V469.176C321.656 470.418 320.598 471.462 319.246 471.462H2.90923C1.55805 471.462 0.5 470.418 0.5 469.176V5.80501C0.5 4.56262 1.55804 3.51895 2.90923 3.51895Z" stroke="black" stroke-opacity="0.1"/>
<path d="M96.6084 89.7842H38.8154C37.2311 89.7842 35.9468 91.0299 35.9468 92.5666V142.464C35.9468 144.001 37.2311 145.246 38.8154 145.246H96.6084C98.1927 145.246 99.477 144.001 99.477 142.464V92.5666C99.477 91.0299 98.1927 89.7842 96.6084 89.7842Z" fill="#F7D022"/>
<path d="M287.218 89.7842H121.393C119.816 89.7842 118.538 91.0244 118.538 92.5542V93.1787C118.538 94.7085 119.816 95.9487 121.393 95.9487H287.218C288.796 95.9487 290.074 94.7085 290.074 93.1787V92.5542C290.074 91.0244 288.796 89.7842 287.218 89.7842Z" fill="#E0E0E0"/>
<path d="M258.277 108.265H121.393C119.816 108.265 118.538 109.506 118.538 111.035V111.66C118.538 113.19 119.816 114.43 121.393 114.43H258.277C259.855 114.43 261.133 113.19 261.133 111.66V111.035C261.133 109.506 259.855 108.265 258.277 108.265Z" fill="#E0E0E0"/>
<path d="M96.6084 176.05H38.8154C37.2311 176.05 35.9468 177.296 35.9468 178.833V228.73C35.9468 230.267 37.2311 231.512 38.8154 231.512H96.6084C98.1927 231.512 99.477 230.267 99.477 228.73V178.833C99.477 177.296 98.1927 176.05 96.6084 176.05Z" fill="#F7D022"/>
<path d="M287.218 176.05H121.393C119.816 176.05 118.538 177.29 118.538 178.82V179.445C118.538 180.975 119.816 182.215 121.393 182.215H287.218C288.796 182.215 290.074 180.975 290.074 179.445V178.82C290.074 177.29 288.796 176.05 287.218 176.05Z" fill="#E0E0E0"/>
<path d="M287.218 194.538H121.393C119.816 194.538 118.538 195.778 118.538 197.308V197.932C118.538 199.462 119.816 200.702 121.393 200.702H287.218C288.796 200.702 290.074 199.462 290.074 197.932V197.308C290.074 195.778 288.796 194.538 287.218 194.538Z" fill="#E0E0E0"/>
<path d="M96.6084 262.323H38.8154C37.2311 262.323 35.9468 263.568 35.9468 265.105V315.002C35.9468 316.539 37.2311 317.785 38.8154 317.785H96.6084C98.1927 317.785 99.477 316.539 99.477 315.002V265.105C99.477 263.568 98.1927 262.323 96.6084 262.323Z" fill="#F7D022"/>
<path d="M287.218 262.323H121.393C119.816 262.323 118.538 263.563 118.538 265.092V265.717C118.538 267.247 119.816 268.487 121.393 268.487H287.218C288.796 268.487 290.074 267.247 290.074 265.717V265.092C290.074 263.563 288.796 262.323 287.218 262.323Z" fill="#E0E0E0"/>
<path d="M134.742 280.81H121.393C119.816 280.81 118.538 282.05 118.538 283.58V284.204C118.538 285.734 119.816 286.974 121.393 286.974H134.742C136.319 286.974 137.598 285.734 137.598 284.204V283.58C137.598 282.05 136.319 280.81 134.742 280.81Z" fill="#E0E0E0"/>
<g opacity="0.5">
<path opacity="0.5" d="M521.131 153.903H205.743C204.159 153.903 202.875 155.148 202.875 156.685V432.085C202.875 433.621 204.159 434.867 205.743 434.867H521.131C522.715 434.867 524 433.621 524 432.085V156.685C524 155.148 522.715 153.903 521.131 153.903Z" fill="url(#paint0_linear)"/>
</g>
<path d="M516.375 162.974H210.364C208.779 162.974 207.495 164.219 207.495 165.756V432.332C207.495 433.869 208.779 435.115 210.364 435.115H516.375C517.959 435.115 519.243 433.869 519.243 432.332V165.756C519.243 164.219 517.959 162.974 516.375 162.974Z" fill="white"/>
<path d="M210.364 163.474H516.375C517.697 163.474 518.743 164.51 518.743 165.756V432.332C518.743 433.579 517.697 434.615 516.375 434.615H210.364C209.041 434.615 207.995 433.579 207.995 432.332V165.756C207.995 164.51 209.041 163.474 210.364 163.474Z" stroke="black" stroke-opacity="0.1"/>
<path d="M302.556 215.189H241.314C239.73 215.189 238.445 216.435 238.445 217.971V270.88C238.445 272.416 239.73 273.662 241.314 273.662H302.556C304.14 273.662 305.424 272.416 305.424 270.88V217.971C305.424 216.435 304.14 215.189 302.556 215.189Z" fill="#F7D022"/>
<path d="M503.499 215.189H328.386C326.802 215.189 325.518 216.435 325.518 217.971V218.905C325.518 220.442 326.802 221.687 328.386 221.687H503.499C505.083 221.687 506.368 220.442 506.368 218.905V217.971C506.368 216.435 505.083 215.189 503.499 215.189Z" fill="#E0E0E0"/>
<path d="M503.499 234.678H328.386C326.802 234.678 325.518 235.924 325.518 237.46V238.394C325.518 239.931 326.802 241.176 328.386 241.176H503.499C505.083 241.176 506.368 239.931 506.368 238.394V237.46C506.368 235.924 505.083 234.678 503.499 234.678Z" fill="#E0E0E0"/>
<path d="M503.499 305.425H234.614C233.03 305.425 231.746 306.67 231.746 308.207V309.141C231.746 310.677 233.03 311.923 234.614 311.923H503.499C505.083 311.923 506.367 310.677 506.367 309.141V308.207C506.367 306.67 505.083 305.425 503.499 305.425Z" fill="#E0E0E0"/>
<path d="M503.499 324.914H234.614C233.03 324.914 231.746 326.159 231.746 327.696V328.63C231.746 330.166 233.03 331.412 234.614 331.412H503.499C505.083 331.412 506.367 330.166 506.367 328.63V327.696C506.367 326.159 505.083 324.914 503.499 324.914Z" fill="#E0E0E0"/>
<path d="M503.499 350.901H234.614C233.03 350.901 231.746 352.147 231.746 353.683V354.617C231.746 356.154 233.03 357.399 234.614 357.399H503.499C505.083 357.399 506.367 356.154 506.367 354.617V353.683C506.367 352.147 505.083 350.901 503.499 350.901Z" fill="#E0E0E0"/>
<path d="M436.52 370.39H234.614C233.03 370.39 231.746 371.636 231.746 373.172V374.106C231.746 375.643 233.03 376.888 234.614 376.888H436.52C438.104 376.888 439.389 375.643 439.389 374.106V373.172C439.389 371.636 438.104 370.39 436.52 370.39Z" fill="#E0E0E0"/>
<defs>
<linearGradient id="paint0_linear" x1="183283" y1="197759" x2="183283" y2="70088.8" gradientUnits="userSpaceOnUse">
<stop stop-color="#808080" stop-opacity="0.25"/>
<stop offset="0.54" stop-color="#808080" stop-opacity="0.12"/>
<stop offset="1" stop-color="#808080" stop-opacity="0.1"/>
</linearGradient>
</defs>
</svg>
