<svg width="120" height="100" viewBox="0 0 120 100" fill="none" xmlns="http://www.w3.org/2000/svg">
<path d="M74.779 98.4731H44.9683L45.9788 85.2419H73.7684L74.779 98.4731Z" fill="#E6E6E6"/>
<path d="M76.8 96.9466H43.4526V100H76.8V96.9466Z" fill="#E6E6E6"/>
<path d="M116.968 0H3.03158C2.22755 0 1.45646 0.321705 0.887926 0.894335C0.319395 1.46697 0 2.24361 0 3.05343V3.05343V73.028H120V3.05343C120 2.65245 119.922 2.25539 119.769 1.88494C119.617 1.51448 119.394 1.17787 119.112 0.894335C118.831 0.610798 118.496 0.385881 118.129 0.232431C117.761 0.0789815 117.367 3.46733e-07 116.968 0H116.968Z" fill="#3F3D56"/>
<path d="M0 73.028V84.4784C0 84.8793 0.0784164 85.2764 0.230767 85.6469C0.383119 86.0173 0.606418 86.3539 0.887926 86.6375C1.16943 86.921 1.50364 87.1459 1.87144 87.2994C2.23925 87.4528 2.63346 87.5318 3.03158 87.5318H116.968C117.772 87.5318 118.544 87.2101 119.112 86.6375C119.681 86.0648 120 85.2882 120 84.4784V73.028H0Z" fill="#E6E6E6"/>
<path d="M114.19 6.36131H6.06348V67.43H114.19V6.36131Z" fill="#E6E6E6"/>
<path d="M60.1258 83.2061C61.8001 83.2061 63.1574 81.839 63.1574 80.1527C63.1574 78.4663 61.8001 77.0992 60.1258 77.0992C58.4515 77.0992 57.0942 78.4663 57.0942 80.1527C57.0942 81.839 58.4515 83.2061 60.1258 83.2061Z" fill="#3F3D56"/>
<path d="M111.073 10.3303H8.85938V61.6179H111.073V10.3303Z" fill="white"/>
<path d="M15.6538 18.1314C15.558 18.1315 15.4662 18.1699 15.3984 18.2381C15.3307 18.3063 15.2926 18.3989 15.2925 18.4954V36.8921C15.2926 36.9886 15.3307 37.0811 15.3984 37.1493C15.4662 37.2176 15.558 37.256 15.6538 37.256H36.747C36.8428 37.256 36.9347 37.2176 37.0024 37.1493C37.0702 37.0811 37.1082 36.9886 37.1083 36.8921V18.4954C37.1082 18.3989 37.0702 18.3063 37.0024 18.2381C36.9347 18.1699 36.8428 18.1315 36.747 18.1314H15.6538Z" fill="#E6E6E6"/>
<path d="M49.5216 18.1906C49.4258 18.1907 49.3339 18.229 49.2661 18.2973C49.1984 18.3655 49.1603 18.458 49.1602 18.5545V36.8921C49.1603 36.9886 49.1984 37.0812 49.2661 37.1494C49.3339 37.2176 49.4258 37.256 49.5216 37.2561H70.5476C70.6434 37.256 70.7352 37.2176 70.803 37.1493C70.8707 37.0811 70.9088 36.9886 70.9088 36.8921V18.5545C70.9088 18.4581 70.8707 18.3656 70.803 18.2973C70.7352 18.2291 70.6434 18.1907 70.5476 18.1906H49.5216Z" fill="#E6E6E6"/>
<path d="M83.0341 17.9984C82.9383 17.9985 82.8465 18.0369 82.7787 18.1051C82.711 18.1733 82.6729 18.2658 82.6729 18.3623V36.8921C82.6729 36.9886 82.711 37.0811 82.7787 37.1493C82.8465 37.2175 82.9383 37.2559 83.0341 37.256H104.279C104.374 37.2559 104.466 37.2175 104.534 37.1493C104.602 37.0811 104.64 36.9886 104.64 36.8921V18.3623C104.64 18.2658 104.602 18.1733 104.534 18.1051C104.466 18.0369 104.374 17.9985 104.279 17.9984H83.0341Z" fill="#E6E6E6"/>
<path d="M16.0391 46.3623C15.8412 46.3627 15.6516 46.4422 15.5118 46.5832C15.372 46.7243 15.2935 46.9155 15.2935 47.1148C15.2935 47.3141 15.372 47.5053 15.5118 47.6464C15.6516 47.7874 15.8412 47.8669 16.0391 47.8672H35.8709C36.0688 47.8669 36.2585 47.7874 36.3983 47.6464C36.5381 47.5053 36.6166 47.3141 36.6166 47.1148C36.6166 46.9155 36.5381 46.7243 36.3983 46.5832C36.2585 46.4422 36.0688 46.3627 35.8709 46.3623H16.0391Z" fill="#E6E6E6"/>
<path d="M16.0392 49.9415C15.8413 49.9419 15.6516 50.0213 15.5118 50.1624C15.372 50.3035 15.2935 50.4947 15.2935 50.694C15.2935 50.8934 15.372 51.0845 15.5118 51.2256C15.6516 51.3667 15.8413 51.4462 16.0392 51.4465H24.9683C25.1662 51.4462 25.3559 51.3667 25.4957 51.2256C25.6355 51.0845 25.714 50.8934 25.714 50.694C25.714 50.4947 25.6355 50.3035 25.4957 50.1624C25.3559 50.0213 25.1662 49.9419 24.9683 49.9415H16.0392Z" fill="#F7D022"/>
<path d="M50.2711 46.3623C50.0732 46.3627 49.8835 46.4422 49.7437 46.5832C49.6039 46.7243 49.5254 46.9155 49.5254 47.1148C49.5254 47.3141 49.6039 47.5053 49.7437 47.6464C49.8835 47.7874 50.0732 47.8669 50.2711 47.8672H70.1028C70.3007 47.8669 70.4904 47.7874 70.6302 47.6464C70.77 47.5053 70.8485 47.3141 70.8485 47.1148C70.8485 46.9155 70.77 46.7243 70.6302 46.5832C70.4904 46.4422 70.3007 46.3627 70.1028 46.3623H50.2711Z" fill="#E6E6E6"/>
<path d="M50.2711 49.9415C50.0732 49.9419 49.8835 50.0213 49.7437 50.1624C49.6039 50.3035 49.5254 50.4947 49.5254 50.694C49.5254 50.8934 49.6039 51.0845 49.7437 51.2256C49.8835 51.3667 50.0732 51.4462 50.2711 51.4465H59.2003C59.3983 51.4462 59.5879 51.3667 59.7277 51.2256C59.8675 51.0845 59.9461 50.8934 59.9461 50.694C59.9461 50.4947 59.8675 50.3035 59.7277 50.1624C59.5879 50.0213 59.3983 49.9419 59.2003 49.9415H50.2711Z" fill="#F7D022"/>
<path d="M83.6475 46.3623C83.4496 46.3627 83.26 46.4422 83.1202 46.5832C82.9804 46.7243 82.9019 46.9155 82.9019 47.1148C82.9019 47.3141 82.9804 47.5053 83.1202 47.6464C83.26 47.7874 83.4496 47.8669 83.6475 47.8672H103.479C103.677 47.8669 103.867 47.7874 104.007 47.6464C104.146 47.5053 104.225 47.3141 104.225 47.1148C104.225 46.9155 104.146 46.7243 104.007 46.5832C103.867 46.4422 103.677 46.3627 103.479 46.3623H83.6475Z" fill="#E6E6E6"/>
<path d="M16.0391 42.6659C15.8412 42.6663 15.6516 42.7457 15.5118 42.8868C15.372 43.0279 15.2935 43.219 15.2935 43.4183C15.2935 43.6177 15.372 43.8088 15.5118 43.9499C15.6516 44.091 15.8412 44.1704 16.0391 44.1708H35.8709C36.0688 44.1704 36.2585 44.091 36.3983 43.9499C36.5381 43.8088 36.6166 43.6177 36.6166 43.4183C36.6166 43.219 36.5381 43.0279 36.3983 42.8868C36.2585 42.7457 36.0688 42.6663 35.8709 42.6659H16.0391Z" fill="#E6E6E6"/>
<path d="M50.2711 42.6659C50.0732 42.6663 49.8835 42.7457 49.7437 42.8868C49.6039 43.0279 49.5254 43.219 49.5254 43.4183C49.5254 43.6177 49.6039 43.8088 49.7437 43.9499C49.8835 44.091 50.0732 44.1704 50.2711 44.1708H70.1028C70.3007 44.1704 70.4904 44.091 70.6302 43.9499C70.77 43.8088 70.8485 43.6177 70.8485 43.4183C70.8485 43.219 70.77 43.0279 70.6302 42.8868C70.4904 42.7457 70.3007 42.6663 70.1028 42.6659H50.2711Z" fill="#E6E6E6"/>
<path d="M83.6475 42.6659C83.4496 42.6663 83.26 42.7457 83.1202 42.8868C82.9804 43.0279 82.9019 43.219 82.9019 43.4183C82.9019 43.6177 82.9804 43.8088 83.1202 43.9499C83.26 44.091 83.4496 44.1704 83.6475 44.1708H103.479C103.677 44.1704 103.867 44.091 104.007 43.9499C104.146 43.8088 104.225 43.6177 104.225 43.4183C104.225 43.219 104.146 43.0279 104.007 42.8868C103.867 42.7457 103.677 42.6663 103.479 42.6659H83.6475Z" fill="#E6E6E6"/>
<path d="M83.6471 49.9415C83.4492 49.9419 83.2595 50.0213 83.1197 50.1624C82.9799 50.3035 82.9014 50.4947 82.9014 50.694C82.9014 50.8934 82.9799 51.0845 83.1197 51.2256C83.2595 51.3667 83.4492 51.4462 83.6471 51.4465H92.5761C92.774 51.4462 92.9637 51.3667 93.1035 51.2256C93.2433 51.0845 93.3218 50.8934 93.3218 50.694C93.3218 50.4947 93.2433 50.3035 93.1035 50.1624C92.9637 50.0213 92.774 49.9419 92.5761 49.9415H83.6471Z" fill="#F7D022"/>
</svg>
